<?xml version="1.0" standalone="no"?>
<!DOCTYPE svg PUBLIC "-//W3C//DTD SVG 20010904//EN"
 "http://www.w3.org/TR/2001/REC-SVG-20010904/DTD/svg10.dtd">
<svg version="1.0" xmlns="http://www.w3.org/2000/svg"
 width="400.000000pt" height="400.000000pt" viewBox="0 0 400.000000 400.000000"
 preserveAspectRatio="xMidYMid meet">
<metadata>
Created by potrace 1.11, written by Peter Selinger 2001-2013
</metadata>
<g transform="translate(0.000000,400.000000) scale(0.100000,-0.100000)"
fill="#000000" stroke="none">
<path d="M0 2000 l0 -2000 2000 0 2000 0 0 2000 0 2000 -2000 0 -2000 0 0
-2000z m3423 1672 c27 -24 19 -91 -22 -177 -17 -37 -30 -70 -28 -71 2 -2 39
-13 83 -24 89 -23 124 -44 139 -84 12 -34 -9 -75 -48 -94 -24 -12 -35 -11 -85
6 -68 23 -122 34 -122 25 0 -4 21 -49 46 -101 52 -107 103 -257 130 -382 29
-130 27 -477 -4 -613 -75 -339 -246 -634 -497 -858 -72 -64 -233 -178 -313
-221 l-31 -17 15 -53 c33 -113 154 -292 218 -321 17 -8 70 -18 117 -21 160
-12 499 -96 540 -133 39 -34 22 -113 -28 -130 -22 -8 -47 -4 -123 18 -479 145
-948 123 -1423 -67 -60 -24 -117 -44 -127 -44 -9 0 -29 9 -44 21 -35 27 -36
86 -3 117 29 27 250 112 387 148 58 15 106 28 108 29 1 1 -15 32 -37 69 -21
37 -50 101 -63 142 l-23 75 -45 -6 c-81 -12 -323 -7 -420 9 -127 20 -252 57
-381 112 l-106 46 -59 -30 c-148 -74 -351 -112 -499 -93 -96 13 -162 32 -224
64 -84 43 -79 21 -96 489 -9 267 -11 426 -5 442 17 46 80 61 119 29 12 -10 37
-55 56 -101 90 -221 285 -426 517 -543 43 -21 81 -39 86 -39 5 0 14 62 20 138
21 239 69 409 174 613 175 342 491 623 848 754 41 15 79 31 83 35 4 3 1 35 -8
71 -72 306 121 620 424 689 76 18 207 15 277 -5 75 -22 164 -67 208 -106 l35
-31 30 46 c16 26 39 73 51 106 36 96 96 124 153 72z"/>
<path d="M2685 3427 c-145 -48 -243 -151 -280 -292 -31 -123 -17 -191 80 -384
35 -69 73 -155 84 -190 137 -424 31 -861 -285 -1177 -120 -120 -327 -242 -476
-281 -38 -10 -68 -20 -68 -24 0 -11 98 -19 227 -19 601 0 1148 393 1337 960
59 179 71 253 71 455 0 246 -31 381 -134 600 -92 194 -160 277 -271 329 -55
26 -79 31 -155 33 -55 2 -105 -2 -130 -10z m268 -181 c101 -94 -32 -239 -135
-147 -27 24 -33 36 -33 71 0 85 106 133 168 76z"/>
<path d="M2260 2656 c-202 -71 -361 -170 -519 -321 -275 -263 -439 -644 -429
-995 l3 -104 45 -9 c72 -13 275 -1 364 22 353 93 620 361 712 716 36 143 36
327 0 470 -26 99 -88 246 -103 244 -4 0 -37 -11 -73 -23z"/>
<path d="M524 1356 c4 -143 10 -202 19 -208 71 -46 345 -49 452 -4 l30 12 -65
33 c-139 71 -270 172 -375 291 -32 36 -60 67 -63 70 -3 3 -2 -85 2 -194z"/>
<path d="M2425 966 c-67 -22 -70 -24 -69 -52 2 -37 52 -140 100 -206 l36 -49
72 6 c125 11 121 8 82 63 -40 56 -82 138 -107 207 -9 28 -23 51 -31 52 -7 0
-44 -9 -83 -21z"/>
</g>
</svg>
