<svg xmlns="http://www.w3.org/2000/svg" width="126" height="114" viewBox="0 0 126 114">
    <defs>
        <filter id="a" width="235.3%" height="261.4%" x="-67.6%" y="-77.2%" filterUnits="objectBoundingBox">
            <feOffset dy="2" in="SourceAlpha" result="shadowOffsetOuter1"/>
            <feGaussianBlur in="shadowOffsetOuter1" result="shadowBlurOuter1" stdDeviation="15"/>
            <feColorMatrix in="shadowBlurOuter1" result="shadowMatrixOuter1" values="0 0 0 0 0 0 0 0 0 0 0 0 0 0 0 0 0 0 0.2 0"/>
            <feMerge>
                <feMergeNode in="shadowMatrixOuter1"/>
                <feMergeNode in="SourceGraphic"/>
            </feMerge>
        </filter>
    </defs>
    <g fill="none" fill-rule="evenodd" filter="url(#a)" transform="translate(29 26)">
        <path fill="#FFF" d="M41.5 2.836L60 13.516a15 15 0 0 1 7.5 12.991v15.022c0 8.285-6.716 15-15 15h-37c-8.284 0-15-6.715-15-15V26.507A15 15 0 0 1 8 13.517L26.5 2.836a15 15 0 0 1 15 0z"/>
        <path fill="#353535" d="M25 31.5l1.663 1.663 6.65-6.65V41h2.374V26.513l6.65 6.65L44 31.5 34.5 22z"/>
    </g>
</svg>
