<svg xmlns="http://www.w3.org/2000/svg" width="126" height="130" viewBox="0 0 126 130">
    <defs>
        <filter id="a" width="235.3%" height="224.3%" x="-67.6%" y="-59.5%" filterUnits="objectBoundingBox">
            <feOffset dy="2" in="SourceAlpha" result="shadowOffsetOuter1"/>
            <feGaussianBlur in="shadowOffsetOuter1" result="shadowBlurOuter1" stdDeviation="15"/>
            <feColorMatrix in="shadowBlurOuter1" result="shadowMatrixOuter1" values="0 0 0 0 0 0 0 0 0 0 0 0 0 0 0 0 0 0 0.2 0"/>
            <feMerge>
                <feMergeNode in="shadowMatrixOuter1"/>
                <feMergeNode in="SourceGraphic"/>
            </feMerge>
        </filter>
    </defs>
    <g fill="none" fill-rule="evenodd" filter="url(#a)" transform="translate(29 26)">
        <path fill="#FFF" d="M41.5 2.836L60 13.516a15 15 0 0 1 7.5 12.991v21.362a15 15 0 0 1-7.5 12.99L41.5 71.54a15 15 0 0 1-15 0L8 60.86A15 15 0 0 1 .5 47.868V26.507A15 15 0 0 1 8 13.517L26.5 2.836a15 15 0 0 1 15 0z"/>
        <path fill="#353535" d="M25 37.5l1.663 1.663 6.65-6.65V47h2.374V32.513l6.65 6.65L44 37.5 34.5 28z"/>
    </g>
</svg>
