<svg xmlns="http://www.w3.org/2000/svg" width="253" height="133" viewBox="0 0 253 133">
    <g fill="#FECC00" fill-rule="evenodd" opacity=".6">
        <path d="M104 133V95.164c0-2.65-1.314-4.928-3.61-6.252L67.611 69.993c-2.295-1.324-4.925-1.324-7.22 0l-32.778 18.92c-2.297 1.323-3.613 3.6-3.613 6.25V133h80M112 18.28v26.437c0 1.855.92 3.445 2.528 4.37l22.945 13.219c1.605.925 3.447.925 5.054 0l22.947-13.219c1.605-.925 2.526-2.515 2.526-4.37V18.28c0-1.852-.92-3.442-2.526-4.367L142.527.694c-1.607-.925-3.449-.925-5.054 0l-22.945 13.219c-1.607.925-2.528 2.515-2.528 4.367M253 72.059l-33.91-19.683c-3.163-1.835-6.788-1.835-9.95 0l-45.163 26.216C160.812 80.43 159 83.586 159 87.258V133h94V72.059zM0 16.865v14.268c0 1 .493 1.859 1.355 2.358l12.29 7.134c.86.5 1.846.5 2.706 0l12.292-7.134A2.66 2.66 0 0 0 30 31.133V16.865c0-.997-.494-1.855-1.357-2.356L16.351 7.375c-.86-.5-1.845-.5-2.706 0L1.355 14.51A2.66 2.66 0 0 0 0 16.865"/>
    </g>
</svg>
