<svg xmlns="http://www.w3.org/2000/svg" width="69" height="90" viewBox="0 0 69 90">
    <g fill="none" fill-rule="evenodd">
        <path fill="#1B909E" d="M0 0h53.049L69 14.98V90H0z"/>
        <path fill="#62CFD9" d="M53.203.006v14.958h15.833z"/>
        <path fill="#FFF" d="M23 77.056v-10.96h1.296v1.376h.016C24.904 66.544 25.896 66 27.08 66c2.208 0 3.792 1.744 3.792 4.048 0 2.368-1.648 3.936-3.792 3.936-1.232 0-2.192-.544-2.768-1.44h-.016v4.512H23zm3.904-4.256c1.568 0 2.656-1.184 2.656-2.752 0-1.728-1.2-2.864-2.672-2.864-1.584 0-2.656 1.264-2.656 2.864 0 1.648 1.184 2.752 2.672 2.752zm9.035 1.184c-2.16 0-3.824-1.568-3.824-3.936 0-2.304 1.616-4.048 3.808-4.048 1.184 0 2.192.544 2.784 1.488h.016v-5.376h1.296v11.776h-1.248v-1.44h-.016c-.56.944-1.552 1.536-2.816 1.536zm.176-1.184c1.472 0 2.656-1.104 2.656-2.752 0-1.6-1.072-2.864-2.64-2.864-1.488 0-2.688 1.136-2.688 2.864 0 1.568 1.088 2.752 2.672 2.752zm6.443 1.088h1.296v-6.672h2.208v-1.12h-2.208V64.64c0-1.024.416-1.44 1.056-1.44.432 0 .864.16 1.36.416l.288-1.104A3.323 3.323 0 0 0 44.75 62c-1.392 0-2.192.848-2.192 2.512v1.584h-.944v1.12h.944v6.672z" opacity=".6"/>
    </g>
</svg>
