<?xml version="1.0" encoding="UTF-8" standalone="no"?>
<svg width="21px" height="22px" viewBox="0 0 21 22" version="1.1" xmlns="http://www.w3.org/2000/svg" xmlns:xlink="http://www.w3.org/1999/xlink">
    <!-- Generator: sketchtool 47.1 (45422) - http://www.bohemiancoding.com/sketch -->
    <title>50EA42BC-6247-4859-A7F1-78BD3AA547CE</title>
    <desc>Created with sketchtool.</desc>
    <defs></defs>
    <g id="Page-1" stroke="none" stroke-width="1" fill="none" fill-rule="evenodd">
        <g id="main-1280" transform="translate(-777.000000, -3871.000000)" fill-rule="nonzero" fill="#222222">
            <g id="Group-44" transform="translate(98.000000, 3304.000000)">
                <g id="Group-6" transform="translate(139.000000, 32.000000)">
                    <g id="Group-3-Copy" transform="translate(353.000000, 514.000000)">
                        <g id="Group-19" transform="translate(187.000000, 21.000000)">
                            <path d="M20.7610959,13.3979239 L18.078544,13.3979239 C17.9466591,13.3979239 17.8398836,13.5048033 17.8398836,13.6368165 L17.8398836,16.08089 L15.3955045,16.08089 C15.2636197,16.08089 15.1568441,16.1877694 15.1568441,16.3195386 L15.1568441,18.7638562 L12.7127088,18.7638562 C12.580824,18.7638562 12.4740484,18.8707356 12.4740484,19.0025047 L12.4740484,21.6852269 C12.4740484,21.816996 12.580824,21.9238754 12.7127088,21.9238754 L15.3955045,21.9238754 L18.078544,21.9238754 L20.7613397,21.9238754 C20.8932245,21.9238754 21,21.816996 21,21.6852269 L21,19.0020167 L21,16.3190506 L21,13.6365724 C20.9997562,13.5045593 20.8929807,13.3979239 20.7610959,13.3979239 Z M18.3167167,16.5579431 L20.5229231,16.5579431 L20.5229231,18.7633681 L18.3167167,18.7633681 L18.3167167,16.5579431 Z M18.3167167,13.875221 L20.5229231,13.875221 L20.5229231,16.080646 L18.3167167,16.080646 L18.3167167,13.875221 Z M15.633921,16.5579431 L17.8398836,16.5579431 L17.8398836,18.7633681 L15.633921,18.7633681 L15.633921,16.5579431 Z M12.9508816,19.2406653 L15.1568441,19.2406653 L15.1568441,21.4458463 L12.9508816,21.4458463 L12.9508816,19.2406653 Z M15.633921,19.2406653 L17.8398836,19.2406653 L17.8398836,21.4458463 L15.633921,21.4458463 L15.633921,19.2406653 Z M20.5229231,21.4458463 L18.3167167,21.4458463 L18.3167167,19.2406653 L20.5229231,19.2406653 L20.5229231,21.4458463 Z" id="Shape"></path>
                            <path d="M8.01014894,20.7396444 L6.88741095,20.7396444 L6.88741095,3.90084444 L16.2405526,3.90084444 L16.2468944,9.47295556 L15.1434256,9.47295556 C15.0117118,9.47295556 14.9046334,9.58002222 14.9046334,9.71226667 L14.9046334,12.3994444 C14.9046334,12.5316889 15.0114679,12.6387556 15.1434256,12.6387556 L17.8279475,12.6387556 C17.9596613,12.6387556 18.0667397,12.5316889 18.0667397,12.3994444 L18.0667397,9.71202222 C18.0667397,9.57977778 17.9599052,9.47271111 17.8279475,9.47271111 L16.7244788,9.47271111 L16.7178931,3.9006 L19.2553346,3.9006 C19.6355971,3.9006 19.9446367,3.57304444 19.9446367,3.1702 C19.9446367,2.7676 19.6353532,2.4398 19.2553346,2.4398 L14.2809443,2.4398 L6.42543707,0.6138 C6.37226373,0.266688889 6.08932303,0 5.74662329,0 C5.38733738,0 5.09512793,0.293088889 5.06317514,0.664888889 L1.9866828,2.44004444 L0.689789927,2.44004444 C0.309527375,2.44004444 0,2.7676 0,3.17044444 C0,3.57328889 0.309527375,3.90084444 0.689789927,3.90084444 L0.870042669,3.90084444 L0.870042669,4.6926 C0.870042669,5.0952 1.17957004,5.423 1.55958868,5.423 L2.46182805,5.423 C2.84233452,5.423 3.15161798,5.09544444 3.15161798,4.6926 L3.15161798,3.90084444 L4.60534781,3.90084444 L4.60534781,20.7396444 L3.49822034,20.7396444 C3.11771388,20.7396444 2.80867433,21.0672 2.80867433,21.4698 L2.80867433,21.7606889 C2.80867433,21.8929333 2.91550884,22 3.04746653,22 L8.47041541,22 C8.60212919,22 8.7089637,21.8929333 8.7089637,21.7606889 L8.7089637,21.4698 C8.7089637,21.0672 8.39553369,20.7396444 8.01014894,20.7396444 Z M17.5891553,12.1603778 L15.3819739,12.1603778 L15.3819739,9.95108889 L17.5891553,9.95108889 L17.5891553,12.1603778 Z M19.4672962,3.17044444 C19.4672962,3.30953333 19.3719257,3.42271111 19.2550907,3.42271111 L6.88741095,3.42271111 L6.88741095,2.91842222 L19.2550907,2.91842222 C19.3721696,2.91817778 19.4672962,3.03135556 19.4672962,3.17044444 Z M6.88741095,2.44004444 L6.88741095,2.18802222 C6.88741095,1.8744 6.69910903,1.60868889 6.43641322,1.50553333 L6.43641322,1.10733333 L12.2401125,2.44004444 L6.88741095,2.44004444 Z M5.74662329,0.478377778 C5.86370221,0.478377778 5.95931665,0.591555556 5.95931665,0.730644444 L5.95931665,1.45786667 L5.53417385,1.45786667 L5.53417385,0.7304 C5.53392994,0.591311111 5.62930047,0.478377778 5.74662329,0.478377778 Z M5.05658945,1.22051111 L5.05658945,1.50553333 C4.79413756,1.60868889 4.60534781,1.87464444 4.60534781,2.18802222 L4.60534781,2.44004444 L2.94282725,2.44004444 L5.05658945,1.22051111 Z M2.67452141,4.6926 C2.67452141,4.83144444 2.57915088,4.94462222 2.46207197,4.94462222 L1.5598326,4.94462222 C1.44275368,4.94462222 1.34738315,4.83144444 1.34738315,4.6926 L1.34738315,3.90084444 L2.67452141,3.90084444 L2.67452141,4.6926 Z M0.689789927,3.42246667 C0.572711014,3.42246667 0.477096569,3.30928889 0.477096569,3.1702 C0.477096569,3.03135556 0.572711014,2.91817778 0.689789927,2.91817778 L4.60559172,2.91817778 L4.60559172,3.42246667 L0.689789927,3.42246667 Z M5.08293221,2.18802222 C5.08293221,2.04917778 5.17830274,1.936 5.29538165,1.936 L6.19786494,1.936 C6.31494385,1.936 6.41031438,2.04917778 6.41031438,2.18802222 L6.41031438,3.65371111 C6.41031438,3.6564 6.40860698,3.65884444 6.40860698,3.66177778 C6.40860698,3.66471111 6.41031438,3.66691111 6.41031438,3.66984444 L6.41031438,20.7396444 L5.08293221,20.7396444 L5.08293221,2.18802222 L5.08293221,2.18802222 Z M8.23186713,21.5216222 L3.28601481,21.5216222 L3.28601481,21.4698 C3.28601481,21.3309556 3.38162926,21.2177778 3.49846426,21.2177778 L4.84316435,21.2177778 C4.84365218,21.2177778 4.8438961,21.2180222 4.84438392,21.2180222 C4.84487175,21.2180222 4.84511567,21.2177778 4.8456035,21.2177778 L6.64813092,21.2177778 C6.64861875,21.2177778 6.64886266,21.2180222 6.64935049,21.2180222 C6.64983832,21.2180222 6.65008224,21.2177778 6.65057007,21.2177778 L8.01039285,21.2177778 C8.13039874,21.2177778 8.23211104,21.3331556 8.23211104,21.4698 L8.23211104,21.5216222 L8.23186713,21.5216222 Z" id="Shape"></path>
                        </g>
                    </g>
                </g>
            </g>
        </g>
    </g>
</svg>