<?xml version="1.0" encoding="UTF-8" standalone="no"?>
<svg width="20px" height="25px" viewBox="0 0 20 25" version="1.1" xmlns="http://www.w3.org/2000/svg" xmlns:xlink="http://www.w3.org/1999/xlink">
    <!-- Generator: sketchtool 47.1 (45422) - http://www.bohemiancoding.com/sketch -->
    <title>06D2A6BD-016C-4161-8A6D-6F143D07C124</title>
    <desc>Created with sketchtool.</desc>
    <defs></defs>
    <g id="Page-1" stroke="none" stroke-width="1" fill="none" fill-rule="evenodd">
        <g id="main-1280" transform="translate(-536.000000, -3869.000000)" fill-rule="nonzero" fill="#2D2D2D">
            <g id="Group-44" transform="translate(98.000000, 3304.000000)">
                <g id="Group-6" transform="translate(139.000000, 32.000000)">
                    <g id="Group-3" transform="translate(83.000000, 514.000000)">
                        <g id="Group-13" transform="translate(216.000000, 19.641993)">
                            <rect id="Rectangle-path" x="4.16666667" y="9.20930233" width="3.33333333" height="1"></rect>
                            <path d="M20,24 L20,2.79069767 L16.6666667,2.79069767 L16.6666667,0 L5.12777778,0 L0,5.25767442 L0,20.6511628 L2.77777778,20.6511628 L2.77777778,24 L20,24 Z M19.4444444,3.34883721 L19.4444444,23.4418605 L3.33333333,23.4418605 L3.33333333,20.6511628 L16.6666667,20.6511628 L16.6666667,3.34883721 L19.4444444,3.34883721 Z M5,0.926511628 L5,5.30232558 L0.733333333,5.30232558 L5,0.926511628 Z M0.555555556,20.0930233 L0.555555556,5.86046512 L5.55555556,5.86046512 L5.55555556,0.558139535 L16.1111111,0.558139535 L16.1111111,20.0930233 L0.555555556,20.0930233 Z" id="Shape"></path>
                            <rect id="Rectangle-path" x="4.16666667" y="12.5581395" width="8.33333333" height="1"></rect>
                            <rect id="Rectangle-path" x="4.16666667" y="15.9069767" width="8.33333333" height="1"></rect>
                        </g>
                    </g>
                </g>
            </g>
        </g>
    </g>
</svg>