<svg xmlns="http://www.w3.org/2000/svg" width="23" height="23" viewBox="0 0 23 23">
    <path fill="#222" fill-rule="nonzero" d="M.615 10.433c-.82.82-.82 2.168 0 2.988l.214.213a2.423 2.423 0 0 0 0 3.415l1.067 1.067-.854.854a.917.917 0 0 0 0 1.28l1.707 1.708a.917.917 0 0 0 1.281 0l.854-.854 1.067 1.067a2.423 2.423 0 0 0 3.415 0l.213.214c.82.82 2.168.82 2.988 0 .82-.82.82-2.168 0-2.988L9.58 16.409l6.83-6.83 2.988 2.988c.82.82 2.167.82 2.988 0 .82-.82.82-2.168 0-2.988l-.214-.213a2.423 2.423 0 0 0 0-3.415l-1.067-1.067.854-.854a.917.917 0 0 0 0-1.28L20.25 1.041a.917.917 0 0 0-1.281 0l-.854.854L17.05.829a2.423 2.423 0 0 0-3.415 0l-.213-.214a2.122 2.122 0 0 0-2.988 0c-.82.82-.82 2.168 0 2.988l2.988 2.988-6.83 6.83-2.988-2.988a2.122 2.122 0 0 0-2.988 0zm.854.854a.89.89 0 0 1 1.28 0l8.964 8.963a.89.89 0 0 1 0 1.281.89.89 0 0 1-1.28 0l-8.964-8.964a.89.89 0 0 1 0-1.28zm9.818-9.818a.89.89 0 0 1 1.28 0l8.964 8.964a.89.89 0 0 1 0 1.28.89.89 0 0 1-1.28 0L11.287 2.75a.89.89 0 0 1 0-1.28zM1.682 14.488l6.83 6.83c-.48.48-1.227.48-1.707 0l-5.123-5.123a1.192 1.192 0 0 1 0-1.707zM14.488 1.682c.48-.48 1.227-.48 1.707 0l5.123 5.123c.48.48.48 1.227 0 1.707l-6.83-6.83zM2.109 19.61l.64-.64 1.281 1.28-.64.64-1.28-1.28zm5.336-5.335l6.83-6.83 1.28 1.28-6.83 6.83-1.28-1.28zM18.97 2.749l.64-.64 1.28 1.28-.64.641-1.28-1.28z" opacity=".8"/>
</svg>
