<svg xmlns="http://www.w3.org/2000/svg" width="30" height="30" viewBox="0 0 30 30">
    <g fill="none" fill-rule="evenodd">
        <path fill="#FFF" fill-rule="nonzero" d="M29.724 18.627a2.153 2.153 0 0 0-1.02-1.377 2.32 2.32 0 0 0-1.176-.318c-.778 0-1.491.376-1.908 1.006a21.54 21.54 0 0 1-2.43 3.057l-1.395-7.298c-.1-.521.042-.72.087-.786.352-.5 1.555-.687 2.72-.868 1.15-.179 2.34-.364 3.342-.87.546-.277.94-.83 1.053-1.483.116-.666-.073-1.335-.504-1.79l-4.78-5.038a2.299 2.299 0 0 0-.279-.249l-.246-1.394c-.14-.789-.9-1.337-1.709-1.197l-.802.141a1.47 1.47 0 0 0-.954.609 1.466 1.466 0 0 0-.245 1.1l.111.628-.849.128-.158-.905C18.442.933 17.68.385 16.87.526l-.803.14a1.468 1.468 0 0 0-.952.608 1.465 1.465 0 0 0-.246 1.103l.373 2.115c.017.101.045.201.084.296.019.209.055.428.09.644.026.162.052.323.069.471l.422 3.972c.083.77-.033 1.028-.109 1.113-.186.206-.896.206-1.13.206-.322 0-.681-.016-1.08-.032-.69-.03-1.49-.064-2.394-.036-.172.005-.328.007-.467.007-.76 0-.76 0-1.232-1.064a37.368 37.368 0 0 0-.41-.902c-.258-.549-.76-.955-1.489-1.208a2.311 2.311 0 0 0-.745-.127c-1.609 0-2.895 1.717-3.125 4.176-.081.853-.025 1.74.161 2.564a.709.709 0 0 0 1.365.066c.024-.075.052-.15.081-.225.246-.623 1.437-1.835 1.98-2.061.03.18.044.574-.103 1.345l-1.464 7.67a9.093 9.093 0 0 1-1.336-2.515c-.301-.898-1.163-1.502-2.145-1.502-.23 0-.458.034-.68.1a2.23 2.23 0 0 0-1.349 1.112 2.096 2.096 0 0 0-.126 1.64c1.04 3.064 3.217 5.697 6.13 7.415a14.923 14.923 0 0 0 5.792 1.965c.615.076 1.243.115 1.865.115 1.55 0 3.105-.235 4.62-.7 4.204-1.29 7.974-4.309 10.905-8.731.325-.49.431-1.073.301-1.64zm-1.482.857c-2.747 4.146-6.253 6.966-10.139 8.158a14.229 14.229 0 0 1-5.896.535 13.522 13.522 0 0 1-5.245-1.78c-2.621-1.546-4.577-3.908-5.508-6.648a.688.688 0 0 1 .044-.537.824.824 0 0 1 .5-.404.947.947 0 0 1 .268-.04c.366 0 .696.22.802.538.52 1.53 1.42 2.956 2.605 4.126a.71.71 0 0 0 1.194-.371l1.736-9.098c.255-1.329.185-2.142-.222-2.635-.23-.277-.56-.43-.929-.43-.76 0-1.643.687-2.33 1.43l.016-.187c.17-1.81 1.005-2.892 1.714-2.892a.84.84 0 0 1 .281.051c.361.125.58.28.672.473.158.335.287.625.397.872.628 1.417.926 1.908 2.527 1.908.152 0 .319-.004.506-.009.867-.024 1.633.008 2.295.036.42.018.802.033 1.14.033.818 0 1.65-.081 2.184-.675.562-.626.534-1.562.465-2.211l-.422-3.972c-.019-.173-.05-.36-.08-.55-.036-.217-.074-.437-.086-.64a.807.807 0 0 0-.091-.315l-.326-2.186.803-.14.068.046.28 1.586c.066.378.42.639.803.577l2.25-.34a.705.705 0 0 0 .592-.823l-.19-1.41.87-.094.3 1.702c.04.224.183.414.387.514.073.035.14.087.206.157l4.78 5.036c.122.13.174.35.136.572-.037.214-.148.386-.296.46-.802.406-1.879.574-2.92.736-1.523.236-2.962.46-3.661 1.451-.354.503-.462 1.131-.32 1.87l1.639 8.583a.704.704 0 0 0 .469.538c.242.083.51.027.7-.143 1.295-1.161 2.503-2.581 3.59-4.221.236-.355.797-.475 1.183-.25.186.11.314.278.359.474a.683.683 0 0 1-.1.54zm-9.098.286c-.48-1.415-1.262-2.133-2.324-2.133h-4.633c-1.061 0-1.843.717-2.324 2.133l-1.657 4.87a.708.708 0 0 0 .351.862 11.808 11.808 0 0 0 3.881 1.177c.49.061.989.091 1.484.091 1.228 0 2.459-.187 3.659-.554.937-.289 1.86-.687 2.742-1.185a.71.71 0 0 0 .324-.845l-1.503-4.416zm-1.979 5.09a11.049 11.049 0 0 1-3.243.493c-.437 0-.878-.027-1.31-.08a10.376 10.376 0 0 1-2.86-.778l1.452-4.27c.398-1.17.808-1.17.983-1.17h4.633c.175 0 .584 0 .982 1.17l1.309 3.848c-.634.32-1.287.585-1.946.788z"/>
        <ellipse cx="22.473" cy="6.849" stroke="#FFF" stroke-linecap="round" stroke-linejoin="round" stroke-width="1.429" rx="1" ry="1"/>
    </g>
</svg>
