<svg xmlns="http://www.w3.org/2000/svg" width="24" height="24" viewBox="0 0 24 24">
    <g fill="#231F20" fill-rule="nonzero" opacity=".7">
        <path d="M21.36 4.163v6.613c0 .146.096.244.24.244h2.16c.144 0 .24-.098.24-.244V4.163c0-.147-.096-.245-.24-.245h-.264c-.144 0-.24-.098-.24-.245V2.278c0-.147-.096-.245-.24-.245h-1.872c-.144 0-.24-.098-.24-.245v-.05c0-.122-.096-.244-.216-.244l-4.296-.27c-.12 0-.216-.122-.216-.244V.318c0-.147-.096-.245-.24-.245H8.064c-.144 0-.24.098-.24.245V.98c0 .122-.096.244-.216.244l-4.272.245c-.12 0-.216.123-.216.245v.074c0 .147-.096.245-.24.245h-1.8c-.144 0-.24.098-.24.245v1.395c0 .147-.096.245-.24.245H.24c-.144 0-.24.098-.24.245v6.613c0 .146.096.244.24.244H2.4c.144 0 .24-.098.24-.244V4.163c0-.147-.096-.245-.24-.245h-.36c-.144 0-.24-.098-.24-.245v-.416c0-.147.096-.245.24-.245h.816c.144 0 .24.098.24.245v15.747c0 .147-.096.245-.24.245h-.384c-.144 0-.24.098-.24.245v2.302c0 .147.096.245.24.245h1.656c.144 0 .24.098.24.245v1.47c0 .146.096.244.24.244H8.16c.144 0 .24-.098.24-.245v-1.47c0-.146.096-.244.24-.244h6.768c.144 0 .24.098.24.245v1.47c0 .146.096.244.24.244h3.552c.144 0 .24-.098.24-.245v-1.47c0-.146.096-.244.24-.244h1.632c.144 0 .24-.098.24-.245v-2.278c0-.147-.096-.245-.24-.245h-.384c-.144 0-.24-.097-.24-.244V3.257c0-.147.096-.245.24-.245h.912c.144 0 .24.098.24.245v.416c0 .147-.096.245-.24.245h-.48c-.144 0-.24.098-.24.245zM1.44 10.041H1.2c-.144 0-.24-.098-.24-.245V5.143c0-.147.096-.245.24-.245h.24c.144 0 .24.098.24.245v4.653c0 .147-.096.245-.24.245zm18.264 2.4h-6.936c-.144 0-.24-.098-.24-.245V4.114c0-.147.096-.245.24-.245h6.936c.144 0 .24.098.24.245v8.082c0 .147-.096.245-.24.245zm-15.648-.245V4.114c0-.147.096-.245.24-.245h7.032c.144 0 .24.098.24.245v8.082c0 .147-.096.245-.24.245H4.296c-.144 0-.24-.098-.24-.245zm15.888-9.551c0 .147-.096.245-.24.245h-3.288c-.144 0-.24-.098-.24-.245v-.196c0-.147.12-.245.264-.245l3.288.196c.12.024.216.122.216.245zM9.024 1.053h5.952c.144 0 .24.098.24.245v1.347c0 .147-.096.245-.24.245H9.024c-.144 0-.24-.098-.24-.245V1.298c0-.122.096-.245.24-.245zm-1.2 1.42v.196c0 .147-.096.245-.24.245H4.296c-.144 0-.24-.098-.24-.245 0-.122.096-.245.216-.245L7.56 2.23c.144-.025.264.098.264.244zM7.2 23.02H5.568c-.144 0-.24-.098-.24-.244v-.49c0-.147.096-.245.24-.245H7.2c.144 0 .24.098.24.245v.49c0 .146-.096.244-.24.244zm11.28 0h-1.632c-.144 0-.24-.098-.24-.244v-.49c0-.147.096-.245.24-.245h1.632c.144 0 .24.098.24.245v.49c0 .146-.096.244-.24.244zm2.352-2.204c0 .147-.096.245-.24.245H3.432c-.144 0-.24-.098-.24-.245v-.318c0-.147.096-.245.24-.245h17.16c.144 0 .24.098.24.245v.318zM4.056 19.03v-5.364c0-.147.096-.245.24-.245h15.408c.144 0 .24.098.24.245v5.34c0 .146-.096.244-.24.244H4.296c-.144.024-.24-.098-.24-.22zM22.8 10.04h-.24c-.144 0-.24-.098-.24-.245V5.143c0-.147.096-.245.24-.245h.24c.144 0 .24.098.24.245v4.653c0 .147-.12.245-.24.245z"/>
        <path d="M5.76 15.184c-.168 0-.336 0-.528.024l-.216.025c-.12.024-.216.122-.216.245v2.89c0 .146.096.244.24.244h3.816a.231.231 0 0 0 .216-.171l.048-.172c.072-.196.096-.391.096-.587.024-1.396-1.512-2.498-3.456-2.498zm0 2.204v-.98c0-.147.12-.245.264-.245 1.032.074 1.896.539 2.16 1.127.072.147-.048.343-.216.343H6c-.144 0-.24-.098-.24-.245zM18.192 15.184c-1.944 0-3.48 1.102-3.48 2.522 0 .196.024.392.096.588l.048.171c.024.098.12.172.216.172h3.816c.144 0 .24-.098.24-.245v-2.914c0-.123-.096-.22-.216-.245l-.192-.025c-.192-.024-.384-.024-.528-.024zm-.24 2.449h-1.968a.241.241 0 0 1-.216-.343c.264-.588 1.152-1.053 2.16-1.127.144 0 .264.098.264.245v.98c0 .147-.12.245-.24.245z"/>
    </g>
</svg>
