<svg xmlns="http://www.w3.org/2000/svg" width="20" height="21" viewBox="0 0 20 21">
    <path fill="#000" fill-rule="evenodd" d="M10 .608c1.225 0 2.336.221 3.178.606.42.192.773.426 1.041.715.268.289.45.652.45 1.052 0 .607-.213 1.33-.933 1.76-.222.133-.485.241-.793.33.704.155 1.349.365 1.908.62.635.29 1.17.634 1.558 1.052.389.418.639.93.639 1.479 0 .902-.285 1.903-1.337 2.53-.547.326-1.282.56-2.264.716 1.175.208 2.239.518 3.137.914.858.379 1.569.833 2.083 1.369.514.536.833 1.18.833 1.87 0 1.18-.365 2.428-1.76 3.233-1.396.804-3.722 1.241-7.747 1.21-4.018-.035-6.332-.473-7.726-1.258-.534-.301-.918-.663-1.19-1.066a.443.443 0 0 1-.074-.124C.63 16.997.5 16.304.5 15.622c0-.691.319-1.335.833-1.871s1.225-.99 2.083-1.369c.93-.41 2.04-.727 3.265-.935-1.044-.16-1.817-.398-2.385-.729-1.051-.612-1.344-1.593-1.344-2.496 0-.55.25-1.06.639-1.48.389-.417.922-.762 1.558-1.051a9.63 9.63 0 0 1 1.962-.626 3.549 3.549 0 0 1-.846-.344c-.719-.42-.941-1.133-.941-1.74 0-.4.188-.764.457-1.052.269-.289.627-.523 1.048-.715C7.67.83 8.779.608 10 .608zm0 .88c-1.117 0-2.127.214-2.822.53-.347.159-.618.343-.78.516-.16.173-.214.316-.214.447 0 .077.003.14.007.206.399.19.861.213 1.417.124.622-.1 1.33-.34 2.076-.584.887-.29 1.852-.587 2.809-.599.207-.002.412.014.618.042-.089-.052-.179-.104-.282-.152-.694-.316-1.708-.53-2.829-.53zm2.593 1.52c-.829-.009-1.724.257-2.647.558-.738.24-1.475.502-2.203.619a5.044 5.044 0 0 1-.336.04c.572.145 1.407.244 2.593.255h.007c1.832.013 2.83-.216 3.299-.495.358-.214.46-.424.49-.715a2.925 2.925 0 0 0-1.203-.261zM10 5.65c-1.772 0-3.378.335-4.501.846-.11.05-.21.105-.31.159.146-.006.287-.006.424-.007 2.366-.02 3.446.626 4.434 1.251 1.195.756 2.277 1.481 5.993 1.266.111-.276.148-.582.148-.942 0-.282-.123-.565-.403-.867-.281-.302-.722-.604-1.284-.86-1.122-.51-2.725-.846-4.501-.846zM6.09 7.513c-.577-.012-1.262.03-2.09.124-.125.2-.188.393-.188.585 0 .758.111 1.258.914 1.726.803.467 2.397.824 5.274.846h.007c2.698.024 4.262-.285 5.106-.716-3.13.032-4.434-.748-5.523-1.437-.912-.577-1.665-1.088-3.5-1.128zm3.91 4.54c-2.454 0-4.672.448-6.242 1.14-.784.347-1.41.755-1.814 1.177-.404.422-.584.837-.584 1.252 0 .542.049.999.262 1.41 3.454.358 6.164-.883 8.855-1.899 1.537-.58 3.09-1.082 4.73-1.107a8.092 8.092 0 0 1 3.01.53 3.148 3.148 0 0 0-.168-.186c-.405-.422-1.023-.83-1.807-1.176-1.57-.693-3.788-1.142-6.242-1.142zm5.193 2.84c-1.483.025-2.906.494-4.42 1.066-2.397.904-4.989 2.08-8.197 2.015.034.02.065.041.1.061 1.15.647 3.366 1.114 7.324 1.149 3.96.03 6.172-.434 7.316-1.093 1.116-.644 1.315-1.401 1.324-2.394-1.228-.597-2.353-.823-3.447-.804z" opacity=".8"/>
</svg>
