<svg xmlns="http://www.w3.org/2000/svg" width="22" height="23" viewBox="0 0 22 23">
    <g fill="#000" fill-rule="evenodd" opacity=".8">
        <path d="M10.99.094a.533.533 0 0 0-.184.036L.566 4.167a.527.527 0 0 0-.292.276.513.513 0 0 0 .276.682.532.532 0 0 0 .404.002L11 1.167l10.046 3.96a.532.532 0 0 0 .574-.116.518.518 0 0 0 .106-.568.518.518 0 0 0-.291-.276L11.195.13a.532.532 0 0 0-.205-.036z"/>
        <path d="M7.653 4.997c-.04 0-.082 0-.123.002-1.32.045-2.628.566-3.958 1.325a.523.523 0 0 0-.261.447v.812H.943a.532.532 0 0 0-.37.151.518.518 0 0 0-.154.366v14.218a.512.512 0 0 0 .323.478c.064.026.132.04.2.04h20.115a.531.531 0 0 0 .37-.152.518.518 0 0 0 .154-.366V8.1a.513.513 0 0 0-.323-.478.532.532 0 0 0-.2-.04h-2.369v-.81a.515.515 0 0 0-.26-.448c-1.33-.76-2.638-1.28-3.958-1.325-1.19-.04-2.372.334-3.47 1.209-1.061-.844-2.2-1.223-3.348-1.211zm.11 1.033c.93.01 1.804.317 2.713 1.092v12.38c-1.874-.604-3.742-1.75-6.118-1.71V7.073c1.15-.627 2.222-1.007 3.208-1.04.066-.003.132-.004.198-.003zm6.474 0c.066 0 .132 0 .198.002.987.034 2.058.414 3.207 1.04v10.72c-2.376-.04-4.244 1.106-6.118 1.71V7.122c.909-.775 1.784-1.083 2.713-1.092zM1.467 8.616H3.31v9.723a.513.513 0 0 0 .359.49c.07.023.143.03.216.024 2.472-.24 4.427 1.2 6.926 1.822.1.036.21.042.313.016.003 0 .006-.003.01-.003 2.524-.614 4.49-2.077 6.98-1.836a.517.517 0 0 0 .402-.13.519.519 0 0 0 .172-.384V8.616h1.844v13.185H1.467V8.616z"/>
    </g>
</svg>
