<svg xmlns="http://www.w3.org/2000/svg" width="24" height="24" viewBox="0 0 24 24">
    <g fill="none" fill-rule="evenodd" opacity=".8">
        <path fill="#000" fill-rule="nonzero" d="M23.78 14.901a1.723 1.723 0 0 0-.817-1.101 1.856 1.856 0 0 0-.94-.255c-.623 0-1.194.301-1.527.806a17.233 17.233 0 0 1-1.945 2.445l-1.115-5.838c-.08-.417.033-.577.07-.63.281-.399 1.244-.549 2.175-.693.92-.144 1.872-.292 2.674-.697.437-.221.752-.664.843-1.186.093-.533-.059-1.068-.403-1.432L18.97 2.29a1.839 1.839 0 0 0-.224-.2L18.551.976a1.186 1.186 0 0 0-1.368-.957l-.642.113c-.31.054-.581.227-.763.486-.18.259-.25.572-.195.881L15.67 2l-.679.103-.127-.724A1.186 1.186 0 0 0 13.497.42l-.642.112c-.31.055-.581.228-.762.486a1.172 1.172 0 0 0-.197.882l.298 1.692c.014.082.037.162.067.238.016.166.044.342.072.514.022.13.042.259.056.378l.338 3.177c.066.617-.027.823-.088.89-.148.165-.717.165-.904.165-.257 0-.545-.012-.864-.026-.552-.023-1.192-.05-1.915-.028-.138.004-.262.006-.373.006-.608 0-.608 0-.986-.852-.091-.205-.197-.444-.328-.722-.207-.438-.608-.764-1.191-.966a1.849 1.849 0 0 0-.597-.102c-1.286 0-2.315 1.374-2.5 3.341a6.589 6.589 0 0 0 .13 2.051.567.567 0 0 0 1.091.054c.02-.061.042-.121.065-.18.197-.499 1.15-1.469 1.584-1.65.024.145.036.46-.082 1.076l-1.172 6.137a7.275 7.275 0 0 1-1.068-2.012c-.241-.719-.931-1.202-1.716-1.202-.184 0-.367.027-.544.08-.474.145-.857.46-1.079.89-.211.41-.248.875-.101 1.312.832 2.45 2.574 4.557 4.904 5.931a11.939 11.939 0 0 0 4.633 1.572c.493.062.995.092 1.493.092 1.239 0 2.483-.188 3.696-.56 3.363-1.031 6.379-3.446 8.724-6.984.259-.392.344-.858.24-1.312zm-1.187.686c-2.197 3.317-5.002 5.573-8.11 6.526a11.383 11.383 0 0 1-4.718.428 10.818 10.818 0 0 1-4.196-1.424c-2.096-1.236-3.661-3.126-4.406-5.318a.55.55 0 0 1 .035-.43.659.659 0 0 1 .4-.323.758.758 0 0 1 .215-.032c.292 0 .556.177.642.43a8.529 8.529 0 0 0 2.083 3.301.568.568 0 0 0 .955-.296l1.39-7.278c.203-1.064.148-1.714-.178-2.108a.946.946 0 0 0-.743-.345c-.609 0-1.315.55-1.864 1.144l.012-.15C4.247 8.266 4.915 7.4 5.481 7.4c.073 0 .149.014.226.041.288.1.464.223.537.378.127.269.23.5.317.698.503 1.133.742 1.526 2.022 1.526.122 0 .255-.003.405-.007.694-.019 1.307.007 1.836.029.337.014.641.027.912.027.655 0 1.32-.066 1.747-.541.45-.5.428-1.25.372-1.769l-.338-3.177c-.014-.139-.039-.289-.064-.44-.028-.173-.058-.35-.068-.511a.645.645 0 0 0-.073-.253l-.26-1.749.641-.112.055.037.223 1.269a.564.564 0 0 0 .644.462l1.8-.272a.564.564 0 0 0 .473-.659l-.151-1.128.696-.075.239 1.362a.57.57 0 0 0 .31.411c.058.028.112.07.165.125L21.97 7.1c.098.104.14.28.11.458-.03.17-.12.308-.237.368-.642.325-1.504.459-2.336.588-1.219.19-2.37.369-2.93 1.161-.282.402-.369.905-.256 1.496l1.312 6.866a.565.565 0 1 0 .935.316c1.036-.928 2.003-2.064 2.873-3.376.188-.284.636-.38.946-.2.148.088.25.222.286.379a.546.546 0 0 1-.08.431zm-7.278.229c-.384-1.132-1.01-1.707-1.859-1.707H9.749c-.848 0-1.474.574-1.859 1.707l-1.325 3.897a.566.566 0 0 0 .281.688c.973.491 2.018.808 3.105.942.391.049.79.073 1.186.073a9.99 9.99 0 0 0 2.928-.443c.75-.231 1.488-.55 2.194-.948a.568.568 0 0 0 .258-.676l-1.202-3.533zm-1.583 4.073a8.84 8.84 0 0 1-2.595.394c-.349 0-.702-.022-1.047-.065a8.301 8.301 0 0 1-2.289-.622l1.162-3.416c.319-.937.646-.937.786-.937h3.707c.14 0 .467 0 .785.937l1.048 3.078a9.89 9.89 0 0 1-1.557.63z"/>
        <ellipse cx="17.978" cy="5.479" stroke="#000" stroke-linecap="round" stroke-linejoin="round" stroke-width="1.143" rx="1" ry="1"/>
    </g>
</svg>
