<svg xmlns="http://www.w3.org/2000/svg" width="22" height="23" viewBox="0 0 22 23">
    <path fill="#000" fill-rule="nonzero" d="M18.883.004c-1.758.085-3.581 1.435-4.805 3.437-1.23 2.013-1.491 4.2-.678 5.683l-2.385 3.56-2.403-3.585c.32-.594.499-1.282.48-2.049a.505.505 0 0 0-.085-.27L4.923.609a.558.558 0 0 0-.515-.253.55.55 0 0 0-.454.29.5.5 0 0 0 .033.519l3.527 5.323-1.21.645L2.89 1.809a.556.556 0 0 0-.945-.002.501.501 0 0 0 .01.54l3.38 5.307-1.2.645L1.06 2.894a.547.547 0 0 0-.472-.332.557.557 0 0 0-.518.264.501.501 0 0 0 .03.558l3.569 6.27a.535.535 0 0 0 .206.204 4.557 4.557 0 0 0 2.12.564l2.96 5.331-3.347 5.005a.501.501 0 0 0-.07.406c.035.138.129.257.259.329l1.055.571h.009l.523.278.009.008 1.047.571a.574.574 0 0 0 .427.053.545.545 0 0 0 .336-.257l1.81-3.266 1.811 3.266c.07.127.19.222.334.262.145.04.3.022.43-.05l1.055-.58.524-.285 1.055-.58a.527.527 0 0 0 .265-.327.501.501 0 0 0-.067-.407l-3.347-4.997 2.97-5.347c1.733-.076 3.563-1.27 4.787-3.274.803-1.315 1.2-2.693 1.167-3.911-.033-1.218-.516-2.33-1.527-2.882a2.877 2.877 0 0 0-1.236-.335 3.61 3.61 0 0 0-.352 0zm.069 1.045c.08-.005.157-.003.232 0 .275.014.515.083.738.204.592.323.951 1.012.978 1.992.026.98-.301 2.2-1.013 3.364-1.16 1.9-2.946 2.875-4.17 2.8a.555.555 0 0 0-.523.278l-2.798 5.054-.729-1.086 2.832-4.23a.501.501 0 0 0-.009-.57c-.666-.945-.628-2.993.532-4.891 1.084-1.775 2.742-2.838 3.93-2.915zM7.969 7.442c-.037.576-.184 1.065-.43 1.412a.501.501 0 0 0-.008.572l7.654 11.422-.558.31-.532.286-.557.302L6.836 9.687a.555.555 0 0 0-.523-.278 3.402 3.402 0 0 1-1.493-.277l3.149-1.69zm1.579 9.372l.84 1.519v.008l-1.896 3.413-.558-.31a.537.537 0 0 0-.008-.009l-.524-.285h-.008l-.55-.302 2.704-4.034z" opacity=".7"/>
</svg>
