<svg xmlns="http://www.w3.org/2000/svg" width="23" height="22" viewBox="0 0 23 22">
    <path fill="#000" fill-rule="nonzero" d="M22.872 3.225c-.26-.302.92-.211-17.82-.211L4.592.482A.595.595 0 0 0 4.016 0H.56c-.748 0-.748 1.205 0 1.205h2.994l2.793 14.587a.595.595 0 0 0 .575.482h13.243c.748 0 .748-1.206 0-1.206H7.384l-.345-1.808H21c.288 0 .519-.21.576-.512 1.555-9.825 1.555-9.222 1.296-9.523zM8.91 12.055H6.78l-.691-3.617h2.82v3.617zm0-4.22H6.002l-.69-3.616H8.91v3.617zm4.318 4.22H9.485V8.438h3.743v3.617zm0-4.22H9.485V4.22h3.743v3.617zm4.318 4.22h-3.742V8.438h3.742v3.617zm0-4.22h-3.742V4.22h3.742v3.617zm2.965 4.22h-2.39V8.438h2.966l-.576 3.617zm.69-4.22h-3.08V4.22h3.628l-.547 3.617zM8.335 17.782c-1.123 0-2.015.934-2.015 2.11 0 1.175.892 2.109 2.015 2.109 1.123 0 2.015-.934 2.015-2.11 0-1.175-.892-2.11-2.015-2.11zm0 3.014c-.49 0-.864-.392-.864-.905 0-.512.375-.904.864-.904.49 0 .864.392.864.904 0 .513-.375.905-.864.905zm10.94-3.014c-1.124 0-2.016.934-2.016 2.11 0 1.175.892 2.109 2.015 2.109 1.123 0 2.015-.934 2.015-2.11 0-1.175-.892-2.11-2.015-2.11zm0 3.014c-.49 0-.864-.392-.864-.905 0-.512.374-.904.863-.904.49 0 .864.392.864.904 0 .513-.374.905-.864.905z" opacity=".8"/>
</svg>
