<svg xmlns="http://www.w3.org/2000/svg" width="27" height="23" viewBox="0 0 27 23">
    <path fill="#FFF" fill-rule="nonzero" d="M16.37.1c1.427 0 2.856.516 3.943 1.542 2.174 2.052 2.174 5.395 0 7.447L9.52 19.273c-2.174 2.052-5.714 2.052-7.888 0-2.173-2.053-2.173-5.386 0-7.439L12.426 1.642C13.513.616 14.94.1 16.369.1zm0 1.654c-.973 0-1.944.355-2.697 1.065L8.895 7.323l5.393 5.1 4.778-4.512c1.505-1.421 1.505-3.67 0-5.092a3.915 3.915 0 0 0-2.697-1.065zm-.147.858a2.942 2.942 0 0 1 1.806.796c.223.21.31.517.229.805a.859.859 0 0 1-.624.589.918.918 0 0 1-.852-.216c-.35-.33-.562-.366-.88-.312-.319.055-.759.292-1.193.702l-.834.78a.91.91 0 0 1-.883.288.857.857 0 0 1-.66-.624.806.806 0 0 1 .305-.834l.825-.788c.601-.568 1.303-1.019 2.128-1.16a2.66 2.66 0 0 1 .633-.026zM7.657 8.5l-4.778 4.503c-1.506 1.422-1.506 3.68 0 5.1a3.943 3.943 0 0 0 5.392 0l4.778-4.51L7.657 8.5zm13.472 3.239c3.232 0 5.87 2.491 5.87 5.542 0 3.051-2.638 5.542-5.87 5.542-3.23 0-5.87-2.49-5.87-5.542 0-3.05 2.64-5.542 5.87-5.542zm0 1.663c-2.28 0-4.108 1.727-4.108 3.88 0 .77.236 1.484.642 2.086l5.677-5.36a4.29 4.29 0 0 0-2.21-.606zm3.458 1.783l-5.677 5.36c.64.388 1.398.616 2.22.616 2.279 0 4.108-1.727 4.108-3.88 0-.775-.241-1.492-.651-2.096z"/>
</svg>
