<svg xmlns="http://www.w3.org/2000/svg" width="23" height="23" viewBox="0 0 23 23">
    <path fill="#646162" fill-rule="evenodd" d="M15.227 20.633c.423-.055.844-.094 1.268-.116l.028-.002a6.49 6.49 0 0 1-.518-.734 5.333 5.333 0 0 1-.624-1.434c-.4.145-.81.269-1.23.37.072.324.202.655.365.962.21.396.465.737.711.954zM4.854 17.27a9.179 9.179 0 0 1-1.696-.938l-.001.002a8.946 8.946 0 0 1-1.926-1.822l.099 2.763c.536.266 1.262.37 2.033.31a5.693 5.693 0 0 0 1.49-.315zM14.986 6.157a.558.558 0 0 0-.076-.179 2.686 2.686 0 0 1-.331-.706 2.712 2.712 0 0 1 .733-2.731 2.931 2.931 0 0 1 2.038-.811c.476 0 .924.109 1.314.301.398.196.742.48 1.006.823l.011.017a10.05 10.05 0 0 1 1.334 2.63c.29.878.453 1.81.453 2.775 0 2.667-1.125 5.081-2.941 6.828-1.818 1.748-4.327 2.829-7.1 2.829-.601 0-1.181-.05-1.74-.147a8.165 8.165 0 0 0 4.099-2.12c1.46-1.406 2.365-3.347 2.365-5.492a7.494 7.494 0 0 0-1.165-4.017zm-9.323 10.24a9.538 9.538 0 0 1-.003-.23c0-2.516.903-4.83 2.413-6.662a11.19 11.19 0 0 1 5.519-3.607 3.753 3.753 0 0 1-.273-1.397c0-1.071.45-2.04 1.18-2.742A4.098 4.098 0 0 1 17.35.624c.66 0 1.283.154 1.837.427.34.168.653.381.928.632.084-.114.165-.232.24-.354.177-.285.325-.596.437-.94a.58.58 0 0 1 .72-.364.55.55 0 0 1 .377.691c-.141.432-.327.82-.546 1.175l-.006.01.064.006c.43.048.847.156 1.251.323.291.119.427.443.303.723a.582.582 0 0 1-.752.292 3.405 3.405 0 0 0-1.09-.255c.407.683.746 1.412.999 2.178.325.983.506 2.027.506 3.108 0 2.972-1.252 5.662-3.278 7.61a11.226 11.226 0 0 1-2.885 2.008c.06.398.261.874.539 1.33.317.521.723.998 1.124 1.293 1.463.075 2.93.355 4.404.844.299.1.458.412.355.7a.58.58 0 0 1-.728.341c-1.874-.622-3.74-.879-5.595-.783-1.856.095-3.705.544-5.549 1.333a.582.582 0 0 1-.756-.278.543.543 0 0 1 .289-.728 18.353 18.353 0 0 1 3.384-1.087 5.316 5.316 0 0 1-.43-.68 5.005 5.005 0 0 1-.467-1.25c-.522.073-1.054.11-1.597.11-.973 0-1.903-.121-2.793-.348a11.366 11.366 0 0 1-2.32-.875 6.81 6.81 0 0 1-2.86.872c-1.143.086-2.245-.127-3.014-.64v-.002a.542.542 0 0 1-.244-.435L0 12.17a.552.552 0 0 1 .396-.558.578.578 0 0 1 .721.357c.456 1.352 1.444 2.582 2.712 3.47H3.83l.001.002a7.967 7.967 0 0 0 1.833.956zM17.971 2.884c.402 0 .728.314.728.701 0 .387-.326.7-.728.7a.714.714 0 0 1-.729-.7c0-.387.326-.7.729-.7zM6.82 16.646l.004.071a7.042 7.042 0 0 0 6.147-1.833C14.226 13.68 15 12.014 15 10.174a6.427 6.427 0 0 0-.889-3.272 10.043 10.043 0 0 0-5.14 3.29 9.349 9.349 0 0 0-2.15 6.454z"/>
</svg>
