<svg xmlns="http://www.w3.org/2000/svg" width="29" height="27" viewBox="0 0 29 27">
    <path fill="#FFF" fill-rule="nonzero" d="M28.838 3.958c-.327-.37 1.162-.26-22.468-.26L5.79.593A.745.745 0 0 0 5.062 0H.708c-.944 0-.944 1.48 0 1.48h3.775l3.52 17.9a.745.745 0 0 0 .726.593h16.697c.944 0 .944-1.48 0-1.48H9.31l-.435-2.219h17.604c.363 0 .653-.259.726-.629 1.96-12.057 1.96-11.318 1.633-11.687zM11.234 14.795H8.548l-.871-4.439h3.557v4.439zm0-5.179H7.568l-.871-4.438h4.537v4.438zm5.445 5.179h-4.72v-4.439h4.72v4.439zm0-5.179h-4.72V5.178h4.72v4.438zm5.444 5.179h-4.719v-4.439h4.72v4.439zm0-5.179h-4.719V5.178h4.72v4.438zm3.739 5.179h-3.013v-4.439h3.739l-.726 4.439zm.87-5.179H22.85V5.178h4.573l-.69 4.438zM10.509 21.822c-1.416 0-2.54 1.146-2.54 2.589 0 1.442 1.124 2.589 2.54 2.589s2.54-1.147 2.54-2.589c0-1.443-1.124-2.59-2.54-2.59zm0 3.699c-.617 0-1.089-.481-1.089-1.11 0-.629.472-1.11 1.089-1.11s1.089.481 1.089 1.11c0 .629-.472 1.11-1.089 1.11zm13.793-3.7c-1.416 0-2.54 1.147-2.54 2.59 0 1.442 1.124 2.589 2.54 2.589 1.415 0 2.54-1.147 2.54-2.589 0-1.443-1.125-2.59-2.54-2.59zm0 3.7c-.617 0-1.089-.481-1.089-1.11 0-.629.472-1.11 1.089-1.11s1.089.481 1.089 1.11c0 .629-.472 1.11-1.09 1.11z"/>
</svg>
