<svg xmlns="http://www.w3.org/2000/svg" width="22" height="25" viewBox="0 0 22 25">
    <path fill="#292821" fill-rule="evenodd" d="M19.396 13.052c.92.93 1.49 2.214 1.49 3.632 0 1.418-.57 2.703-1.49 3.631a5.052 5.052 0 0 1-3.041 1.474v-2.35l2.79-2.817a.565.565 0 0 0 0-.794.552.552 0 0 0-.787 0l-2.003 2.021v-4.064a.559.559 0 0 0-.557-.562.559.559 0 0 0-.556.562v4.064l-2.003-2.021a.553.553 0 0 0-.788 0 .565.565 0 0 0 0 .794l2.79 2.817v2.35a5.054 5.054 0 0 1-3.04-1.474 5.142 5.142 0 0 1-1.49-3.63c0-1.419.569-2.703 1.49-3.633a5.051 5.051 0 0 1 7.195 0zM6.089 20.304c-1.657-.207-3.132-1.33-4.216-3.04C.716 15.438 0 12.929 0 10.169s.716-5.268 1.873-7.093C3.077 1.176 4.763 0 6.647 0c1.882 0 3.57 1.176 4.773 3.076 1.157 1.825 1.873 4.334 1.873 7.093 0 .246-.009.517-.024.798a6.154 6.154 0 0 1 6.915 1.29A6.268 6.268 0 0 1 22 16.685a6.27 6.27 0 0 1-1.817 4.426 6.155 6.155 0 0 1-3.828 1.808v.959h2.601a.56.56 0 0 1 .557.561.56.56 0 0 1-.557.562H3.264a.56.56 0 0 1-.557-.562c0-.31.25-.561.557-.561h2.825v-3.573zm2.191-1.517c-.348.182-.71.312-1.076.377V15.28l3.065-3.095a.565.565 0 0 0 0-.794.553.553 0 0 0-.787 0l-2.278 2.3v-3.675l3.065-3.096a.565.565 0 0 0 0-.794.552.552 0 0 0-.787 0l-2.278 2.3V4.104a.56.56 0 0 0-.557-.561.56.56 0 0 0-.558.561v4.322l-2.278-2.3a.553.553 0 0 0-.788 0 .566.566 0 0 0 0 .794l3.066 3.096v3.675l-2.278-2.3a.554.554 0 0 0-.788 0 .566.566 0 0 0 0 .794L6.09 15.28v3.889c-1.262-.21-2.408-1.13-3.281-2.507-1.047-1.652-1.695-3.946-1.695-6.493 0-2.546.648-4.84 1.695-6.492 1-1.577 2.358-2.553 3.839-2.553 1.48 0 2.838.976 3.838 2.553 1.047 1.652 1.695 3.946 1.695 6.492a16.835 16.835 0 0 1-.076 1.487 6.268 6.268 0 0 0-2.506 5.028c0 .35.027.693.082 1.027-.425.446-.899.814-1.4 1.076zm1.731.15a6.224 6.224 0 0 1-1.222.847 4.843 4.843 0 0 1-1.585.517v3.576h8.038v-.959a6.153 6.153 0 0 1-3.828-1.808 6.27 6.27 0 0 1-1.403-2.172z" opacity=".8"/>
</svg>
