<svg xmlns="http://www.w3.org/2000/svg" width="20" height="16" viewBox="0 0 20 16">
    <path fill="#000" fill-rule="nonzero" d="M12.126 0c1.058 0 2.116.363 2.921 1.085 1.61 1.445 1.61 3.8 0 5.244L7.051 13.5c-1.61 1.445-4.233 1.445-5.843 0-1.61-1.445-1.61-3.793 0-5.238l7.996-7.177C10.01.363 11.068 0 12.126 0zm0 1.165c-.72 0-1.44.25-1.998.75l-3.54 3.17 3.995 3.592 3.54-3.177c1.115-1 1.115-2.585 0-3.585a2.985 2.985 0 0 0-1.997-.75zm-.109.603c.475.032.958.22 1.338.561.165.148.23.364.17.567a.624.624 0 0 1-.462.414.705.705 0 0 1-.632-.151c-.26-.233-.416-.258-.652-.22-.236.038-.562.206-.883.494l-.618.549a.695.695 0 0 1-.654.203.622.622 0 0 1-.49-.44.553.553 0 0 1 .227-.586l.611-.555c.445-.4.965-.718 1.576-.817.153-.025.31-.03.469-.019zM5.671 5.915l-3.54 3.17c-1.115 1.001-1.115 2.591 0 3.592 1.116 1 2.88 1 3.996 0L9.667 9.5 5.67 5.915zm9.98 2.28C18.047 8.195 20 9.95 20 12.098 20 14.246 18.046 16 15.652 16s-4.348-1.754-4.348-3.902c0-2.149 1.954-3.903 4.348-3.903zm0 1.17c-1.688 0-3.043 1.217-3.043 2.733 0 .542.175 1.045.476 1.47l4.205-3.775a3.304 3.304 0 0 0-1.637-.427zm2.562 1.257l-4.205 3.774a3.287 3.287 0 0 0 1.644.433c1.689 0 3.044-1.216 3.044-2.731 0-.546-.18-1.05-.483-1.476z" opacity=".8"/>
</svg>
