<svg xmlns="http://www.w3.org/2000/svg" width="17" height="17" viewBox="0 0 17 17">
    <path fill="#FFF" fill-rule="evenodd" d="M13.715 0H3.285A3.289 3.289 0 0 0 0 3.285v10.43A3.289 3.289 0 0 0 3.285 17h10.43A3.289 3.289 0 0 0 17 13.715V3.285A3.289 3.289 0 0 0 13.715 0zm.942 1.96l.376-.002V4.839l-2.872.01-.01-2.882 2.506-.008zM6.074 6.754A2.991 2.991 0 0 1 8.5 5.508c.999 0 1.882.494 2.426 1.247.354.492.566 1.093.566 1.745A2.996 2.996 0 0 1 8.5 11.492 2.995 2.995 0 0 1 5.507 8.5c0-.652.212-1.253.567-1.745zm9.27 6.96a1.63 1.63 0 0 1-1.63 1.628H3.286a1.63 1.63 0 0 1-1.629-1.628v-6.96h2.538A4.624 4.624 0 0 0 3.852 8.5 4.654 4.654 0 0 0 8.5 13.149a4.654 4.654 0 0 0 4.648-4.65c0-.616-.124-1.205-.343-1.744h2.538v6.96z"/>
</svg>
