<?xml version="1.0" encoding="UTF-8" standalone="no"?>
<svg width="119px" height="83px" viewBox="0 0 119 83" version="1.1" xmlns="http://www.w3.org/2000/svg" xmlns:xlink="http://www.w3.org/1999/xlink">
    <!-- Generator: Sketch 47.1 (45422) - http://www.bohemiancoding.com/sketch -->
    <title>Page 1</title>
    <desc>Created with Sketch.</desc>
    <defs>
        <filter x="-2.1%" y="-19.3%" width="104.1%" height="155.2%" filterUnits="objectBoundingBox" id="filter-1">
            <feOffset dx="0" dy="8" in="SourceAlpha" result="shadowOffsetOuter1"></feOffset>
            <feGaussianBlur stdDeviation="7.5" in="shadowOffsetOuter1" result="shadowBlurOuter1"></feGaussianBlur>
            <feColorMatrix values="0 0 0 0 0   0 0 0 0 0   0 0 0 0 0  0 0 0 0.1 0" type="matrix" in="shadowBlurOuter1" result="shadowMatrixOuter1"></feColorMatrix>
            <feMerge>
                <feMergeNode in="shadowMatrixOuter1"></feMergeNode>
                <feMergeNode in="SourceGraphic"></feMergeNode>
            </feMerge>
        </filter>
        <polygon id="path-2" points="88.8931373 10.8542071 88.8931373 0.268023469 8.49418956e-21 0.268023469 0 10.8542071 88.8931373 10.8542071"></polygon>
        <polygon id="path-4" points="0.0187714789 0.287540816 31.6936835 0.287540816 31.6936835 36.2394429 0.0187714789 36.2394429"></polygon>
    </defs>
    <g id="Page-1" stroke="none" stroke-width="1" fill="none" fill-rule="evenodd">
        <g id="main-1280-header-2" transform="translate(-35.000000, -10.000000)">
            <g id="Group-11" filter="url(#filter-1)" transform="translate(0.000000, -1.000000)">
                <g id="Page-1" transform="translate(50.000000, 17.000000)">
                    <g id="Group-5" transform="translate(0.000000, 43.681847)">
                        <mask id="mask-3" fill="white">
                            <use xlink:href="#path-2"></use>
                        </mask>
                        <g id="Clip-4"></g>
                        <path d="M86.9545042,2.23842143 L84.9256803,2.23842143 C84.4437014,2.23842143 84.109638,2.36969694 83.8940324,2.57214592 C83.6427014,2.80844184 83.535212,3.15861531 83.535212,3.51448265 C83.535212,3.91811531 83.6474021,4.24677857 83.8836908,4.45998265 L83.8843176,4.45903367 C84.1184127,4.66970714 84.4875746,4.79054388 85.0055923,4.79054388 L86.9545042,4.79054388 L86.9545042,2.23842143 Z M86.9545042,10.0972378 L86.9545042,6.58664592 L85.3114514,6.58664592 C84.9332014,6.58664592 84.6047789,6.63567653 84.3597155,6.78782959 L84.3597155,6.78972755 C84.1249937,6.93555408 83.9400993,7.19430918 83.8238352,7.62419694 L83.119043,10.2278806 C82.9899303,10.7052173 82.734212,10.704901 82.4728528,10.704901 L82.4728528,10.7064827 L82.4662718,10.7064827 L81.7483176,10.7064827 C81.5794056,10.7064827 81.4506063,10.6473296 81.3540852,10.5597071 C81.2152577,10.4334929 81.1710711,10.272799 81.1710711,10.1374112 L81.1710711,10.056748 L81.1886204,9.93780918 C81.2785606,9.61230918 81.399212,9.16280918 81.5204901,8.70982959 C81.6524232,8.21920714 81.7846697,7.72668673 81.933212,7.19842143 C82.0447754,6.80016633 82.1995852,6.45189082 82.4421415,6.15296224 L82.440888,6.15232959 C82.5236204,6.05047245 82.6154408,5.95557449 82.7182296,5.86858469 C82.4722261,5.68163571 82.2675887,5.45894184 82.1033775,5.20746224 C81.7812225,4.71430918 81.6232789,4.11961531 81.6232789,3.47430918 C81.6232789,2.58669694 81.9466873,1.80157449 82.5280077,1.24167653 C83.0808106,0.70929898 83.8595606,0.388860204 84.8062824,0.388860204 L87.8238211,0.388860204 C88.1929831,0.388860204 88.4518352,0.485339796 88.637043,0.681778571 C88.8225641,0.878533673 88.893388,1.13222755 88.893388,1.45456429 L88.893388,10.0972378 C88.893388,10.3237276 88.8376063,10.4667071 88.6796627,10.5884929 C88.5474162,10.69035 88.430212,10.7064827 88.2628669,10.7064827 L87.5850254,10.7064827 C87.4173669,10.7064827 87.3001627,10.6906663 87.1682296,10.5884929 C87.0105993,10.4670235 86.9545042,10.3237276 86.9545042,10.0972378 L86.9545042,10.0972378 Z M75.5615641,10.0836357 L75.5615641,3.7868398 L75.1911486,4.42265612 L75.1877014,4.42961531 L71.8110289,9.99221735 L71.8104021,9.99190102 C71.6803493,10.2145949 71.5778739,10.3708602 71.4346592,10.4904316 C71.2528986,10.641952 71.059543,10.7064827 70.7812613,10.7064827 L70.4754021,10.7064827 C70.1165817,10.7064827 69.8668176,10.5998806 69.691638,10.3993296 C69.5230394,10.2063704 69.4594232,9.96121735 69.4594232,9.66545204 L69.4594232,1.01170714 C69.4594232,0.78585 69.5346345,0.632747959 69.6775359,0.518870408 L69.6775359,0.516972449 C69.8044549,0.416064286 69.936388,0.388860204 70.0899444,0.388860204 L70.7411486,0.388860204 C70.9235359,0.388860204 71.0548423,0.419543878 71.182388,0.532788776 L71.182388,0.534686735 C71.3221556,0.659319388 71.3713563,0.801982653 71.3713563,1.01170714 L71.3713563,7.27971735 L71.6374162,6.83021735 L71.6392965,6.82673776 L75.1225183,1.0898398 L75.1228317,1.09015612 C75.251631,0.869360204 75.343138,0.720370408 75.4907401,0.598268367 C75.6709338,0.448645918 75.8620958,0.388860204 76.1522859,0.388860204 L76.471307,0.388860204 C76.8307542,0.388860204 77.0767577,0.491982653 77.250057,0.694431633 C77.4155218,0.888023469 77.4738106,1.13001327 77.4738106,1.42989082 L77.4738106,10.0836357 C77.4738106,10.2930439 77.4246099,10.4360235 77.2848423,10.5606561 C77.1557296,10.675799 77.0244232,10.7064827 76.8436028,10.7064827 L76.1920852,10.7064827 C76.0100113,10.7064827 75.8787049,10.6761153 75.7508458,10.5625541 L75.7508458,10.5606561 C75.6110782,10.4360235 75.5615641,10.2930439 75.5615641,10.0836357 L75.5615641,10.0836357 Z M59.2476134,6.19724796 L59.2476134,10.0836357 C59.2476134,10.2930439 59.1984127,10.4360235 59.0583317,10.5606561 C58.9295324,10.675799 58.7982261,10.7064827 58.6170923,10.7064827 L57.9392507,10.7064827 C57.7872613,10.7064827 57.6559549,10.6789622 57.527469,10.5764724 C57.3845676,10.4625949 57.309043,10.3091765 57.309043,10.0836357 L57.309043,1.0385949 C57.309043,0.812737755 57.3845676,0.659635714 57.527469,0.545758163 C57.6556415,0.442952041 57.7872613,0.415747959 57.9392507,0.415747959 L58.6170923,0.415747959 C58.7975993,0.415747959 58.9285923,0.446115306 59.0573915,0.56062551 L59.0583317,0.559676531 C59.1980993,0.683676531 59.2476134,0.827288776 59.2476134,1.0385949 L59.2476134,4.38817653 L63.3315852,4.38817653 L63.3315852,1.0385949 C63.3315852,0.828870408 63.3810993,0.685890816 63.5208669,0.56157449 C63.6499796,0.446431633 63.7812859,0.415747959 63.9621063,0.415747959 L64.6133106,0.415747959 C64.7938176,0.415747959 64.9248106,0.446115306 65.0536099,0.56062551 L65.05455,0.559676531 C65.1940042,0.683676531 65.2438317,0.827288776 65.2438317,1.0385949 L65.2438317,10.0836357 C65.2438317,10.2930439 65.1943176,10.4360235 65.05455,10.5606561 C64.9254373,10.675799 64.7944444,10.7064827 64.6133106,10.7064827 L63.9621063,10.7064827 C63.7812859,10.7064827 63.6499796,10.675799 63.5208669,10.5606561 C63.3807859,10.4360235 63.3315852,10.2930439 63.3315852,10.0836357 L63.3315852,6.19724796 L59.2476134,6.19724796 Z M50.7694232,8.21667653 C51.2426275,7.5701051 51.4203141,6.60214592 51.4203141,5.57440102 C51.4203141,4.62478878 51.2899479,3.71977857 50.9110711,3.07130918 C50.5641592,2.47693163 49.9803317,2.09069694 49.0461451,2.09069694 C48.2495324,2.09069694 47.6710324,2.41461531 47.283381,2.93528878 C46.8089232,3.57268673 46.5917507,4.50932959 46.5917507,5.53422755 C46.5917507,6.57715612 46.7424866,7.48343163 47.134212,8.10944184 C47.4939725,8.68420714 48.0884549,9.03153367 49.0060324,9.03153367 C49.8383704,9.03153367 50.4033951,8.71647245 50.7694232,8.21667653 L50.7694232,8.21667653 Z M52.2485782,1.68042143 C52.9847085,2.59049286 53.3591979,3.90198265 53.3591979,5.53422755 C53.3591979,7.21297245 52.9878423,8.53237041 52.2548458,9.44275816 C51.5111944,10.366748 50.4203176,10.8542071 48.9928704,10.8542071 C47.5713775,10.8542071 46.5008704,10.3585235 45.7722613,9.44876837 C45.0402049,8.53458469 44.680131,7.21487041 44.680131,5.57440102 C44.680131,3.94342143 45.0994338,2.6505949 45.823969,1.74716633 C46.5995852,0.780156122 47.7092648,0.268023469 49.0195077,0.268023469 C50.427212,0.268023469 51.5086873,0.765288776 52.2485782,1.68042143 L52.2485782,1.68042143 Z M35.9324338,7.01178878 L35.9537437,7.06682959 L35.9844549,6.98996224 C36.1345641,6.61543163 36.2805993,6.25197245 36.3548704,6.07704388 C36.5773704,5.55447245 36.9374444,4.67919694 37.2934444,3.80487041 C37.7293563,2.73378878 38.1752965,1.62506429 38.3573704,1.15974796 C38.4726944,0.86429898 38.5961662,0.681462245 38.770719,0.557778571 C38.9612542,0.422707143 39.1539831,0.388860204 39.4084479,0.388860204 L39.7139937,0.388860204 C40.0919303,0.388860204 40.3432613,0.504319388 40.5143669,0.711513265 C40.6782648,0.90985 40.7299725,1.15025816 40.7299725,1.42989082 L40.7299725,10.0836357 C40.7299725,10.3094929 40.6547613,10.4625949 40.5118599,10.5764724 C40.3833739,10.6792786 40.2517542,10.7064827 40.0997648,10.7064827 L39.4748845,10.7064827 C39.2937507,10.7064827 39.162131,10.6751663 39.0336451,10.5606561 C38.8938775,10.4357071 38.8443634,10.2927276 38.8443634,10.0836357 L38.8443634,4.77852347 C38.650381,5.25617653 38.3608176,5.9581051 38.0665535,6.66857449 C37.6945711,7.56599286 37.3282296,8.44411531 37.1436486,8.87621735 C37.0411732,9.11694184 36.9534268,9.28048265 36.7986169,9.41175816 C36.6234373,9.56043163 36.4288282,9.61737041 36.1376979,9.61737041 L35.7788775,9.61737041 C35.4937014,9.61737041 35.2956451,9.56264592 35.1163915,9.41808469 C34.9565676,9.28839082 34.8600465,9.11915612 34.7578845,8.8708398 C34.5795711,8.43778878 34.2727718,7.71213571 33.9509303,6.95042143 C33.6312824,6.19345204 33.2962789,5.40105408 33.0587366,4.82818673 L33.0587366,10.0836357 C33.0587366,10.2930439 33.0095359,10.4360235 32.8697683,10.5606561 C32.7403423,10.675799 32.6093493,10.7064827 32.4285289,10.7064827 L31.8168106,10.7064827 C31.6356768,10.7064827 31.5043704,10.6751663 31.3755711,10.5606561 C31.2358035,10.4357071 31.1866028,10.2927276 31.1866028,10.0836357 L31.1866028,1.42989082 C31.1866028,1.15373776 31.232043,0.916176531 31.3903,0.716890816 C31.5573317,0.506217347 31.8058423,0.388860204 32.1891063,0.388860204 L32.4949655,0.388860204 C32.7663528,0.388860204 32.9578282,0.423972449 33.1471099,0.563156122 C33.319469,0.689686735 33.4300923,0.868411224 33.5441627,1.15785 C33.6071521,1.31696224 34.2943951,3.01911531 34.8575394,4.39640102 C35.163712,5.14514592 35.4316521,5.79235 35.5316204,6.01472755 C35.6118458,6.19250306 35.7716697,6.60088061 35.9324338,7.01178878 L35.9324338,7.01178878 Z M22.065043,2.23842143 L22.065043,5.03221735 L24.0537542,5.03221735 C24.5551627,5.03221735 24.9434408,4.90758469 25.1941451,4.6703398 C25.4335676,4.44448265 25.5639338,4.09589082 25.5639338,3.63531939 C25.5639338,3.28166633 25.4602049,2.87581939 25.1662542,2.59998265 C24.9368599,2.38488061 24.5780394,2.23842143 24.0405923,2.23842143 L22.065043,2.23842143 Z M20.1662718,10.0972378 L20.1662718,1.45456429 C20.1662718,1.13570714 20.2305148,0.884543878 20.4107085,0.686839796 C20.592469,0.487237755 20.8491275,0.388860204 21.22205,0.388860204 L24.2931768,0.388860204 C25.2355113,0.388860204 26.037138,0.717523469 26.6087437,1.28185 C27.1834831,1.84965612 27.5159796,2.64743163 27.5159796,3.58154388 C27.5159796,4.75385 26.8873387,6.8416051 24.1734655,6.8416051 L22.065043,6.8416051 L22.065043,10.0972378 C22.065043,10.3237276 22.0092613,10.4667071 21.8513176,10.5884929 C21.7190711,10.6906663 21.6018669,10.7064827 21.4345218,10.7064827 L20.7833176,10.7064827 C20.6328951,10.7064827 20.5144373,10.6900337 20.383131,10.5881765 C20.2355289,10.4739827 20.1662718,10.3265745 20.1662718,10.0972378 L20.1662718,10.0972378 Z M13.5514408,6.64263571 L12.7448,4.15599286 L12.7448,4.15441122 L12.4806204,3.32690102 L12.2317965,4.10063571 L12.2317965,4.10411531 L11.400712,6.64263571 L13.5514408,6.64263571 Z M16.1709866,10.7064827 L15.4263951,10.7064827 C15.2881944,10.7064827 15.1888528,10.7042684 15.0506521,10.629299 C14.9039901,10.549901 14.8106028,10.4338092 14.740719,10.2291459 L14.1393423,8.46530918 L10.8162577,8.46530918 C10.7429268,8.6800949 10.6426451,8.98187041 10.5458106,9.2751051 C10.3997754,9.71511531 10.2603211,10.1367786 10.2139408,10.2519214 C10.1594127,10.3869929 10.081381,10.4945439 9.97232465,10.5758398 C9.8538669,10.6631459 9.72005352,10.7064827 9.56336338,10.7064827 L8.80529648,10.7064827 C8.72632465,10.7064827 8.65268028,10.6931969 8.58467676,10.6688398 C8.35120845,10.5856459 8.20141268,10.3673806 8.20141268,10.118748 C8.20141268,10.0447276 8.21520141,9.96849286 8.24121197,9.89447245 L11.3123387,1.15816633 C11.4063528,0.889921429 11.4972331,0.715309184 11.6576838,0.583084694 C11.835057,0.435992857 12.0293528,0.388860204 12.315469,0.388860204 L12.6611275,0.388860204 C12.9782683,0.388860204 13.1825923,0.445166327 13.358712,0.593523469 C13.5248035,0.733656122 13.6025218,0.905421429 13.6908951,1.15974796 L16.7219092,9.89605408 C16.747293,9.96944184 16.7620218,10.0472582 16.7620218,10.1219112 C16.7620218,10.2247173 16.7369514,10.3300541 16.6789761,10.4274827 C16.6147331,10.536299 16.5172718,10.6226561 16.3822049,10.6701051 C16.3160817,10.6935133 16.2458845,10.7064827 16.1709866,10.7064827 L16.1709866,10.7064827 Z M1.91187042,2.91725816 L1.91187042,10.041248 C1.91187042,10.2626765 1.85859577,10.4173602 1.71788803,10.5470541 C1.58595493,10.6685235 1.4402331,10.7064827 1.24186338,10.7064827 L0.683419718,10.7064827 C0.227764789,10.7064827 -6.26760563e-05,10.5802684 -6.26760563e-05,10.041248 L-6.26760563e-05,3.06719694 C-6.26760563e-05,2.29251327 0.186085211,1.58837041 0.675271831,1.0850949 C1.09645493,0.651411224 1.72008169,0.388860204 2.61102183,0.388860204 L6.18763099,0.388860204 C6.44993028,0.388860204 6.61194789,0.472054082 6.72946549,0.638441837 C6.83162746,0.783635714 6.84447606,0.914911224 6.84447606,1.07876837 L6.84447606,1.54851327 C6.84447606,1.73451327 6.83068732,1.86452347 6.71410986,2.01003367 L6.71222958,2.01003367 C6.58719085,2.16566633 6.43457465,2.22513571 6.18763099,2.22513571 L2.62449718,2.22513571 C2.34308169,2.22513571 2.1569338,2.27543163 2.05602535,2.37697245 C1.95731056,2.47661531 1.91187042,2.65723776 1.91187042,2.91725816 L1.91187042,2.91725816 Z" id="Fill-3" fill="#1B3F6D" mask="url(#mask-3)"></path>
                    </g>
                    <g id="Group-8" transform="translate(28.204225, 0.028786)">
                        <mask id="mask-5" fill="white">
                            <use xlink:href="#path-4"></use>
                        </mask>
                        <g id="Clip-7"></g>
                        <path d="M31.6936835,10.8773306 L31.6936835,25.6494633 L31.6921165,25.6494633 C31.6921165,26.233402 31.5479616,26.7778 31.2778278,27.2497592 L31.2778278,27.2513408 C31.0769511,27.6021469 30.8077574,27.9121469 30.4774546,28.1680551 C30.7306658,28.5783306 30.9324827,29.0278306 31.0788313,29.5061163 L31.0782046,29.5061163 C31.1248982,29.6585857 31.0703701,29.830351 30.9324827,29.9243 C30.2007398,30.4259939 29.3944123,30.7650959 28.5689687,30.9090245 C27.7673419,31.0488408 26.9462856,31.0048714 26.1553137,30.7480143 L26.1236623,30.7375755 L21.6119264,33.3668816 C21.6279088,33.8429531 21.5887363,34.3269327 21.4956623,34.8093306 C21.4658912,34.9668612 21.3370919,35.0927592 21.1713137,35.1107898 C20.376268,35.1974633 19.5871764,35.1547592 18.8428982,34.9804633 L17.4364475,35.8000653 C16.9356658,36.0917184 16.3966518,36.2378612 15.8560708,36.2378612 L15.8560708,36.2394429 C15.3164299,36.2394429 14.7767891,36.0926673 14.2747539,35.8000653 L14.2750673,35.7994327 L1.60196866,28.4138408 C0.600091901,27.8302184 0.0187714789,26.8173408 0.0187714789,25.6494633 L0.0187714789,10.8773306 C0.0187714789,10.2940245 0.163553169,9.74962653 0.434627113,9.27545306 L0.435253873,9.27576939 C0.705701056,8.80317755 1.10087359,8.40492245 1.60196866,8.11263673 L14.2747539,0.727361224 L14.2744405,0.726728571 C14.7767891,0.433810204 15.3164299,0.28735102 15.8560708,0.28735102 C16.3957116,0.28735102 16.9353525,0.433810204 17.4380144,0.726728571 L17.4373877,0.727677551 L30.1104863,8.11263673 L30.1120532,8.11263673 C30.6115813,8.40397347 31.0061271,8.80222857 31.2772011,9.27608571 L31.2778278,9.27545306 C31.5489018,9.74962653 31.6936835,10.2943408 31.6936835,10.8773306" id="Fill-6" fill="#1B3F6D" mask="url(#mask-5)"></path>
                    </g>
                    <path d="M42.5074342,27.1752959 L42.5397123,27.2009184 C42.8584201,27.4536633 43.1598919,27.7231735 43.3930468,27.9575714 C44.2868074,27.8933571 45.1667792,27.9942653 45.9787475,28.2628265 C46.8483778,28.5497347 47.6402898,29.0286531 48.2886736,29.7017959 C48.9386243,30.3765204 49.3779835,31.1768265 49.6136454,32.0397653 C49.6625327,32.2181735 49.702332,32.3994286 49.7339835,32.5825816 L53.4882792,30.3942347 C53.059575,30.1525612 52.6763109,29.8482551 52.3431877,29.4936531 C51.8361384,28.954 51.4453532,28.2979388 51.1877546,27.5684898 C50.447237,27.4675816 49.6885433,27.3824898 48.9135539,27.3144796 C48.0373426,27.2376122 47.1626982,27.1838367 46.2940081,27.1547347 C45.0078954,27.111398 43.7437194,27.1193061 42.5074342,27.1752959" id="Fill-9" fill="#65CDF7"></path>
                    <path d="M32.1349856,28.9390378 L42.8485173,35.1820582 L42.8497708,35.1820582 C43.2349151,35.40665 43.6479504,35.5192622 44.0603588,35.5192622 L44.0603588,35.5205276 C44.4721405,35.5205276 44.8858025,35.4079153 45.2728271,35.1823745 L46.095137,34.7031398 C45.389718,34.4102214 44.7466616,33.9828643 44.203887,33.4198031 C43.5539363,32.7450786 43.1145771,31.9447724 42.8789151,31.0818337 C42.6445067,30.2236398 42.6119151,29.3053439 42.7729926,28.3905276 C42.5771299,28.2016806 42.3370806,27.9913235 42.0819891,27.7888745 C41.8265842,27.5864255 41.5598975,27.3947316 41.3126405,27.2447929 C40.3392813,27.3140684 39.3853518,27.4130786 38.4536722,27.5405582 C36.2020349,27.8486602 34.0804504,28.3225173 32.1349856,28.9390378" id="Fill-11" fill="#65CDF7"></path>
                    <path d="M38.6295099,25.5267918 C38.5969183,25.442649 38.5690275,25.3559755 38.5455239,25.2667714 C38.4718796,24.9861898 38.4424218,24.6825163 38.4546437,24.3570163 L38.3628232,24.3573327 C37.4687493,24.3573327 36.6138479,24.2412408 35.7978056,24.0226592 C35.0312775,23.8173633 34.2998479,23.520649 33.6025768,23.1448531 C32.7962493,23.6522408 31.8460803,23.9426286 30.9379042,24.0150673 C30.2337387,24.0710571 29.5486894,23.9960878 28.964862,23.7895265 L28.964862,25.6783122 C28.964862,26.0968122 29.0588761,26.4858939 29.2356225,26.8259449 C31.0964746,26.3444959 33.0895732,25.9842 35.1817,25.7621388 C36.3036014,25.6428837 37.4543338,25.5634857 38.6295099,25.5267918" id="Fill-13" fill="#65CDF7"></path>
                    <path d="M41.1763514,25.5135061 C41.1139887,25.4018429 41.0566401,25.285751 41.0049324,25.1652306 C40.8629711,24.835302 40.7617493,24.4756388 40.6981331,24.0884551 C40.2346437,24.1972714 39.758619,24.2741388 39.273193,24.3171592 C39.2568972,24.5904653 39.2760134,24.8378327 39.3339887,25.0573633 C39.3772352,25.2218531 39.4430451,25.3721082 39.5323585,25.5068633 C40.0760732,25.5002204 40.623862,25.5021184 41.1763514,25.5135061" id="Fill-15" fill="#65CDF7"></path>
                    <path d="M47.8893958,25.2000898 C47.6017127,25.3762837 47.3127761,25.5822122 47.0291669,25.8216714 C46.9755789,25.8669061 46.9219908,25.9134061 46.8687162,25.9611714 C48.4296634,26.1769061 49.9407831,26.4650796 51.3895401,26.8174673 C52.0846176,26.3654367 52.8426845,26.0582837 53.6176739,25.9232122 C54.4196141,25.7833959 55.2409838,25.8273653 56.0313289,26.0842224 C56.824181,26.3420286 57.5032761,26.7874163 58.0482444,27.3672429 C58.1165613,27.439998 58.1826845,27.514651 58.2466141,27.5915184 C58.4923042,27.3979265 58.6925542,27.1660592 58.8414099,26.9057224 L58.8420366,26.9060388 C59.0476141,26.5463755 59.1572972,26.1288245 59.1572972,25.6780592 L59.1560437,25.6780592 L59.1560437,10.9062429 C59.1560437,10.4545286 59.0466739,10.0369776 58.8414099,9.67889592 L58.8414099,9.67731429 C58.6364592,9.3186 58.333107,9.01429388 57.9451423,8.78812041 L57.945769,8.78748776 L45.272357,1.40221224 L45.2711035,1.40221224 C44.8856458,1.17762041 44.4726106,1.06500816 44.0602021,1.06500816 C43.6477937,1.06500816 43.2347585,1.17762041 42.8496141,1.40221224 L42.8480472,1.40221224 L30.1743218,8.78812041 C29.7879239,9.0133449 29.4848852,9.31765102 29.2793077,9.67699796 L29.2793077,9.67857959 C29.074357,10.0369776 28.9649873,10.4542122 28.9649873,10.9062429 L28.9649873,18.3955898 C29.4595014,19.4261816 30.244519,20.3504878 31.1993887,21.0574776 C31.20785,21.0628551 31.2159979,21.068549 31.2244592,21.0748755 C31.8089134,21.5038143 32.4547901,21.8508245 33.1351387,22.0902837 C33.1291845,21.9447735 33.1260507,21.8084367 33.1260507,21.6815898 C33.1260507,19.2553653 33.9552549,17.0233653 35.3425894,15.2585796 C36.6531458,13.5921714 38.4632303,12.342998 40.5450155,11.7410286 C40.4854732,11.6015286 40.4340789,11.4569673 40.3917725,11.3082939 C40.2986986,10.9824776 40.2485577,10.6421102 40.2485577,10.2947837 C40.2485577,9.28538571 40.6543852,8.37088571 41.3096634,7.70944694 C41.9652549,7.04769184 42.8712373,6.63804898 43.8712338,6.63804898 C44.4632092,6.63804898 45.0244732,6.78355918 45.521181,7.04073265 C45.8706,7.2213551 46.1861739,7.45733469 46.4578746,7.73696735 C46.5703782,7.58702857 46.6763007,7.42981429 46.7740754,7.26374286 C46.9426739,6.97715102 47.0849486,6.66462041 47.1927514,6.31855918 C47.2598148,6.10155918 47.4885824,5.98040612 47.7032479,6.0481 C47.9185401,6.11547755 48.0385648,6.34639592 47.9715014,6.56339592 C47.8436423,6.97430408 47.6747303,7.3440898 47.4763606,7.68255918 C47.4390683,7.74519184 47.4011493,7.80719184 47.3619768,7.86824286 C47.4497232,7.8723551 47.536843,7.87963061 47.6236493,7.88943673 C48.0119275,7.93467143 48.3879838,8.03747755 48.7521317,8.19532449 C48.9592761,8.28389592 49.0557972,8.52588571 48.9674239,8.73466122 C48.8793641,8.94375306 48.6402549,9.04118163 48.4327972,8.95229388 C48.1413535,8.82576327 47.8408218,8.74383469 47.5308887,8.70777347 C47.4039697,8.69290612 47.2754838,8.68594694 47.1448042,8.68657959 C47.5719415,9.40305918 47.9238676,10.1736306 48.1789592,10.9840592 C48.4766704,11.9324061 48.6433887,12.9380082 48.6433887,13.9803041 C48.6433887,16.8455898 47.4926563,19.4401 45.632431,21.3181306 C44.4867127,22.4746204 43.0714873,23.3593857 41.4901704,23.8683551 C41.5415648,24.2270694 41.6280577,24.5522531 41.751843,24.8401102 C41.8649732,25.1036102 42.0110085,25.3392735 42.1924556,25.5448857 C43.4619592,25.5970796 44.7088993,25.6967224 45.9273218,25.840651 L45.9270085,25.840651 C46.1300789,25.6258653 46.3400437,25.4287939 46.553769,25.2481714 C46.8596282,24.990049 47.176769,24.7648245 47.4967303,24.568702 C47.5710014,23.747202 47.8091704,22.9541714 48.2034028,22.2411714 C48.6161246,21.4943245 49.2008923,20.8347837 49.9486176,20.321702 C50.6960296,19.8095694 51.5289944,19.4957735 52.3882831,19.3679776 C53.2779697,19.2357531 54.1980542,19.3021816 55.0821,19.5530286 L55.0821,19.5530286 C55.2456845,19.5992122 55.3613218,19.7551612 55.351607,19.9335694 C55.3008394,20.8309878 55.0570296,21.6996204 54.6289521,22.4739878 C54.2156035,23.221151 53.6311493,23.8806918 52.8834239,24.3934571 C52.1363254,24.9055898 51.3036739,25.2193857 50.4440718,25.3471816 C49.6007655,25.4724469 48.7305085,25.4193041 47.8893958,25.2000898" id="Fill-17" fill="#65CDF7"></path>
                    <path d="M59.156075,21.4233408 C57.7314482,21.9218714 56.2291032,22.2530653 54.6725433,22.393198 C55.0739835,21.6393918 55.3024377,20.7998612 55.3516384,19.9334429 C55.3613532,19.755351 55.2454025,19.599402 55.0821313,19.5532184 L55.0821313,19.552902 C54.1980856,19.3020551 53.2780011,19.2356265 52.3883144,19.367851 C51.5290257,19.4959633 50.6960609,19.8097592 49.9486489,20.3218918 C49.314994,20.7565245 48.7985433,21.2958612 48.4043109,21.9051061 C47.5340539,21.6865245 46.6873004,21.4072082 45.8693778,21.0709531 C47.5901489,19.215698 48.6434201,16.7220959 48.6434201,13.9801776 C48.6434201,12.938198 48.4767018,11.9322796 48.1789905,10.984249 C47.9238989,10.1735041 47.5719729,9.40324898 47.1448356,8.68676939 C47.2755151,8.68582041 47.4040011,8.69277959 47.5309201,8.70764694 C47.8408532,8.74402449 48.1413849,8.82595306 48.4328285,8.95216735 C48.6399729,9.0410551 48.8793954,8.94362653 48.9674553,8.73485102 C49.0558285,8.52575918 48.9593074,8.28408571 48.752163,8.19519796 C48.3880151,8.03766735 48.0116454,7.9345449 47.6236806,7.88962653 C47.5368743,7.87950408 47.4497546,7.87222857 47.3620081,7.86811633 C47.4011806,7.80706531 47.4390996,7.74538163 47.4760785,7.68243265 C47.6747616,7.34427959 47.8433602,6.97417755 47.9715327,6.56326939 C48.0382827,6.34626939 47.9185715,6.11535102 47.7032792,6.04797347 C47.4886137,5.98059592 47.2598461,6.10143265 47.1927827,6.31874898 C47.0846665,6.6648102 46.9423919,6.97734082 46.7741067,7.26361633 C46.676332,7.43000408 46.5704095,7.58721837 46.4575926,7.73684082 C46.1862053,7.45752449 45.870318,7.2215449 45.5212123,7.04092245 C45.0245046,6.78343265 44.4632405,6.63823878 43.8712651,6.63823878 C42.8712687,6.63823878 41.9652863,7.04756531 41.3096947,7.70932041 C40.6541032,8.37075918 40.2485891,9.28525918 40.2485891,10.2949735 C40.2485891,10.6419837 40.2987299,10.982351 40.3918039,11.3084837 C40.4341102,11.4571571 40.4855046,11.6017184 40.5450468,11.7412184 C39.2435785,12.1173306 38.0483461,12.7465041 37.014818,13.5724327 C35.6707299,11.4207796 34.7409306,8.97873878 34.3404306,6.35987143 L42.8480785,1.40208571 L42.8496454,1.40208571 C43.2347898,1.17749388 43.647825,1.06519796 44.0602335,1.06519796 C44.4726419,1.06519796 44.8856771,1.17749388 45.2708215,1.40240204 L45.2723884,1.40240204 L57.9458004,8.78736122 L57.9451736,8.78799388 C58.3331384,9.01416735 58.6364905,9.31847347 58.8414412,9.67718776 L58.8414412,9.67876939 C59.0463919,10.0371673 59.156075,10.454402 59.156075,10.9061163 L59.156075,21.4233408 Z" id="Fill-19" fill="#9CDCF9"></path>
                    <path d="M44.4484803,8.71606122 C44.0746176,8.71606122 43.7712655,9.02226531 43.7712655,9.39995918 C43.7712655,9.77733673 44.0746176,10.0835408 44.4484803,10.0835408 C44.8229697,10.0835408 45.1260085,9.77733673 45.1260085,9.39995918 C45.1260085,9.02226531 44.8229697,8.71606122 44.4484803,8.71606122 L44.4484803,8.71606122 Z M41.7816141,12.3639388 C41.5785437,11.9751735 41.2899204,11.4905612 41.1736563,11.0828163 C41.1034592,10.8370306 41.0658535,10.5725816 41.0658535,10.2948469 C41.0658535,9.51288776 41.3795472,8.80463265 41.8872232,8.2925 C42.3948993,7.77973469 43.0965577,7.46277551 43.8712338,7.46277551 C44.3347232,7.46277551 44.7696951,7.57443878 45.1513923,7.77214286 C45.5490718,7.97807143 45.8919099,8.27794898 46.1520155,8.64267347 L46.153269,8.64393878 C46.678181,9.42906122 47.1071986,10.2992755 47.3998958,11.2324388 C47.6734768,12.1023367 47.8267197,13.0250612 47.8267197,13.9803673 C47.8267197,16.617898 46.767181,19.0061633 45.0548711,20.7348878 C43.3422479,22.4636122 40.9765401,23.5327959 38.3629486,23.5327959 C37.555681,23.5327959 36.7882127,23.4315714 36.0589768,23.2411429 C37.7728535,23.0516633 39.3106106,22.2700204 40.4669838,21.1030918 C41.8032373,19.7542755 42.6296211,17.8904796 42.6296211,15.8324592 C42.6296211,15.1014286 42.524012,14.3925408 42.3281493,13.7209796 C42.1896352,13.2477551 42.0059944,12.7935102 41.7816141,12.3639388 L41.7816141,12.3639388 Z M33.953688,22.1558265 C33.9561951,22.2121327 33.9593289,22.2681224 33.9634028,22.3241122 C34.3842725,22.413949 34.8136035,22.461398 35.2457549,22.461398 C37.0589732,22.461398 38.7007725,21.7192959 39.8891106,20.5197857 C41.077762,19.3202755 41.8126387,17.6630408 41.8126387,15.8324592 C41.8126387,15.1773469 41.7195648,14.5462755 41.5462655,13.9531633 C41.3952162,13.4359694 41.1833711,12.9453469 40.9195049,12.4901531 C38.9414486,13.0256939 37.2197373,14.1957857 35.9812585,15.7707755 C34.7054873,17.3935306 33.9433465,19.4474388 33.9433465,21.6816531 C33.9433465,21.855949 33.9467937,22.0141122 33.953688,22.1558265 L33.953688,22.1558265 Z M28.9637338,19.9652653 C29.4513535,20.6273367 30.0474028,21.2226633 30.7180366,21.7192959 C30.7268113,21.7272041 30.7358993,21.7344796 30.7456141,21.7414388 C31.3106387,22.1561429 31.9283113,22.5022041 32.5792021,22.7606429 C32.0345472,23.0035816 31.4453923,23.1481429 30.8741,23.1933776 C30.1577127,23.2506327 29.4786176,23.1535204 28.9637338,22.9017245 L28.9637338,19.9652653 Z" id="Fill-21" fill="#FFC735"></path>
                    <path d="M43.8253863,26.3877061 C43.1550658,26.3370939 42.4784778,26.3000837 41.7959356,26.2769918 C39.5399109,26.2013898 37.348756,26.283002 35.2569426,26.5053796 C33.3199391,26.7109918 31.4691151,27.0374408 29.7317349,27.4704918 C29.8642947,27.5919612 30.0125236,27.7010939 30.1754813,27.7963082 C30.1820623,27.7997878 30.1883299,27.8042163 30.1942842,27.8080122 L31.2719989,28.4359204 C33.4264884,27.7048898 35.8088053,27.1487878 38.3550201,26.8005122 C40.1074426,26.5607367 41.9375835,26.4196551 43.8253863,26.3877061" id="Fill-23" fill="#9CCC4C"></path>
                    <path d="M43.4734602,28.701002 C43.3650306,29.4484816 43.4029496,30.1905837 43.5922313,30.8830224 C43.7953018,31.6273388 44.1741785,32.3175633 44.7345025,32.8989714 C45.2957665,33.4816449 45.9845764,33.8976143 46.7423299,34.1481449 C47.4552701,34.3834918 48.2296327,34.4736449 49.0193511,34.4208184 C49.1274673,33.6730224 49.0895482,32.9312367 48.9005799,32.2384816 C48.6971961,31.4944816 48.3183194,30.8039408 47.7579954,30.2225327 C47.1967313,29.6398592 46.5079215,29.2242061 45.7498546,28.9736755 C45.0375412,28.7383286 44.2628651,28.6481755 43.4734602,28.701002 M51.9043299,27.3721143 C52.1271433,27.9816755 52.456506,28.5289204 52.879256,28.9787367 C53.3414919,29.4706245 53.9162313,29.8476857 54.5856116,30.0656347 C55.2578123,30.2839 55.9597842,30.3205939 56.648594,30.2007061 C57.2844426,30.0899918 57.9083827,29.8461041 58.4868827,29.4889714 C58.2643827,28.8790939 57.9350201,28.3321653 57.5119567,27.8820327 C57.0497208,27.3901449 56.4749813,27.0130837 55.8052877,26.795451 C55.1334004,26.5768694 54.4311151,26.5401755 53.7423053,26.6600633 C53.1067701,26.7710939 52.4828299,27.0149816 51.9043299,27.3721143 M48.2456151,24.5182163 C48.9378722,24.6770122 49.6479919,24.7092776 50.3368018,24.6071041 C51.0911081,24.4948082 51.8190905,24.2211857 52.4690412,23.7761143 C53.117425,23.3313592 53.6241609,22.7594408 53.982668,22.1112878 C54.3073299,21.5241857 54.510087,20.8731857 54.5865518,20.1971959 C53.8946081,20.0380837 53.1844884,20.0058184 52.4959919,20.1079918 C51.7413722,20.2202878 51.012763,20.4939102 50.3634391,20.939298 C49.7150553,21.3840531 49.208006,21.9556551 48.8498123,22.6041245 C48.5254637,23.1912265 48.3220799,23.8422265 48.2456151,24.5182163" id="Fill-25" fill="#9CCC4C"></path>
                    <path d="M51.9048627,27.3740755 C54.2527077,27.2405857 56.9383768,28.1984224 58.4651655,29.5023204 L58.4867887,29.4890347 C58.2642887,28.8791571 57.9349261,28.3322286 57.5121761,27.8820959 C57.0496268,27.3902082 56.4748873,27.0128306 55.8051937,26.795198 C55.1333063,26.5769327 54.4313345,26.5402388 53.7422113,26.6601265 C53.1066761,26.7711571 52.4827359,27.0150449 51.9042359,27.3721776 L51.9048627,27.3740755 Z M43.4733662,28.7013816 C45.8697852,29.7047694 48.320419,32.3780449 48.997007,34.4221469 L49.019257,34.4205653 C49.1273732,33.6730857 49.0897676,32.9309837 48.9004859,32.2385449 C48.6974155,31.4942286 48.3185387,30.8040041 47.7582148,30.2225959 C47.1969507,29.6399224 46.5078275,29.2242694 45.7497606,28.9737388 C45.0374472,28.7380755 44.2627711,28.6479224 43.4733662,28.7010653 L43.4733662,28.7013816 Z M48.2502218,24.4790551 C49.5513768,22.1749327 52.392169,20.5426878 54.585831,20.2073816 L54.5867711,20.1972592 C53.8948275,20.0381469 53.1843944,20.0058816 52.4958979,20.1080551 C51.7415915,20.220351 51.012669,20.4939735 50.3633451,20.9393612 C49.7149613,21.3838 49.2082254,21.9557184 48.8497183,22.6038714 C48.5313239,23.179902 48.3301338,23.8169837 48.2502218,24.4790551 L48.2502218,24.4790551 Z" id="Fill-27" fill="#B3D45F"></path>
                    <path d="M39.7370585,23.4326469 C41.8006676,23.1296061 43.6480444,22.1546878 45.0548085,20.7350143 C46.7671183,19.0062898 47.826657,16.6180245 47.826657,13.9801776 C47.826657,13.0248714 47.6734141,12.1021469 47.4001465,11.232249 C47.1071359,10.299402 46.6781183,9.42918776 46.1532063,8.64406531 L46.1519528,8.64248367 C45.8918472,8.27775918 45.5490092,7.97819796 45.1513296,7.77195306 C44.7696324,7.57424898 44.3346606,7.46290204 43.8711711,7.46290204 C43.0964951,7.46290204 42.3948366,7.77986122 41.8871606,8.2923102 C41.6552592,8.52670816 41.4637838,8.80191224 41.3240162,9.10590204 C41.3675761,9.05718776 41.4127028,9.0100551 41.4593965,8.96418776 C41.9645655,8.46913673 42.6514951,8.16293265 43.3998472,8.16293265 C43.8473542,8.16293265 44.26415,8.2708 44.626731,8.4615449 C45.004981,8.66051429 45.3274493,8.95026939 45.567812,9.30234082 L45.5687521,9.30392245 C46.0529246,10.0621571 46.4412028,10.9026367 46.6966077,11.8035347 C46.9350901,12.643698 47.0560549,13.5347898 47.0278507,14.457198 C46.9501324,17.0048918 45.8567486,19.3115449 44.1519599,20.9808 C42.9407451,22.1670245 41.4208507,23.0312286 39.7370585,23.4326469" id="Fill-29" fill="#FFF226"></path>
                    <path d="M33.953594,22.1557633 C33.9561011,22.2120694 33.9592349,22.2680592 33.9633088,22.324049 C34.5844285,19.4239673 36.8965482,15.1975286 40.9194109,12.4900898 C38.941668,13.0256306 37.2196433,14.1957224 35.9811644,15.7707122 C34.7053933,17.3934673 33.9432525,19.4473755 33.9432525,21.6815898 C33.9432525,21.8558857 33.9466996,22.014049 33.953594,22.1557633" id="Fill-31" fill="#FFF226"></path>
                    <path d="M28.9637025,19.9652653 C29.8768926,21.204949 31.154544,22.1947347 32.5794842,22.7606429 C30.8226743,22.8545918 29.5230863,22.1551939 28.9637025,21.2913061 L28.9637025,19.9652653 Z" id="Fill-33" fill="#FFF226"></path>
                    <path d="M25.4869676,17.4550561 L25.4869676,20.6720969 C25.4869676,20.8973214 25.376031,21.0909133 25.1829887,21.2035255 L22.4227352,22.8120459 C22.2293796,22.9246582 22.0081331,22.9246582 21.8147775,22.8120459 L19.0548373,21.2035255 C18.8611683,21.0909133 18.7505451,20.8973214 18.7505451,20.6720969 L18.7505451,17.4550561 C18.7505451,17.2298316 18.8611683,17.0362398 19.0548373,16.9233112 L21.8147775,15.3151071 C22.0081331,15.2021786 22.2293796,15.2021786 22.4227352,15.3151071 L25.1829887,16.9233112 C25.376031,17.0362398 25.4869676,17.2298316 25.4869676,17.4550561 M61.4517423,2.35710714 L61.4517423,4.06843367 C61.4517423,4.18832143 61.3925134,4.29144388 61.2897246,4.35122959 L59.821538,5.20689286 C59.7184359,5.2669949 59.6006049,5.2669949 59.4978162,5.20689286 L58.0296296,4.35122959 C57.9268408,4.29144388 57.867612,4.18832143 57.867612,4.06843367 L57.867612,2.35710714 C57.867612,2.23690306 57.9268408,2.13409694 58.0296296,2.0739949 L59.4978162,1.21833163 C59.6006049,1.15822959 59.7184359,1.15822959 59.821538,1.21833163 L61.2897246,2.0739949 C61.3925134,2.13409694 61.4517423,2.23690306 61.4517423,2.35710714 M61.6153268,34.7644439 L61.6153268,37.3279541 C61.6153268,37.5073112 61.5272669,37.6616786 61.3730838,37.7515153 L59.173781,39.0332704 C59.0195979,39.1231071 58.8431648,39.1231071 58.6889817,39.0329541 L56.4899923,37.7515153 C56.3354958,37.6616786 56.2474359,37.5073112 56.2474359,37.3279541 L56.2474359,34.7644439 C56.2474359,34.5847704 56.3354958,34.4307194 56.4899923,34.3408827 L58.6889817,33.0591276 C58.8431648,32.9692908 59.0195979,32.9692908 59.173781,33.0591276 L61.3730838,34.3408827 C61.5272669,34.4307194 61.6153268,34.5847704 61.6153268,34.7644439" id="Fill-35" fill="#65CDF7"></path>
                </g>
            </g>
        </g>
    </g>
</svg>