<?xml version="1.0" encoding="UTF-8" standalone="no"?>
<svg width="90px" height="61px" viewBox="0 0 90 61" version="1.1" xmlns="http://www.w3.org/2000/svg" xmlns:xlink="http://www.w3.org/1999/xlink">
    <!-- Generator: sketchtool 47.1 (45422) - http://www.bohemiancoding.com/sketch -->
    <title>019255FC-0DD9-46E0-A086-3B8A6D411426</title>
    <desc>Created with sketchtool.</desc>
    <defs>
        <polygon id="path-1" points="0.135507042 0.0872331606 30.6670563 0.0872331606 30.6670563 26.5915435 0.135507042 26.5915435 0.135507042 0.0872331606"></polygon>
        <polygon id="path-3" points="89.8919366 10.8450098 89.8919366 0.267673057 8.58962989e-21 0.267673057 0 10.8450098 89.8919366 10.8450098"></polygon>
    </defs>
    <g id="Page-1" stroke="none" stroke-width="1" fill="none" fill-rule="evenodd">
        <g id="main-1280" transform="translate(-40.000000, -38.000000)">
            <g id="Group-11" transform="translate(40.000000, 0.000000)">
                <g id="Page-1" transform="translate(0.000000, 38.000000)">
                    <path d="M42.9850458,26.4044979 L43.0176866,26.430099 C43.3399754,26.6826326 43.6448345,26.9516016 43.8806092,27.1861197 C44.784412,27.1219591 45.6742711,27.2227829 46.4953627,27.4911197 C47.3747641,27.7777881 48.1755739,28.2563062 48.831243,28.9288865 C49.4884965,29.6030472 49.9327923,30.4026845 50.1711021,31.2649021 C50.2205387,31.4431611 50.2607852,31.6242648 50.2927923,31.8072648 L54.0892711,29.6210627 C53.65575,29.3792751 53.2681796,29.0752233 52.9313134,28.7209176 C52.4185669,28.1817155 52.0233908,27.5262026 51.7628979,26.7973632 C51.0140599,26.6965394 50.2468415,26.6115187 49.4631444,26.5435653 C48.577088,26.4667622 47.6926162,26.4127155 46.8141655,26.3839539 C45.5136021,26.3406534 44.2352218,26.3485549 42.9850458,26.4044979" id="Fill-1" fill="#FEFEFE"></path>
                    <path d="M32.4960528,28.1666078 L43.3299613,34.4044109 L43.3312289,34.4044109 C43.7207007,34.628815 44.1383768,34.7413332 44.555419,34.7413332 L44.555419,34.7429135 C44.9718275,34.7429135 45.3901373,34.6300793 45.7815106,34.4047269 L46.6130599,33.9262088 C45.8997148,33.6335352 45.2494331,33.2065352 44.7005599,32.6436285 C44.0433063,31.9694679 43.5990106,31.1698306 43.3607007,30.307613 C43.1236585,29.4504523 43.0907007,28.5329238 43.253588,27.618872 C43.0555246,27.4298668 42.8127782,27.2200016 42.5548204,27.0174057 C42.2965458,26.8151259 42.0268627,26.6235922 41.7768275,26.4740948 C40.7925317,26.5429964 39.8278838,26.6422399 38.8857359,26.7692969 C36.6087993,27.0771415 34.4633768,27.5509187 32.4960528,28.1666078" id="Fill-3" fill="#FEFEFE"></path>
                    <path d="M39.0635493,24.7572135 C39.0305915,24.6731409 39.0023873,24.586856 38.9786197,24.4977264 C38.9041479,24.2173793 38.8743592,23.9136435 38.8867183,23.5884155 L38.7938662,23.5890477 C37.8897465,23.5890477 37.0252394,23.4727368 36.2000282,23.2543378 C35.4248873,23.0495295 34.6852394,22.7527472 33.9801338,22.3772653 C33.1647465,22.884229 32.2039014,23.1743741 31.2855211,23.2470684 C30.5734437,23.3026953 29.8806972,23.2277886 29.2903099,23.0217161 L29.2903099,24.9086073 C29.2903099,25.3270736 29.3853803,25.715514 29.5641127,26.0552808 C31.4458732,25.5745503 33.4613662,25.2142394 35.577,24.9923637 C36.711507,24.8732083 37.875169,24.7938767 39.0635493,24.7572135" id="Fill-5" fill="#FEFEFE"></path>
                    <path d="M41.639007,24.7442549 C41.5759437,24.6323689 41.5179507,24.5163741 41.465662,24.3962705 C41.3221056,24.0663016 41.2197465,23.7069389 41.1554155,23.3200788 C40.6867183,23.4288041 40.2053451,23.5059233 39.7144648,23.5489078 C39.6979859,23.8216694 39.7173169,24.0688301 39.7759437,24.2884933 C39.8196761,24.4525295 39.8862254,24.6026591 39.9765423,24.7376176 C40.5263662,24.7306642 41.0803099,24.7325606 41.639007,24.7442549" id="Fill-7" fill="#FEFEFE"></path>
                    <g id="Group-11" transform="translate(29.154930, 0.228829)">
                        <mask id="mask-2" fill="white">
                            <use xlink:href="#path-1"></use>
                        </mask>
                        <g id="Clip-10"></g>
                        <path d="M19.2725493,24.2021135 C18.9816338,24.3781601 18.6894507,24.5836005 18.4026549,24.8231756 C18.3484648,24.8683725 18.2942746,24.9148337 18.2404014,24.9625591 C19.8188873,25.1781135 21.3469859,25.4660461 22.8120211,25.8181394 C23.5149085,25.3664865 24.281493,25.0595902 25.0651901,24.9243155 C25.8761408,24.7849321 26.7067394,24.8285487 27.5059648,25.0855073 C28.3077254,25.3427819 28.9944507,25.7881135 29.5455423,26.3674554 C29.6146268,26.4398337 29.681493,26.5147404 29.7461408,26.5915435 C29.9945915,26.3981135 30.1970915,26.166756 30.3476197,25.9063207 L30.3482535,25.9066368 C30.5561408,25.5472741 30.6670563,25.130072 30.6670563,24.6799995 L30.6657887,24.6799995 L30.6657887,9.91989585 C30.6657887,9.46887513 30.5551901,9.05167306 30.3476197,8.69389067 L30.3476197,8.69231036 C30.1403662,8.33389585 29.8336056,8.02952798 29.4412817,7.80354352 L29.4419155,7.80322746 L16.6261056,0.424123834 L16.624838,0.424123834 C16.2350493,0.199719689 15.8173732,0.0872015544 15.400331,0.0872015544 C14.9832887,0.0872015544 14.5656127,0.199719689 14.1761408,0.424123834 L14.1745563,0.424123834 L1.35842958,7.80354352 C0.967690141,8.02857979 0.661246479,8.33294767 0.453359155,8.6919943 L0.453359155,8.69357461 C0.246105634,9.05135699 0.135507042,9.46855907 0.135507042,9.91989585 L0.135507042,17.4033 C0.635577465,18.4330306 1.42941549,19.3565642 2.39501408,20.0629632 C2.40357042,20.0683363 2.41180986,20.0737093 2.4203662,20.0800306 C3.01138732,20.5086109 3.66452113,20.8556472 4.35251408,21.0949062 C4.34649296,20.9495176 4.34332394,20.8132948 4.34332394,20.6868699 C4.34332394,18.262357 5.18184507,16.0322223 6.58476761,14.2689114 C7.9100493,12.6038959 9.74047183,11.3554503 11.8456479,10.7543 C11.7854366,10.6149166 11.7334648,10.4704762 11.6906831,10.3219269 C11.5965634,9.9963829 11.5458592,9.6563 11.5458592,9.30926373 C11.5458592,8.30039326 11.9562465,7.38697358 12.6188873,6.7257715 C13.2818451,6.06456943 14.198007,5.65558497 15.2092394,5.65558497 C15.8078662,5.65558497 16.3754366,5.80065751 16.8777254,6.05793212 C17.2310704,6.23840363 17.5501901,6.47418601 17.8249437,6.75358497 C17.9387113,6.6037715 18.0458239,6.4466886 18.1446972,6.28075596 C18.3151901,5.99440363 18.4590634,5.6821342 18.5680775,5.33636218 C18.6358944,5.11954352 18.8672324,4.99849171 19.0843099,5.06581295 C19.3020211,5.13345026 19.4233944,5.36385959 19.3555775,5.5809943 C19.2262817,5.99155907 19.0554718,6.36103575 18.8548732,6.69922228 C18.817162,6.76180259 18.7788169,6.82375078 18.7392042,6.88443472 C18.8279366,6.88885959 18.9160352,6.89581295 19.0038169,6.90592694 C19.3964577,6.95112383 19.7767394,7.05384404 20.1449789,7.21124301 C20.3544507,7.30005648 20.4520563,7.54184404 20.3626901,7.75044508 C20.2736408,7.95904611 20.0318451,8.05670933 19.8220563,7.96789585 C19.527338,7.84147098 19.2234296,7.75961088 18.9100141,7.72326373 C18.781669,7.70872487 18.6517394,7.7017715 18.5195915,7.70271969 C18.9515282,8.41860052 19.3074085,9.18789585 19.5653662,9.99796321 C19.8664225,10.9455176 20.0350141,11.9502793 20.0350141,12.9913881 C20.0350141,15.8549114 18.8713521,18.4469373 16.9902254,20.3233984 C15.8316338,21.4789218 14.400507,22.3629477 12.8014225,22.8714917 C12.8533944,23.2299062 12.9408592,23.5545021 13.0660352,23.8421187 C13.1804366,24.1053984 13.3281127,24.3408648 13.5115986,24.5469373 C14.7953662,24.5987715 16.0563169,24.6983311 17.2884296,24.8421394 L17.2881127,24.8421394 C17.4934648,24.6275332 17.7057887,24.4306264 17.9219155,24.2501549 C18.2312113,23.9922482 18.5519155,23.7672119 18.8754718,23.5712534 C18.9505775,22.7504399 19.1914225,21.958072 19.5900845,21.2456679 C20.0074437,20.499129 20.5987817,19.8401394 21.3549085,19.3278026 C22.1107183,18.8160979 22.9530423,18.5025642 23.8219859,18.3748751 C24.721669,18.2427611 25.6520915,18.3088181 26.5460704,18.5594554 L26.5460704,18.5597715 C26.711493,18.6059166 26.8284296,18.7617352 26.8186056,18.9399943 C26.7672676,19.8363466 26.5207183,20.7045694 26.087831,21.4782896 C25.669838,22.2248285 25.0788169,22.8838181 24.3226901,23.3961549 C23.5671972,23.9075435 22.7251901,24.2213933 21.8559296,24.3490824 C21.0031479,24.474243 20.1231127,24.4211446 19.2725493,24.2021135" id="Fill-9" fill="#FEFEFE" mask="url(#mask-2)"></path>
                    </g>
                    <path d="M44.9479014,7.96053161 C44.569838,7.96053161 44.2630775,8.26647979 44.2630775,8.64385803 C44.2630775,9.02092021 44.569838,9.32686839 44.9479014,9.32686839 C45.3265986,9.32686839 45.6330423,9.02092021 45.6330423,8.64385803 C45.6330423,8.26647979 45.3265986,7.96053161 44.9479014,7.96053161 L44.9479014,7.96053161 Z M42.2510704,11.6053606 C42.0457183,11.2172363 41.7538521,10.732713 41.6362817,10.3253088 C41.5652958,10.0797285 41.5272676,9.81550052 41.5272676,9.53799793 C41.5272676,8.75700829 41.8444859,8.04934508 42.3578662,7.53732435 C42.8712465,7.02530363 43.5807887,6.70829326 44.364169,6.70829326 C44.8328662,6.70829326 45.2727254,6.82017927 45.6587113,7.01771813 C46.0608592,7.22315855 46.4075493,7.52278549 46.6705775,7.88752124 L46.6718451,7.88846943 C47.2026549,8.67325181 47.636493,9.54273886 47.9324789,10.4748062 C48.2091338,11.3439772 48.3640986,12.2659306 48.3640986,13.2204383 C48.3640986,15.8560808 47.2926549,18.2423503 45.5611056,19.969314 C43.8292394,21.6965938 41.4369507,22.7652 38.793993,22.7652 C37.9776549,22.7652 37.2015634,22.663744 36.4641338,22.4737907 C38.1972676,22.2841534 39.7523028,21.5034798 40.921669,20.3372104 C42.2729366,18.9898373 43.1086056,17.127599 43.1086056,15.0709824 C43.1086056,14.3408788 43.0018099,13.6322674 42.8037465,12.9612674 C42.6636761,12.4884383 42.4779718,12.0345731 42.2510704,11.6053606 L42.2510704,11.6053606 Z M34.3351901,21.3890653 C34.3377254,21.4456404 34.3408944,21.5015834 34.3450141,21.5572104 C34.7706127,21.646972 35.2047676,21.6943813 35.6417746,21.6943813 C37.4753662,21.6943813 39.1356127,20.9532155 40.3373028,19.7543917 C41.5393099,18.5558839 42.2824437,16.9000342 42.2824437,15.0709824 C42.2824437,14.4167337 42.1883239,13.7861896 42.0130775,13.1935731 C41.860331,12.6764953 41.6461056,12.1862829 41.3792746,11.7314694 C39.378993,12.2665627 37.6379366,13.4356767 36.3855423,15.0096663 C35.0954366,16.6310653 34.3247324,18.6829409 34.3247324,20.9156041 C34.3247324,21.0897544 34.3282183,21.2474694 34.3351901,21.3890653 L34.3351901,21.3890653 Z M29.289169,19.2006508 C29.7822676,19.8618528 30.3850141,20.4566819 31.0631831,20.9528995 C31.0720563,20.960801 31.0812465,20.9680705 31.0910704,20.9753399 C31.6624437,21.3893813 32.2870563,21.7351534 32.9452606,21.9933762 C32.3944859,22.236428 31.7987113,22.3805523 31.221,22.4260653 C30.4965634,22.4829565 29.809838,22.3859254 29.289169,22.1343399 L29.289169,19.2006508 Z" id="Fill-12" fill="#FEFEFE"></path>
                    <path d="M44.3178063,25.6174399 C43.6399542,25.5668699 42.9557641,25.5298907 42.2655528,25.5068181 C39.9841796,25.4312793 37.7684049,25.5131394 35.653088,25.735015 C33.6943204,25.9404554 31.8227007,26.2666316 30.0657993,26.6993207 C30.1998486,26.8206886 30.349743,26.9300461 30.5145317,27.0248648 C30.5211866,27.0286575 30.5275246,27.0327663 30.5335458,27.0365591 L31.6233697,27.6642585 C33.8020669,26.9335228 36.2111514,26.3778855 38.7859754,26.029901 C40.558088,25.7903259 42.4087923,25.6493622 44.3178063,25.6174399" id="Fill-14" fill="#FEFEFE"></path>
                    <path d="M43.9619261,27.928929 C43.8522782,28.6757839 43.8906232,29.4172658 44.0820317,30.1088098 C44.2873838,30.8528202 44.6705176,31.5424679 45.2371373,32.1233902 C45.8047077,32.7055767 46.501257,33.1211984 47.2675246,33.3715197 C47.9884754,33.6066699 48.7715387,33.6967477 49.5701303,33.6436492 C49.6794613,32.8967943 49.6411162,32.1553124 49.4500246,31.4634523 C49.2443556,30.7200741 48.8612218,30.0301104 48.2946021,29.4491881 C47.7270317,28.8670016 47.0304824,28.4513798 46.2638979,28.2010585 C45.543581,27.9659083 44.7602007,27.8761466 43.9619261,27.928929 M52.4875246,26.6011518 C52.7128415,27.2102036 53.0459049,27.7566751 53.4734049,28.2064316 C53.9408345,28.6979083 54.5220317,29.0749705 55.1989331,29.2921052 C55.8786866,29.5105041 56.5885458,29.5471674 57.2850951,29.4273798 C57.928088,29.316758 58.5590387,29.072758 59.1440387,28.7159238 C58.9190387,28.106872 58.5859754,27.5604005 58.1581585,27.110644 C57.6907289,26.6191674 57.1095317,26.2421052 56.4323134,26.0249705 C55.7528768,25.8065715 55.0427007,25.7699083 54.3461514,25.8900119 C53.7034754,26.0003176 53.0725246,26.2443176 52.4875246,26.6011518 M48.7877007,23.7496389 C49.4877359,23.9083021 50.2058345,23.9408565 50.9023838,23.8384523 C51.6651655,23.7262503 52.4013275,23.4528565 53.058581,23.008157 C53.71425,22.5637736 54.2266796,21.9923332 54.5892148,21.3447218 C54.9175246,20.7581104 55.1225599,20.1079705 55.1998838,19.4319135 C54.5001655,19.2732503 53.7820669,19.2410119 53.0858345,19.3431 C52.3227359,19.4553021 51.5859401,19.7286959 50.9293204,20.1737114 C50.2736514,20.6177788 49.7609049,21.1892192 49.3986866,21.8371466 C49.0706937,22.423758 48.8650246,23.074214 48.7877007,23.7496389" id="Fill-16" fill="#FEFEFE"></path>
                    <path d="M25.773338,16.6923813 L25.773338,19.9067337 C25.773338,20.1317699 25.6611549,20.3252 25.4659437,20.4380342 L22.6746761,22.0448943 C22.4791479,22.1574124 22.2554155,22.1574124 22.0598873,22.0448943 L19.2689366,20.4380342 C19.0730915,20.3252 18.9612254,20.1317699 18.9612254,19.9067337 L18.9612254,16.6923813 C18.9612254,16.467029 19.0730915,16.273915 19.2689366,16.1610808 L22.0598873,14.5539047 C22.2554155,14.4413865 22.4791479,14.4413865 22.6746761,14.5539047 L25.4659437,16.1610808 C25.6611549,16.273915 25.773338,16.467029 25.773338,16.6923813 M62.1422113,1.60704974 L62.1422113,3.31694611 C62.1422113,3.43673368 62.0823169,3.53976995 61.9783732,3.5995057 L60.4936901,4.45445389 C60.3894296,4.5145057 60.2702746,4.5145057 60.166331,4.45445389 L58.6816479,3.5995057 C58.5777042,3.53976995 58.5178099,3.43673368 58.5178099,3.31694611 L58.5178099,1.60704974 C58.5178099,1.48726218 58.5777042,1.38390984 58.6816479,1.32417409 L60.166331,0.469225907 C60.2702746,0.409174093 60.3894296,0.409174093 60.4936901,0.469225907 L61.9783732,1.32417409 C62.0823169,1.38390984 62.1422113,1.48726218 62.1422113,1.60704974 M62.3076338,33.9873036 L62.3076338,36.5483554 C62.3076338,36.7281948 62.2185845,36.8821171 62.062669,36.9718788 L59.8386549,38.2525627 C59.6827394,38.3420083 59.5043239,38.3420083 59.3484085,38.2522466 L57.1247113,36.9718788 C56.9684789,36.8821171 56.8794296,36.7281948 56.8794296,36.5483554 L56.8794296,33.9873036 C56.8794296,33.8077803 56.9684789,33.653858 57.1247113,33.5640964 L59.3484085,32.2834124 C59.5043239,32.1936508 59.6827394,32.1936508 59.8386549,32.2834124 L62.062669,33.5640964 C62.2185845,33.653858 62.3076338,33.8077803 62.3076338,33.9873036" id="Fill-18" fill="#FEFEFE"></path>
                    <path d="M71.7088944,60.0416679 C71.7478732,60.0416679 71.780831,60.0555746 71.8071338,60.0837041 L72.0856901,60.3801705 C71.9484718,60.5546368 71.7782958,60.6870668 71.5745282,60.7771446 C71.3710775,60.8675383 71.1280141,60.9127352 70.8469225,60.9127352 C70.5927676,60.9127352 70.3639648,60.8691187 70.160831,60.7828337 C69.9580141,60.6962326 69.7856197,60.5764451 69.643331,60.4222067 C69.5013592,60.2682845 69.3920282,60.0852845 69.3156549,59.8735228 C69.2389648,59.6617611 69.2009366,59.4304036 69.2009366,59.1797663 C69.2009366,59.0116212 69.2196338,58.8513777 69.2563944,58.6996679 C69.292838,58.547642 69.3460775,58.4082585 69.4164296,58.2808855 C69.4864648,58.1528803 69.5717113,58.0378337 69.6705845,57.9351135 C69.7697746,57.8323933 69.8813239,57.7442119 70.0065,57.6718337 C70.1310423,57.5994554 70.2679437,57.5444606 70.4153028,57.5062171 C70.5629789,57.4679736 70.7198451,57.4493259 70.8868521,57.4493259 C71.0117113,57.4493259 71.1302324,57.4603881 71.2417817,57.4818803 C71.3536479,57.5040047 71.4572746,57.5340306 71.5542465,57.5729062 C71.6509014,57.6120979 71.7409014,57.6585591 71.822662,57.714186 C71.9047394,57.7694969 71.9782606,57.8298648 72.0438592,57.8952896 L71.8071338,58.2176731 C71.7931901,58.237901 71.7751268,58.2559166 71.7532606,58.2714036 C71.7313944,58.2868907 71.7019225,58.2947922 71.6642113,58.2947922 C71.6268169,58.2947922 71.5894225,58.2815176 71.5510775,58.2549684 C71.5127324,58.2287352 71.465831,58.1990254 71.4106901,58.1661549 C71.3552324,58.1336005 71.2855141,58.1038907 71.202169,58.0773415 C71.1188239,58.0511083 71.012662,58.0378337 70.8843169,58.0378337 C70.7423451,58.0378337 70.6120986,58.0634347 70.4935775,58.1149528 C70.3747394,58.1661549 70.273331,58.2404295 70.1880845,58.3374606 C70.1031549,58.4348078 70.0369225,58.5549114 69.9900211,58.6965073 C69.9431197,58.8381031 69.919669,58.9992948 69.919669,59.1797663 C69.919669,59.3621342 69.9456549,59.523958 69.9963592,59.6665021 C70.0470634,59.8090461 70.1164648,59.9297819 70.2045634,60.0274451 C70.292662,60.1257404 70.3956549,60.199699 70.5138592,60.2502689 C70.6317465,60.3008389 70.7572394,60.3264399 70.8916056,60.3264399 C70.9711479,60.3264399 71.0437183,60.3229632 71.1083662,60.3147456 C71.173331,60.3071601 71.2332254,60.2938855 71.289,60.2752378 C71.3444577,60.2565902 71.3967465,60.2325694 71.4458662,60.2028596 C71.494669,60.1731497 71.5441056,60.1358544 71.5941761,60.0906575 C71.6109718,60.0764347 71.6290352,60.0650565 71.6480493,60.0555746 C71.6664296,60.0464088 71.6870282,60.0416679 71.7088944,60.0416679 L71.7088944,60.0416679 Z M68.7468169,60.8754399 L68.1054085,60.8754399 C68.0413944,60.8754399 67.9875211,60.8583725 67.9437887,60.8248699 C67.9000563,60.7913674 67.8598099,60.7423777 67.8220986,60.6769528 L67.1734014,59.574528 C67.1547042,59.5419736 67.1350563,59.5144762 67.1141408,59.4929839 C67.0932254,59.4708596 67.0704085,59.4531601 67.0463239,59.4398855 C67.0219225,59.4266109 66.994669,59.4180772 66.9642465,59.4136523 C66.9341408,59.4089114 66.8992817,59.4063829 66.8618873,59.4063829 L66.4945986,59.4063829 L66.4945986,60.8754399 L65.7917113,60.8754399 L65.7917113,57.4866212 L66.4945986,57.4866212 L66.4945986,58.8855124 L66.8013592,58.8855124 C66.8618873,58.8855124 66.9151268,58.8747663 66.9604437,58.852958 C67.0057606,58.8311497 67.0479085,58.7906938 67.0868873,58.7312741 L67.7729789,57.6712016 C67.8059366,57.6165228 67.8455493,57.5725902 67.8924507,57.5381394 C67.9390352,57.5040047 67.9954437,57.4866212 68.0610423,57.4866212 L68.662838,57.4866212 L67.782169,58.8343104 C67.7431901,58.8949943 67.6972394,58.9446161 67.6443169,58.9844399 C67.5910775,59.0239477 67.5324507,59.056186 67.4684366,59.0795746 C67.5685775,59.1058078 67.6525563,59.1487922 67.7213239,59.208528 C67.7904085,59.2688959 67.8550563,59.3526523 67.9155845,59.4601135 L68.7468169,60.8754399 Z M63.3876972,58.0353052 L63.3876972,58.9066886 L64.5209366,58.9066886 L64.5209366,59.4367249 L63.3876972,59.4367249 L63.3876972,60.3264399 L64.8441761,60.3264399 L64.8441761,60.8754399 L62.6806901,60.8754399 L62.6806901,57.4866212 L64.8441761,57.4866212 L64.8441761,58.0353052 L63.3876972,58.0353052 Z M61.5455493,60.8754399 L60.8382254,60.8754399 L60.8382254,58.0169736 L59.9901972,58.0169736 C59.9670634,58.4373363 59.9350563,58.8008078 59.894493,59.1073881 C59.8539296,59.4142845 59.8054437,59.6744036 59.7487183,59.8883777 C59.6913592,60.1023518 59.6267113,60.2758699 59.5544577,60.4089321 C59.4815704,60.5423104 59.4020282,60.6456627 59.3155141,60.7199373 C59.2286831,60.7938959 59.135831,60.8441497 59.0366408,60.870699 C58.9374507,60.8972482 58.8328732,60.9105228 58.7235423,60.9105228 C58.6005845,60.9105228 58.5112183,60.8994606 58.4567113,60.8779684 C58.4022042,60.855844 58.3749507,60.8242378 58.3749507,60.7822016 L58.3749507,60.3501446 L58.5622394,60.3501446 C58.611993,60.3501446 58.6642817,60.3412948 58.7181549,60.3248596 C58.7723451,60.3087404 58.8252676,60.2698648 58.8775563,60.2082326 C58.9298451,60.1469166 58.9805493,60.0555746 59.029669,59.9342067 C59.0787887,59.8125228 59.1231549,59.6453259 59.1630845,59.4329321 C59.2030141,59.2202223 59.2375563,58.9556782 59.2660775,58.6389839 C59.2949155,58.3222896 59.3155141,57.9382741 59.3278732,57.4866212 L61.5455493,57.4866212 L61.5455493,60.8754399 Z M57.602662,60.8754399 L56.8956549,60.8754399 L56.8956549,58.0169736 L55.5117465,58.0169736 L55.5117465,60.8754399 L54.8041056,60.8754399 L54.8041056,57.4866212 L57.602662,57.4866212 L57.602662,60.8754399 Z M53.6715,57.4866212 L53.6715,60.8754399 L53.051007,60.8754399 L53.051007,58.7948026 C53.051007,58.7508699 53.0525915,58.7044088 53.0551268,58.6541549 C53.0573451,58.6045332 53.0611479,58.5539632 53.0674859,58.5027611 L52.0955493,60.3406627 C52.0423099,60.4418026 51.9608662,60.4923725 51.8499507,60.4923725 L51.7513944,60.4923725 C51.6968873,60.4923725 51.6484014,60.4790979 51.6062535,60.4534969 C51.5641056,60.4278959 51.5305141,60.3906005 51.5054789,60.3406627 L50.5291056,58.4954917 C50.5338592,58.5498544 50.537662,58.6023207 50.540831,58.6525746 C50.544,58.7034606 50.5455845,58.7508699 50.5455845,58.7948026 L50.5455845,60.8754399 L49.9250915,60.8754399 L49.9250915,57.4866212 L50.4587535,57.4866212 C50.4885423,57.4866212 50.5148451,57.4875694 50.5382958,57.4891497 C50.5620634,57.4907301 50.5829789,57.4942067 50.6010423,57.5014762 C50.6187887,57.5084295 50.6352676,57.5194917 50.650162,57.5340306 C50.6650563,57.5488855 50.679,57.5700617 50.6929437,57.5966109 L51.6439648,59.4038544 C51.6731197,59.4585332 51.7013239,59.5144762 51.7273099,59.5723155 C51.7529789,59.6298389 51.7770634,59.6892585 51.8005141,59.7496264 C51.8239648,59.6873622 51.849,59.6269943 51.874669,59.5675746 C51.9006549,59.508471 51.9279085,59.4515798 51.9576972,59.3972171 L52.9011127,57.5966109 C52.9150563,57.5700617 52.9299507,57.5488855 52.9457958,57.5340306 C52.9613239,57.5194917 52.9784366,57.5084295 52.9961831,57.5014762 C53.0145634,57.4942067 53.0345282,57.4907301 53.0573451,57.4891497 C53.0798451,57.4875694 53.1064648,57.4866212 53.1375211,57.4866212 L53.6715,57.4866212 Z M48.2676972,59.1797663 C48.2676972,59.0024554 48.2442465,58.842844 48.197662,58.7018803 C48.1504437,58.5609166 48.0832606,58.441129 47.995162,58.3422016 C47.9070634,58.2435902 47.8002676,58.1677352 47.6744577,58.115585 C47.5486479,58.0634347 47.4060423,58.0378337 47.2469577,58.0378337 C47.0875563,58.0378337 46.9443169,58.0634347 46.8181901,58.115585 C46.6917465,58.1677352 46.5849507,58.2435902 46.4965352,58.3422016 C46.4084366,58.441129 46.3403028,58.5609166 46.2937183,58.7018803 C46.2468169,58.842844 46.2233662,59.0024554 46.2233662,59.1797663 C46.2233662,59.3589736 46.2468169,59.518585 46.2937183,59.6595487 C46.3403028,59.8001964 46.4084366,59.9199839 46.4965352,60.0182793 C46.5849507,60.1162585 46.6917465,60.1911653 46.8181901,60.2433155 C46.9443169,60.2954658 47.0875563,60.322015 47.2469577,60.322015 C47.4060423,60.322015 47.5486479,60.2954658 47.6744577,60.2433155 C47.8002676,60.1911653 47.9070634,60.1162585 47.995162,60.0182793 C48.0832606,59.9199839 48.1504437,59.8001964 48.197662,59.6595487 C48.2442465,59.518585 48.2676972,59.3589736 48.2676972,59.1797663 L48.2676972,59.1797663 Z M48.9864296,59.1797663 C48.9864296,59.4275591 48.9452324,59.6570202 48.8615704,59.8687819 C48.7782254,60.0805435 48.660338,60.2635435 48.5079085,60.4174658 C48.3561127,60.5720202 48.1723099,60.692756 47.9587183,60.7806212 C47.7448099,60.8684865 47.5074507,60.9127352 47.2469577,60.9127352 C46.985831,60.9127352 46.7484718,60.8684865 46.5348803,60.7806212 C46.3209718,60.692756 46.1374859,60.5720202 45.9844225,60.4174658 C45.8316761,60.2635435 45.7137887,60.0805435 45.6301268,59.8687819 C45.5464648,59.6570202 45.5046338,59.4275591 45.5046338,59.1797663 C45.5046338,58.9322896 45.5464648,58.7028285 45.6301268,58.491699 C45.7137887,58.2808855 45.8316761,58.0988337 45.9844225,57.9442793 C46.1374859,57.790357 46.3209718,57.6686731 46.5348803,57.5808078 C46.7484718,57.4929425 46.985831,57.4493259 47.2469577,57.4493259 C47.5074507,57.4493259 47.7448099,57.4929425 47.9587183,57.5808078 C48.1723099,57.6686731 48.3561127,57.790357 48.5079085,57.9452275 C48.660338,58.1000979 48.7782254,58.2830979 48.8615704,58.4942275 C48.9452324,58.7050409 48.9864296,58.9338699 48.9864296,59.1797663 L48.9864296,59.1797663 Z M45.0555845,60.8754399 L44.4138592,60.8754399 C44.3498451,60.8754399 44.2959718,60.8583725 44.2522394,60.8248699 C44.208507,60.7913674 44.1679437,60.7423777 44.1305493,60.6769528 L43.4818521,59.574528 C43.4631549,59.5419736 43.443507,59.5144762 43.4225915,59.4929839 C43.4013592,59.4708596 43.3788592,59.4531601 43.3544577,59.4398855 C43.3303732,59.4266109 43.3031197,59.4180772 43.2726972,59.4136523 C43.2422746,59.4089114 43.2077324,59.4063829 43.170338,59.4063829 L42.8027324,59.4063829 L42.8027324,60.8754399 L42.100162,60.8754399 L42.100162,57.4866212 L42.8027324,57.4866212 L42.8027324,58.8855124 L43.109493,58.8855124 C43.170338,58.8855124 43.2235775,58.8747663 43.2685775,58.852958 C43.3138944,58.8311497 43.3560423,58.7906938 43.395338,58.7312741 L44.0811127,57.6712016 C44.1140704,57.6165228 44.1536831,57.5725902 44.2005845,57.5381394 C44.2474859,57.5040047 44.3035775,57.4866212 44.369493,57.4866212 L44.9709718,57.4866212 L44.0906197,58.8343104 C44.0516408,58.8949943 44.0056901,58.9446161 43.9524507,58.9844399 C43.8995282,59.0239477 43.8409014,59.056186 43.7768873,59.0795746 C43.8767113,59.1058078 43.961007,59.1487922 44.0297746,59.208528 C44.0985423,59.2688959 44.1631901,59.3526523 44.2240352,59.4601135 L45.0555845,60.8754399 Z M37.3238239,56.9796575 C37.3802324,56.9796575 37.4268169,56.9746005 37.4635775,56.9644865 C37.500338,56.9540565 37.5291761,56.936357 37.5500915,56.9098078 C37.5713239,56.8835746 37.5862183,56.8475435 37.5947746,56.8032948 C37.603331,56.7587301 37.6071338,56.7021549 37.6071338,56.6319891 L37.989,56.6319891 C38.034,56.6319891 38.0679085,56.6506368 38.0888239,56.6879321 C38.1100563,56.7255435 38.1198803,56.7650513 38.1198803,56.8070876 C38.1198803,56.8879995 38.1015,56.9587974 38.0631549,57.0194813 C38.0248099,57.0804813 37.9703028,57.1310513 37.8999507,57.1721394 C37.8295986,57.2135435 37.7462535,57.2445176 37.6486479,57.2647456 C37.5510423,57.2849736 37.442662,57.2954036 37.3238239,57.2954036 C37.2053028,57.2954036 37.0975563,57.2849736 36.9999507,57.2647456 C36.9023451,57.2445176 36.8180493,57.2135435 36.7480141,57.1721394 C36.677662,57.1310513 36.6237887,57.0804813 36.5854437,57.0194813 C36.5470986,56.9587974 36.5277676,56.8879995 36.5277676,56.8070876 C36.5277676,56.7650513 36.5388592,56.7255435 36.5597746,56.6879321 C36.5806901,56.6506368 36.6136479,56.6319891 36.6589648,56.6319891 L37.0405141,56.6319891 C37.0405141,56.7021549 37.0452676,56.7587301 37.0538239,56.8032948 C37.0623803,56.8475435 37.0772746,56.8835746 37.0981901,56.9098078 C37.1194225,56.936357 37.1482606,56.9540565 37.1850211,56.9644865 C37.2217817,56.9746005 37.2677324,56.9796575 37.3238239,56.9796575 L37.3238239,56.9796575 Z M38.7406901,57.4866212 L38.7406901,60.8754399 L38.0333662,60.8754399 L38.0333662,58.8551705 C38.0333662,58.7710979 38.0359014,58.6822845 38.040338,58.5896782 C38.0450915,58.497072 38.0545986,58.4000409 38.0685423,58.2970047 C38.034,58.3889788 37.9975563,58.4746316 37.9585775,58.5539632 C37.9192817,58.6332948 37.8818873,58.7028285 37.8460775,58.7619321 L36.6681549,60.6605176 C36.6526268,60.6870668 36.6339296,60.7126679 36.6120634,60.7376368 C36.5901972,60.7622896 36.5667465,60.7853622 36.5410775,60.8062223 C36.5150915,60.8270824 36.4872042,60.8441497 36.4567817,60.8567922 C36.4263592,60.8691187 36.3937183,60.8754399 36.3591761,60.8754399 L35.8299507,60.8754399 L35.8299507,57.4866212 L36.5372746,57.4866212 L36.5372746,59.5068907 C36.5372746,59.5909632 36.5347394,59.6791446 36.5299859,59.7717508 C36.5255493,59.8640409 36.5160423,59.9623363 36.5020986,60.0650565 C36.5363239,59.9730824 36.5727676,59.8877456 36.6120634,59.8080979 C36.6510423,59.7287663 36.6884366,59.6595487 36.7242465,59.6004451 L37.902169,57.6993311 C37.9180141,57.6743622 37.9367113,57.6487611 37.9585775,57.6231601 C37.9804437,57.597243 38.0045282,57.5744865 38.0301972,57.5545746 C38.0561831,57.5340306 38.0843873,57.5179114 38.114493,57.505585 C38.1449155,57.4929425 38.1769225,57.4866212 38.2114648,57.4866212 L38.7406901,57.4866212 Z M34.1725563,59.1797663 C34.1725563,59.0024554 34.1491056,58.842844 34.1025211,58.7018803 C34.0556197,58.5609166 33.9884366,58.441129 33.900338,58.3422016 C33.8122394,58.2435902 33.7051268,58.1677352 33.5793169,58.115585 C33.4538239,58.0634347 33.3109014,58.0378337 33.1518169,58.0378337 C32.9924155,58.0378337 32.849493,58.0634347 32.7230493,58.115585 C32.5969225,58.1677352 32.4898099,58.2435902 32.4013944,58.3422016 C32.3136127,58.441129 32.2454789,58.5609166 32.1985775,58.7018803 C32.1516761,58.842844 32.1285423,59.0024554 32.1285423,59.1797663 C32.1285423,59.3589736 32.1516761,59.518585 32.1985775,59.6595487 C32.2454789,59.8001964 32.3136127,59.9199839 32.4013944,60.0182793 C32.4898099,60.1162585 32.5969225,60.1911653 32.7230493,60.2433155 C32.849493,60.2954658 32.9924155,60.322015 33.1518169,60.322015 C33.3109014,60.322015 33.4538239,60.2954658 33.5793169,60.2433155 C33.7051268,60.1911653 33.8122394,60.1162585 33.900338,60.0182793 C33.9884366,59.9199839 34.0556197,59.8001964 34.1025211,59.6595487 C34.1491056,59.518585 34.1725563,59.3589736 34.1725563,59.1797663 L34.1725563,59.1797663 Z M34.8916056,59.1797663 C34.8916056,59.4275591 34.8500915,59.6570202 34.7667465,59.8687819 C34.6830845,60.0805435 34.5651972,60.2635435 34.4130845,60.4174658 C34.2609718,60.5720202 34.077169,60.692756 33.8635775,60.7806212 C33.649669,60.8684865 33.4123099,60.9127352 33.1518169,60.9127352 C32.891007,60.9127352 32.6536479,60.8684865 32.4397394,60.7806212 C32.225831,60.692756 32.042662,60.5720202 31.8895986,60.4174658 C31.7365352,60.2635435 31.6186479,60.0805435 31.5349859,59.8687819 C31.4516408,59.6570202 31.409493,59.4275591 31.409493,59.1797663 C31.409493,58.9322896 31.4516408,58.7028285 31.5349859,58.491699 C31.6186479,58.2808855 31.7365352,58.0988337 31.8895986,57.9442793 C32.042662,57.790357 32.225831,57.6686731 32.4397394,57.5808078 C32.6536479,57.4929425 32.891007,57.4493259 33.1518169,57.4493259 C33.4123099,57.4493259 33.649669,57.4929425 33.8635775,57.5808078 C34.077169,57.6686731 34.2609718,57.790357 34.4130845,57.9452275 C34.5651972,58.1000979 34.6830845,58.2830979 34.7667465,58.4942275 C34.8500915,58.7050409 34.8916056,58.9338699 34.8916056,59.1797663 L34.8916056,59.1797663 Z M30.4733662,60.8754399 L29.7663592,60.8754399 L29.7663592,58.0169736 L28.9186479,58.0169736 C28.8951972,58.4373363 28.8631901,58.8008078 28.8226268,59.1073881 C28.7820634,59.4142845 28.7335775,59.6744036 28.6765352,59.8883777 C28.619493,60.1023518 28.5548451,60.2758699 28.4822746,60.4089321 C28.4097042,60.5423104 28.330162,60.6456627 28.243331,60.7199373 C28.1568169,60.7938959 28.0639648,60.8441497 27.9647746,60.870699 C27.8655845,60.8972482 27.761007,60.9105228 27.6516761,60.9105228 C27.5284014,60.9105228 27.4393521,60.8994606 27.3848451,60.8779684 C27.3300211,60.855844 27.3030845,60.8242378 27.3030845,60.7822016 L27.3030845,60.3501446 L27.4900563,60.3501446 C27.5401268,60.3501446 27.5924155,60.3412948 27.6462887,60.3248596 C27.700162,60.3087404 27.7530845,60.2698648 27.8053732,60.2082326 C27.857662,60.1469166 27.9086831,60.0555746 27.9578028,59.9342067 C28.0069225,59.8125228 28.0512887,59.6453259 28.0912183,59.4329321 C28.130831,59.2202223 28.1653732,58.9556782 28.1942113,58.6389839 C28.2230493,58.3222896 28.243331,57.9382741 28.2556901,57.4866212 L30.4733662,57.4866212 L30.4733662,60.8754399 Z M26.5307958,57.4866212 L26.5307958,60.8754399 L25.8234718,60.8754399 L25.8234718,58.8551705 C25.8234718,58.7710979 25.8256901,58.6822845 25.8307606,58.5896782 C25.8351972,58.497072 25.8443873,58.4000409 25.8586479,58.2970047 C25.8241056,58.3889788 25.787662,58.4746316 25.7486831,58.5539632 C25.7093873,58.6332948 25.671993,58.7028285 25.6361831,58.7619321 L24.4582606,60.6605176 C24.4427324,60.6870668 24.4240352,60.7126679 24.402169,60.7376368 C24.3803028,60.7622896 24.3568521,60.7853622 24.3311831,60.8062223 C24.3055141,60.8270824 24.2773099,60.8441497 24.2468873,60.8567922 C24.2164648,60.8691187 24.183507,60.8754399 24.1492817,60.8754399 L23.6200563,60.8754399 L23.6200563,57.4866212 L24.3270634,57.4866212 L24.3270634,59.5068907 C24.3270634,59.5909632 24.3248451,59.6791446 24.3200915,59.7717508 C24.315338,59.8640409 24.3061479,59.9623363 24.2922042,60.0650565 C24.3264296,59.9730824 24.3631901,59.8877456 24.402169,59.8080979 C24.4411479,59.7287663 24.4785423,59.6595487 24.514669,59.6004451 L25.6922746,57.6993311 C25.7081197,57.6743622 25.7265,57.6487611 25.7486831,57.6231601 C25.7705493,57.597243 25.7946338,57.5744865 25.8203028,57.5545746 C25.8462887,57.5340306 25.8741761,57.5179114 25.9045986,57.505585 C25.9350211,57.4929425 25.9670282,57.4866212 26.0015704,57.4866212 L26.5307958,57.4866212 Z M22.8503028,60.8754399 L22.3793873,60.8754399 C22.2779789,60.8754399 22.1914648,60.8536316 22.1188944,60.8109632 C22.0463239,60.7679788 21.988331,60.7104554 21.9461831,60.637129 L21.3187183,59.5957041 C21.2781549,59.5255383 21.2318873,59.4765487 21.1799155,59.4484192 C21.1276268,59.4202896 21.0636127,59.4063829 20.988507,59.4063829 L20.6418169,59.4063829 L20.6418169,60.8754399 L19.9791761,60.8754399 L19.9791761,59.4063829 L19.6350211,59.4063829 C19.5586479,59.4063829 19.4946338,59.4202896 19.4429789,59.4484192 C19.3916408,59.4765487 19.3456901,59.5255383 19.3048099,59.5957041 L18.6773451,60.637129 C18.6336127,60.7104554 18.5759366,60.7679788 18.504,60.8109632 C18.4320634,60.8536316 18.3445986,60.8754399 18.2419225,60.8754399 L17.7735423,60.8754399 L18.6095282,59.4509477 C18.6687887,59.351072 18.7328028,59.2714244 18.8006197,59.2126368 C18.8684366,59.1532171 18.9448099,59.1083363 19.0306901,59.0770461 C18.9606549,59.0489166 18.9004437,59.0100409 18.8497394,58.9610513 C18.7990352,58.9120617 18.7499155,58.8513777 18.7030141,58.7780513 L17.8743169,57.4866212 L18.4314296,57.4866212 C18.5017817,57.4866212 18.5673803,57.5040047 18.6275915,57.5381394 C18.6874859,57.5725902 18.7350211,57.6199995 18.770831,57.6803674 L19.400831,58.7176834 C19.4401268,58.7859528 19.4835423,58.8311497 19.5320282,58.852958 C19.5805141,58.8747663 19.6350211,58.8855124 19.6958662,58.8855124 L19.9791761,58.8855124 L19.9791761,57.4866212 L20.6418169,57.4866212 L20.6418169,58.8855124 L20.9254437,58.8855124 C20.9878732,58.8855124 21.043331,58.8747663 21.0908662,58.852958 C21.1384014,58.8311497 21.1821338,58.7859528 21.2226972,58.7176834 L21.8526972,57.6803674 C21.888507,57.6199995 21.936993,57.5725902 21.9968873,57.5381394 C22.0570986,57.5040047 22.1217465,57.4866212 22.1920986,57.4866212 L22.7495282,57.4866212 L21.9205141,58.7780513 C21.8736127,58.8513777 21.8251268,58.9120617 21.7744225,58.9610513 C21.7240352,59.0100409 21.6628732,59.0489166 21.5925211,59.0770461 C21.6784014,59.1083363 21.7557254,59.1532171 21.8235423,59.2126368 C21.8916761,59.2714244 21.9541056,59.351072 22.0117817,59.4509477 L22.8503028,60.8754399 Z" id="Fill-20" fill="#FEFEFE"></path>
                    <g id="Group-24" transform="translate(0.000000, 42.897223)">
                        <mask id="mask-4" fill="white">
                            <use xlink:href="#path-3"></use>
                        </mask>
                        <g id="Clip-23"></g>
                        <path d="M87.9315211,2.23642435 L85.8799014,2.23642435 C85.392507,2.23642435 85.0546901,2.36759016 84.836662,2.57018601 C84.582507,2.80628446 84.4738099,3.15584922 84.4738099,3.51141917 C84.4738099,3.91503057 84.5872606,4.24310311 84.8262042,4.45612902 L84.826838,4.45549689 C85.0635634,4.6659943 85.4368732,4.78673005 85.9607113,4.78673005 L87.9315211,4.78673005 L87.9315211,2.23642435 Z M87.9315211,10.0886731 L87.9315211,6.58101503 L86.270007,6.58101503 C85.887507,6.58101503 85.5553944,6.63000466 85.3075775,6.78234663 L85.3075775,6.78424301 C85.0702183,6.92994767 84.8832465,7.18848653 84.7656761,7.61801503 L84.0529648,10.2192067 C83.9224014,10.6964606 83.6638099,10.6961446 83.3995141,10.6958285 L83.3995141,10.6977249 L83.3928592,10.6977249 L82.666838,10.6977249 C82.4960282,10.6977249 82.3657817,10.6383052 82.2681761,10.551072 C82.1277887,10.4246472 82.0831056,10.2640876 82.0831056,10.129129 L82.0831056,10.0485332 L82.1008521,9.92937772 C82.1918028,9.6044658 82.3138099,9.15502539 82.4364507,8.70274041 C82.5698662,8.21221192 82.7035986,7.72041917 82.8538099,7.19227927 C82.9666268,6.79435699 83.1231761,6.44637254 83.3684577,6.14800984 L83.3671901,6.14737772 C83.4508521,6.0456057 83.5437042,5.95078705 83.6476479,5.86355389 C83.3988803,5.67676114 83.1919437,5.45456943 83.0258873,5.2033 C82.7001127,4.71024301 82.5403944,4.11604611 82.5403944,3.47127927 C82.5403944,2.58440881 82.8674366,1.79994249 83.4552887,1.2408285 C84.0143028,0.708579793 84.8018028,0.388408808 85.759162,0.388408808 L88.8106056,0.388408808 C89.1839155,0.388408808 89.4456761,0.485123834 89.6329648,0.681082383 C89.8205704,0.877673057 89.8921901,1.13147098 89.8921901,1.45322228 L89.8921901,10.0886731 C89.8921901,10.3152896 89.8357817,10.4581497 89.6760634,10.5795176 C89.542331,10.6816057 89.4238099,10.6977249 89.2545845,10.6977249 L88.5691268,10.6977249 C88.3995845,10.6977249 88.2810634,10.6819218 88.1476479,10.5795176 C87.9882465,10.4581497 87.9315211,10.3152896 87.9315211,10.0886731 L87.9315211,10.0886731 Z M76.4105704,10.0753984 L76.4105704,3.78386477 L76.035993,4.41883368 L76.032507,4.42610311 L72.6178944,9.98405648 L72.6172606,9.98374041 C72.4857465,10.2062482 72.3821197,10.3620668 72.2372958,10.4818544 C72.053493,10.6332482 71.8579648,10.6977249 71.5765563,10.6977249 L71.2672606,10.6977249 C70.9044085,10.6977249 70.651838,10.5912119 70.4746901,10.3908285 C70.3041972,10.1977145 70.2398662,9.95276632 70.2398662,9.65724819 L70.2398662,1.01073523 C70.2398662,0.785066839 70.3159225,0.632092746 70.4604296,0.518310363 L70.4604296,0.516730052 C70.5887746,0.415590155 70.7221901,0.388408808 70.8774718,0.388408808 L71.535993,0.388408808 C71.7204296,0.388408808 71.8532113,0.419066839 71.9821901,0.532217098 L71.9821901,0.534113472 C72.1235282,0.658958031 72.1732817,0.801502073 72.1732817,1.01073523 L72.1732817,7.27382332 L72.442331,6.82469896 L72.4442324,6.82122228 L75.9665915,1.08880259 L75.9669085,1.08911865 C76.0971549,0.868823316 76.1896901,0.719641969 76.3389507,0.597641969 C76.521169,0.448460622 76.7144789,0.388408808 77.0079296,0.388408808 L77.3305352,0.388408808 C77.6940211,0.388408808 77.9427887,0.491445078 78.1180352,0.69372487 C78.2853592,0.887154922 78.3443028,1.12894249 78.3443028,1.42856943 L78.3443028,10.0753984 C78.3443028,10.2846316 78.2945493,10.4271756 78.1532113,10.5520202 C78.0226479,10.6667508 77.8898662,10.6977249 77.7070141,10.6977249 L77.0481761,10.6977249 C76.8640563,10.6977249 76.7312746,10.6673829 76.6019789,10.5536005 L76.6019789,10.5520202 C76.4606408,10.4271756 76.4105704,10.2846316 76.4105704,10.0753984 L76.4105704,10.0753984 Z M59.9133169,6.19225855 L59.9133169,10.0753984 C59.9133169,10.2846316 59.8635634,10.4271756 59.7219085,10.5520202 C59.591662,10.6667508 59.4588803,10.6977249 59.2757113,10.6977249 L58.5902535,10.6977249 C58.4365563,10.6977249 58.3037746,10.6702275 58.1738451,10.5675073 C58.029338,10.4537249 57.9529648,10.3004347 57.9529648,10.0753984 L57.9529648,1.03760052 C57.9529648,0.811932124 58.029338,0.659274093 58.1738451,0.545175648 C58.3034577,0.442771503 58.4365563,0.415274093 58.5902535,0.415274093 L59.2757113,0.415274093 C59.4582465,0.415274093 59.5907113,0.445932124 59.7209577,0.56003057 L59.7219085,0.559082383 C59.8632465,0.682978756 59.9133169,0.826470984 59.9133169,1.03760052 L59.9133169,4.3843829 L64.0431761,4.3843829 L64.0431761,1.03760052 C64.0431761,0.828051295 64.0932465,0.685507254 64.2345845,0.560978756 C64.3651479,0.445932124 64.4979296,0.415274093 64.6807817,0.415274093 L65.3393028,0.415274093 C65.521838,0.415274093 65.6543028,0.445932124 65.7845493,0.56003057 L65.7855,0.559082383 C65.9265211,0.682978756 65.9769085,0.826470984 65.9769085,1.03760052 L65.9769085,10.0753984 C65.9769085,10.2846316 65.926838,10.4271756 65.7855,10.5520202 C65.6549366,10.6667508 65.5224718,10.6977249 65.3393028,10.6977249 L64.6807817,10.6977249 C64.4979296,10.6977249 64.3651479,10.6670668 64.2345845,10.5520202 C64.0929296,10.4271756 64.0431761,10.2843155 64.0431761,10.0753984 L64.0431761,6.19225855 L59.9133169,6.19225855 Z M51.3398662,8.20968342 C51.8183873,7.56365233 51.9980704,6.59681813 51.9980704,5.56993212 C51.9980704,4.62111347 51.8662394,3.71654352 51.4831056,3.06861606 C51.1322958,2.4750513 50.5419085,2.08913938 49.5972254,2.08913938 C48.791662,2.08913938 48.206662,2.41247098 47.8146549,2.93302539 C47.3348662,3.56957461 47.1152535,4.50575078 47.1152535,5.52979223 C47.1152535,6.57153316 47.2676831,7.4770513 47.6638099,8.10253834 C48.0276127,8.67713938 48.6287746,9.02385959 49.556662,9.02385959 C50.3983521,9.02385959 50.9697254,8.70906166 51.3398662,8.20968342 L51.3398662,8.20968342 Z M52.8356408,1.67889067 C53.5800423,2.58851762 53.9587394,3.8989114 53.9587394,5.52979223 C53.9587394,7.2071342 53.5832113,8.52511347 52.8419789,9.43474041 C52.0899718,10.357958 50.986838,10.8450098 49.5433521,10.8450098 C48.1058873,10.8450098 47.0233521,10.3500565 46.2865563,9.4407456 C45.5462746,8.52732591 45.1821549,7.20871451 45.1821549,5.56993212 C45.1821549,3.93999948 45.606169,2.64825337 46.3388451,1.74557979 C47.1231761,0.77937772 48.2453239,0.267673057 49.5702887,0.267673057 C50.9938099,0.267673057 52.0874366,0.76483886 52.8356408,1.67889067 L52.8356408,1.67889067 Z M36.336169,7.00611865 L36.3577183,7.06079741 L36.3887746,6.9839943 C36.5405704,6.61009275 36.6882465,6.24662124 36.7633521,6.07215492 C36.9883521,5.54970415 37.3524718,4.6751601 37.7124718,3.80156425 C38.1532817,2.73137772 38.6042324,1.62389585 38.7883521,1.15896839 C38.9049718,0.863450259 39.029831,0.680766321 39.2063451,0.557502073 C39.3990211,0.422227461 39.5939155,0.388408808 39.8512394,0.388408808 L40.1602183,0.388408808 C40.5424014,0.388408808 40.7965563,0.503771503 40.9695845,0.710792228 C41.1353239,0.908963212 41.1876127,1.14948653 41.1876127,1.42856943 L41.1876127,10.0753984 C41.1876127,10.3010668 41.1115563,10.4537249 40.9670493,10.5675073 C40.8371197,10.6702275 40.7040211,10.6977249 40.5503239,10.6977249 L39.9184225,10.6977249 C39.7352535,10.6977249 39.6021549,10.6664347 39.4722254,10.5520202 C39.3308873,10.4268596 39.2808169,10.2843155 39.2808169,10.0753984 L39.2808169,4.77440363 C39.0846549,5.25165751 38.791838,5.95299948 38.4942676,6.66319119 C38.1181056,7.55985959 37.7476479,8.43693212 37.560993,8.86867306 C37.4573662,9.10919637 37.3686338,9.27291658 37.2120845,9.40408238 C37.0349366,9.55231554 36.8381408,9.60920674 36.5437394,9.60920674 L36.1808873,9.60920674 C35.892507,9.60920674 35.6922254,9.55452798 35.5109577,9.41008756 C35.349338,9.28050207 35.2517324,9.11172487 35.1484225,8.86361606 C34.9681056,8.43092694 34.6578592,7.70556425 34.3324014,6.94448653 C34.009162,6.1884658 33.6703944,5.39641399 33.4301831,4.82434145 L33.4301831,10.0753984 C33.4301831,10.2846316 33.3804296,10.4271756 33.2390915,10.5520202 C33.1082113,10.6670668 32.9757465,10.6977249 32.7928944,10.6977249 L32.1743028,10.6977249 C31.9911338,10.6977249 31.8583521,10.6664347 31.7281056,10.5520202 C31.5867676,10.4268596 31.5370141,10.2843155 31.5370141,10.0753984 L31.5370141,1.42856943 C31.5370141,1.15264715 31.5829648,0.915284456 31.743,0.716165285 C31.9119085,0.505667876 32.1632113,0.388408808 32.5507817,0.388408808 L32.8600775,0.388408808 C33.1345141,0.388408808 33.3281408,0.42349171 33.5195493,0.562559067 C33.6938451,0.688983938 33.8057113,0.86787513 33.9210634,1.15707202 C33.9847606,1.3160513 34.6797254,3.01678187 35.2491972,4.39260052 C35.5588099,5.14103575 35.8297606,5.7873829 35.9308521,6.00957461 C36.0119789,6.18720155 36.1735986,6.59523782 36.336169,7.00611865 L36.336169,7.00611865 Z M22.3129648,2.23642435 L22.3129648,5.02788549 L24.3240211,5.02788549 C24.8310634,5.02788549 25.2237042,4.90335699 25.4772254,4.66662642 C25.719338,4.44095803 25.851169,4.09234145 25.851169,3.63215492 C25.851169,3.27911347 25.7462746,2.8736057 25.4490211,2.59799948 C25.2170493,2.38276114 24.8541972,2.23642435 24.3107113,2.23642435 L22.3129648,2.23642435 Z M20.3928592,10.0886731 L20.3928592,1.45322228 C20.3928592,1.13494767 20.4578239,0.883994301 20.6400423,0.68645544 C20.8238451,0.486704145 21.0833873,0.388408808 21.4605,0.388408808 L24.5661338,0.388408808 C25.5190563,0.388408808 26.3296901,0.716797409 26.9077183,1.28096839 C27.4889155,1.84798394 27.8251479,2.64540881 27.8251479,3.57874041 C27.8251479,4.74975078 27.1894437,6.83576114 24.4450775,6.83576114 L22.3129648,6.83576114 L22.3129648,10.0886731 C22.3129648,10.3152896 22.2565563,10.4581497 22.096838,10.5795176 C21.9631056,10.6819218 21.8445845,10.6977249 21.6753592,10.6977249 L21.016838,10.6977249 C20.8647254,10.6977249 20.7449366,10.6812896 20.6121549,10.5792016 C20.4628944,10.4654192 20.3928592,10.3178181 20.3928592,10.0886731 L20.3928592,10.0886731 Z M13.7037042,6.63727409 L12.888,4.15270933 L12.888,4.15112902 L12.6208521,3.3239943 L12.3692324,4.09739845 L12.3692324,4.10087513 L11.5288099,6.63727409 L13.7037042,6.63727409 Z M16.3526831,10.6977249 L15.5997254,10.6977249 C15.4599718,10.6977249 15.3595141,10.6955124 15.2197606,10.6206057 C15.0714507,10.540958 14.9770141,10.4249632 14.9063451,10.220471 L14.2982113,8.45842435 L10.9377887,8.45842435 C10.8636338,8.67271451 10.7622254,8.97423782 10.6643028,9.26722746 C10.5166268,9.70718601 10.3756056,10.1281808 10.3287042,10.2432275 C10.2735634,10.3785021 10.1946549,10.4859632 10.0843732,10.5668751 C9.96458451,10.6544244 9.82926761,10.6977249 9.6708169,10.6977249 L8.90423239,10.6977249 C8.82437324,10.6977249 8.74990141,10.6841342 8.6811338,10.6597974 C8.44504225,10.5766731 8.29356338,10.3585902 8.29356338,10.1101653 C8.29356338,10.0362067 8.30750704,9.96003575 8.33380986,9.88639326 L11.4394437,1.15707202 C11.5345141,0.889051295 11.6264155,0.714901036 11.788669,0.582470984 C11.9680352,0.435818135 12.1645141,0.388408808 12.4538451,0.388408808 L12.8033873,0.388408808 C13.1240915,0.388408808 13.3307113,0.444667876 13.5088099,0.593217098 C13.6767676,0.73291658 13.7553592,0.904538342 13.8447254,1.15896839 L16.9097958,9.88797358 C16.9354648,9.96098394 16.9503592,10.0390513 16.9503592,10.113642 C16.9503592,10.2160461 16.925007,10.3212948 16.8663803,10.418958 C16.8014155,10.5273674 16.7028592,10.6136523 16.5662746,10.6610617 C16.4994085,10.6844503 16.4284225,10.6977249 16.3526831,10.6977249 L16.3526831,10.6977249 Z M1.93335211,2.91469378 L1.93335211,10.0327301 C1.93335211,10.2539736 1.87947887,10.408528 1.73719014,10.5381135 C1.60377465,10.6594813 1.45641549,10.6977249 1.2558169,10.6977249 L0.691098592,10.6977249 C0.230323944,10.6977249 -6.33802817e-05,10.5713 -6.33802817e-05,10.0327301 L-6.33802817e-05,3.06450725 C-6.33802817e-05,2.29078705 0.188176056,1.58691658 0.682859155,1.08406166 C1.10877465,0.651056477 1.73940845,0.388408808 2.64035915,0.388408808 L6.25715493,0.388408808 C6.52240141,0.388408808 6.68623944,0.471533161 6.80507746,0.637781865 C6.90838732,0.782854404 6.92138028,0.914020207 6.92138028,1.07805648 L6.92138028,1.54709275 C6.92138028,1.73293731 6.90743662,1.86283886 6.7895493,2.00822746 L6.78764789,2.00822746 C6.66120423,2.16373005 6.50687324,2.22314974 6.25715493,2.22314974 L2.65398592,2.22314974 C2.36940845,2.22314974 2.18116901,2.27340363 2.07912676,2.37485959 C1.97930282,2.47473523 1.93335211,2.65489067 1.93335211,2.91469378 L1.93335211,2.91469378 Z" id="Fill-22" fill="#FEFEFE" mask="url(#mask-4)"></path>
                    </g>
                </g>
            </g>
        </g>
    </g>
</svg>