<svg xmlns="http://www.w3.org/2000/svg" xmlns:xlink="http://www.w3.org/1999/xlink" width="142" height="98" viewBox="0 0 142 98">
    <defs>
        <path id="a" d="M.019.288h31.675v35.951H.019z"/>
    </defs>
    <g fill="none" fill-rule="evenodd">
        <path fill="#FFF" d="M8.5 0h125a8 8 0 0 1 8 8v69.845a8 8 0 0 1-8 8H80.506L71 97.495l-9.506-11.65H8.5a8 8 0 0 1-8-8V8a8 8 0 0 1 8-8z"/>
        <g transform="translate(53.204 12.029)">
            <mask id="b" fill="#fff">
                <use xlink:href="#a"/>
            </mask>
            <path fill="#1B3F6D" d="M31.694 10.877V25.65h-.002c0 .584-.144 1.129-.414 1.6v.002c-.201.351-.47.661-.8.917.253.41.454.86.6 1.338a.374.374 0 0 1-.146.418 6.033 6.033 0 0 1-2.363.985 4.994 4.994 0 0 1-2.414-.161l-.031-.01-4.512 2.629c.016.476-.023.96-.116 1.442a.372.372 0 0 1-.325.302 6.93 6.93 0 0 1-2.328-.13l-1.407.82c-.5.29-1.04.437-1.58.437v.001c-.54 0-1.08-.146-1.581-.439L1.602 28.413a3.134 3.134 0 0 1-1.583-2.765V10.877c0-.583.145-1.127.416-1.602.27-.472.666-.87 1.167-1.162L14.275.727a3.127 3.127 0 0 1 1.581-.44c.54 0 1.08.147 1.582.44L30.11 8.114h.002c.5.291.894.69 1.165 1.163.272.474.417 1.018.417 1.601" mask="url(#b)"/>
        </g>
        <path fill="#65CDF7" d="M67.507 39.175l.033.026c.318.253.62.522.853.757a6.708 6.708 0 0 1 2.586.305c.87.287 1.661.766 2.31 1.439a5.396 5.396 0 0 1 1.325 2.338c.049.178.088.36.12.543l3.754-2.189a4.812 4.812 0 0 1-1.145-.9 5.451 5.451 0 0 1-1.155-1.926 48.63 48.63 0 0 0-8.68-.393M57.135 40.939l10.714 6.243c.386.225.799.337 1.211.337v.002a2.4 2.4 0 0 0 1.213-.339l.822-.479a5.59 5.59 0 0 1-1.891-1.283 5.396 5.396 0 0 1-1.325-2.338 6.158 6.158 0 0 1-.106-2.691 9.759 9.759 0 0 0-.691-.602 7.755 7.755 0 0 0-.77-.544c-.973.07-1.927.168-2.858.296a38.05 38.05 0 0 0-6.319 1.398M63.63 37.527a2.441 2.441 0 0 1-.084-.26 3.113 3.113 0 0 1-.091-.91h-.092a9.873 9.873 0 0 1-4.76-1.212 5.968 5.968 0 0 1-2.665.87c-.704.056-1.39-.019-1.973-.225v1.888c0 .419.094.808.27 1.148a41.115 41.115 0 0 1 5.947-1.064 46.302 46.302 0 0 1 3.448-.235M66.176 37.514a3.73 3.73 0 0 1-.171-.349 4.605 4.605 0 0 1-.307-1.077c-.463.11-.94.186-1.425.23-.016.272.003.52.061.74.043.164.109.314.198.449a50.068 50.068 0 0 1 1.644.007"/>
        <path fill="#65CDF7" d="M72.89 37.2a7.002 7.002 0 0 0-1.021.761c1.56.216 3.072.504 4.52.856a5.991 5.991 0 0 1 2.229-.894 4.993 4.993 0 0 1 2.413.161 4.781 4.781 0 0 1 2.216 1.508c.245-.194.446-.426.594-.686h.001c.206-.36.315-.777.315-1.228h-.001V22.906c0-.451-.11-.869-.315-1.227v-.002a2.423 2.423 0 0 0-.896-.889l-12.673-7.386a2.396 2.396 0 0 0-1.212-.337c-.412 0-.825.113-1.21.337h-.002l-12.674 7.386c-.386.225-.69.53-.895.889v.002a2.454 2.454 0 0 0-.314 1.227v7.49c.495 1.03 1.28 1.954 2.234 2.661a7.39 7.39 0 0 0 1.936 1.033 10.36 10.36 0 0 1 2.207-6.832 10.252 10.252 0 0 1 5.203-3.517 3.687 3.687 0 0 1-.296-1.446c0-1.01.405-1.924 1.06-2.586a3.595 3.595 0 0 1 5.149.028c.112-.15.218-.307.316-.473.169-.287.31-.6.419-.945a.407.407 0 0 1 .51-.27.412.412 0 0 1 .269.514 5.338 5.338 0 0 1-.61 1.305 3.984 3.984 0 0 1 1.39.327c.207.089.304.33.215.54a.406.406 0 0 1-.534.217 3.176 3.176 0 0 0-1.288-.265c.427.716.779 1.487 1.034 2.297.298.948.464 1.954.464 2.996 0 2.866-1.15 5.46-3.01 7.338a10.26 10.26 0 0 1-4.143 2.55c.052.36.138.684.262.972.113.264.259.5.44.705 1.27.052 2.517.152 3.735.296a7.718 7.718 0 0 1 1.57-1.272 5.904 5.904 0 0 1 .706-2.328 5.612 5.612 0 0 1 1.746-1.92 5.81 5.81 0 0 1 2.44-.953 6.424 6.424 0 0 1 2.693.185c.164.046.28.202.27.38a5.938 5.938 0 0 1-.723 2.541 5.614 5.614 0 0 1-1.746 1.92 5.806 5.806 0 0 1-2.439.953 6.409 6.409 0 0 1-2.555-.147"/>
        <path fill="#9CDCF9" d="M84.156 33.423c-1.425.499-2.927.83-4.483.97.401-.754.63-1.593.679-2.46a.374.374 0 0 0-.27-.38 6.424 6.424 0 0 0-2.694-.185 5.816 5.816 0 0 0-2.44.954 5.613 5.613 0 0 0-1.544 1.583 18.55 18.55 0 0 1-2.535-.834 10.393 10.393 0 0 0 2.774-7.09 9.985 9.985 0 0 0-.464-2.997 10.856 10.856 0 0 0-1.034-2.297 3.118 3.118 0 0 1 1.288.265.406.406 0 0 0 .534-.217.413.413 0 0 0-.215-.54 3.986 3.986 0 0 0-1.39-.327 5.331 5.331 0 0 0 .61-1.305.407.407 0 1 0-.779-.245c-.108.347-.25.66-.419.946a4.954 4.954 0 0 1-.316.473 3.637 3.637 0 0 0-.937-.696 3.595 3.595 0 0 0-4.212.668 3.662 3.662 0 0 0-.917 3.6c.042.148.094.293.153.432a10.184 10.184 0 0 0-3.53 1.831 19.03 19.03 0 0 1-2.675-7.212l8.508-4.958h.002a2.394 2.394 0 0 1 1.21-.337c.413 0 .826.112 1.21.337h.002l12.674 7.385v.001c.387.226.69.53.895.89.205.36.315.776.315 1.228v10.517z"/>
        <path fill="#FFC735" d="M69.448 20.716a.68.68 0 0 0-.677.684.68.68 0 0 0 .677.684.68.68 0 0 0 .678-.684.68.68 0 0 0-.678-.684zm-2.666 3.648c-.203-.389-.492-.873-.608-1.281a2.866 2.866 0 0 1-.108-.788c0-.782.314-1.49.821-2.003a2.783 2.783 0 0 1 1.984-.83c.464 0 .899.112 1.28.31.398.206.74.506 1.001.87l.001.002c.525.785.954 1.655 1.247 2.588.273.87.427 1.793.427 2.748a9.57 9.57 0 0 1-2.772 6.755 9.39 9.39 0 0 1-6.692 2.798 9.081 9.081 0 0 1-2.304-.292 7.335 7.335 0 0 0 4.408-2.138 7.466 7.466 0 0 0 2.163-5.27 7.453 7.453 0 0 0-.848-3.469zm-7.828 9.792c.002.056.005.112.01.168.42.09.85.137 1.282.137a6.516 6.516 0 0 0 4.643-1.941 6.638 6.638 0 0 0 1.924-4.688 6.615 6.615 0 0 0-.893-3.342 9.428 9.428 0 0 0-4.939 3.28 9.532 9.532 0 0 0-2.027 6.386zm-4.99-2.19a8.372 8.372 0 0 0 1.782 1.775 8.26 8.26 0 0 0 1.833 1.02 5.242 5.242 0 0 1-1.705.432c-.716.058-1.395-.04-1.91-.291v-2.937z"/>
        <path fill="#9CCC4C" d="M68.825 38.388c-.67-.05-1.347-.088-2.03-.111a47.056 47.056 0 0 0-6.538.228 40.613 40.613 0 0 0-5.525.965c.132.122.28.231.443.326l.02.012 1.077.628c2.154-.731 4.537-1.287 7.083-1.635 1.752-.24 3.583-.381 5.47-.413M68.473 40.701c-.108.747-.07 1.49.12 2.182a4.648 4.648 0 0 0 1.142 2.016c.56.583 1.25.999 2.007 1.25a5.992 5.992 0 0 0 2.277.272 5.37 5.37 0 0 0-.118-2.183 4.654 4.654 0 0 0-1.143-2.015 4.902 4.902 0 0 0-2.008-1.25 5.988 5.988 0 0 0-2.277-.272m8.431-1.329c.223.61.553 1.157.975 1.607a4.05 4.05 0 0 0 1.707 1.087 4.272 4.272 0 0 0 2.063.135 5.217 5.217 0 0 0 1.838-.712 4.677 4.677 0 0 0-.975-1.607 4.045 4.045 0 0 0-1.707-1.087 4.268 4.268 0 0 0-2.063-.135 5.224 5.224 0 0 0-1.838.712m-3.658-2.854a5.653 5.653 0 0 0 2.09.09 5.082 5.082 0 0 0 2.133-.832 4.869 4.869 0 0 0 1.514-1.665 5.147 5.147 0 0 0 .604-1.914 5.643 5.643 0 0 0-2.091-.089 5.075 5.075 0 0 0-2.133.831 4.863 4.863 0 0 0-1.513 1.665 5.153 5.153 0 0 0-.604 1.914"/>
        <path fill="#B3D45F" d="M76.905 39.374c2.348-.133 5.033.824 6.56 2.128l.022-.013a4.681 4.681 0 0 0-.975-1.607 4.048 4.048 0 0 0-1.707-1.087 4.272 4.272 0 0 0-2.063-.135 5.224 5.224 0 0 0-1.838.712v.002zm-8.432 1.327c2.397 1.004 4.847 3.677 5.524 5.721l.022-.001c.108-.748.07-1.49-.119-2.182a4.648 4.648 0 0 0-1.142-2.016 4.903 4.903 0 0 0-2.008-1.25 5.975 5.975 0 0 0-2.277-.272zm4.777-4.222c1.301-2.304 4.142-3.936 6.336-4.272v-.01a5.644 5.644 0 0 0-2.09-.089 5.076 5.076 0 0 0-2.133.831 4.865 4.865 0 0 0-1.513 1.665 5.147 5.147 0 0 0-.6 1.875z"/>
        <path fill="#FFF226" d="M64.737 35.433a9.408 9.408 0 0 0 5.318-2.698 9.57 9.57 0 0 0 2.772-6.755c0-.955-.154-1.878-.427-2.748a10.127 10.127 0 0 0-1.247-2.588l-.001-.002a2.833 2.833 0 0 0-1-.87 2.774 2.774 0 0 0-1.28-.31c-.776 0-1.477.318-1.985.83a2.85 2.85 0 0 0-.563.814 2.772 2.772 0 0 1 2.076-.943c.447 0 .864.108 1.227.299.378.199.7.488.94.84l.002.002a9.43 9.43 0 0 1 1.128 2.5c.238.84.36 1.73.33 2.653a9.536 9.536 0 0 1-2.875 6.524 9.457 9.457 0 0 1-4.415 2.452M58.954 34.156c.002.056.005.112.01.168.62-2.9 2.933-7.126 6.955-9.834a9.429 9.429 0 0 0-4.938 3.28 9.532 9.532 0 0 0-2.027 6.386M53.964 31.965a8.388 8.388 0 0 0 3.615 2.796c-1.756.094-3.056-.606-3.615-1.47v-1.326z"/>
        <path fill="#65CDF7" d="M50.487 29.455v3.217c0 .225-.111.419-.304.532l-2.76 1.608a.59.59 0 0 1-.608 0l-2.76-1.608a.6.6 0 0 1-.304-.532v-3.217a.6.6 0 0 1 .304-.532l2.76-1.608a.588.588 0 0 1 .608 0l2.76 1.608a.602.602 0 0 1 .304.532m35.965-15.098v1.711a.32.32 0 0 1-.162.283l-1.468.856a.313.313 0 0 1-.324 0l-1.468-.856a.32.32 0 0 1-.162-.283v-1.71c0-.121.059-.224.162-.284l1.468-.856c.103-.06.22-.06.324 0l1.468.856a.32.32 0 0 1 .162.283m.163 32.407v2.564c0 .18-.088.334-.242.424l-2.2 1.281a.469.469 0 0 1-.484 0l-2.199-1.281a.478.478 0 0 1-.243-.424v-2.564c0-.18.088-.333.243-.423l2.199-1.282a.47.47 0 0 1 .485 0l2.2 1.282c.153.09.241.244.241.423"/>
        <text fill="#222" font-family="AvertaDemoPE-Regular, Averta Demo PE" font-size="15" letter-spacing="-.3">
            <tspan x="16.85" y="70">ЖК «Гармония»</tspan>
        </text>
    </g>
</svg>
