<?xml version="1.0" encoding="UTF-8" standalone="no"?>
<svg width="52px" height="71px" viewBox="0 0 52 71" version="1.1" xmlns="http://www.w3.org/2000/svg" xmlns:xlink="http://www.w3.org/1999/xlink">
    <!-- Generator: Sketch 47.1 (45422) - http://www.bohemiancoding.com/sketch -->
    <title>Polygon</title>
    <desc>Created with Sketch.</desc>
    <defs>
        <linearGradient x1="0%" y1="50%" x2="100%" y2="50%" id="linearGradient-1">
            <stop stop-color="#FECC00" offset="0%"></stop>
            <stop stop-color="#FFED00" offset="100%"></stop>
        </linearGradient>
    </defs>
    <g id="Page-1" stroke="none" stroke-width="1" fill="none" fill-rule="evenodd">
        <g id="infrastructure-1280-" transform="translate(-63.000000, -1350.000000)" fill="url(#linearGradient-1)">
            <g id="Group-7-Copy" transform="translate(63.000000, 1350.000000)">
                <path d="M30.6177592,1.56624327 L46.2355183,10.5831607 L46.2355183,10.5831607 C49.3295291,12.3694887 51.2355183,15.6707589 51.2355183,19.2434148 L51.2355183,39.2561339 L51.2355183,39.2561339 C51.2355183,41.7008342 50.3399828,44.060849 48.7181689,45.8901328 L27.8625543,69.4136937 L27.8625543,69.4136937 C26.7633974,70.6534599 24.8673257,70.7674462 23.6275595,69.6682892 C23.5376736,69.5885979 23.4526554,69.5035796 23.372964,69.4136937 L2.51734944,45.8901328 L2.51734944,45.8901328 C0.895535562,44.060849 2.91160721e-14,41.7008342 2.66453526e-14,39.2561339 L1.0658141e-14,19.2434148 L1.0658141e-14,19.2434148 C7.047461e-15,15.6707589 1.90598923,12.3694887 5,10.5831607 L20.6177592,1.56624327 L20.6177592,1.56624327 C23.7117699,-0.220084679 27.5237484,-0.220084679 30.6177592,1.56624327 Z" id="Polygon"></path>
            </g>
        </g>
    </g>
</svg>