<?xml version="1.0" encoding="UTF-8" standalone="no"?>
<svg width="90px" height="52px" viewBox="0 0 90 52" version="1.1" xmlns="http://www.w3.org/2000/svg" xmlns:xlink="http://www.w3.org/1999/xlink">
    <!-- Generator: sketchtool 47.1 (45422) - http://www.bohemiancoding.com/sketch -->
    <title>4D6A8B59-99E6-4804-8B16-906AE867DFAC</title>
    <desc>Created with sketchtool.</desc>
    <defs></defs>
    <g id="Page-1" stroke="none" stroke-width="1" fill="none" fill-rule="evenodd">
        <g id="main-1280" transform="translate(-316.000000, -520.000000)" fill-rule="nonzero" fill="#FFFFFF">
            <g id="Group-23" transform="translate(144.000000, 462.000000)">
                <g id="Group-22">
                    <path d="M219.1,58.7 L204.1,64.8 L190.1,62.1 L172,71.2 L183.3,109.3 L217.4,88.1 L239,89.3 L262,76.5 L219.1,58.7 Z M244.7,72.5 L236.7,76.5 L230.5,73.1 L238,69.5 L244.7,72.5 Z M207.8,72.1 L199.6,70.9 L196.6,68.1 L204.4,69.4 L207.8,72.1 Z M205,69.4 L212,70.6 L215.9,73.4 L208.5,72.3 L205,69.4 Z M208.2,72.4 L212.4,75.8 L203.6,74.6 L200,71.2 L208.2,72.4 Z M208.9,72.5 L216.4,73.6 L221,76.9 L213.1,75.9 L208.9,72.5 Z M217.1,73.5 L224.3,70.2 L229.4,73.1 L221.8,76.7 L217.1,73.5 Z M216.7,73.2 L212.7,70.5 L219.4,67.6 L223.8,70.1 L216.7,73.2 Z M212.4,70.2 L209,67.9 L215.3,65.2 L219,67.3 L212.4,70.2 Z M211.7,70.3 L204.7,69.1 L201.7,66.7 L208.4,67.9 L211.7,70.3 Z M204,69.1 L196.3,67.8 L193.8,65.4 L201.1,66.7 L204,69.1 Z M195.6,67.9 L187.7,72 L185.7,69.2 L193,65.4 L195.6,67.9 Z M195.8,68.2 L198.8,71.1 L190.3,75.7 L188,72.4 L195.8,68.2 Z M199.1,71.3 L202.7,74.7 L193.4,79.9 L190.6,75.9 L199.1,71.3 Z M203,75.1 L207.4,79.3 L197.1,85.2 L193.6,80.3 L203,75.1 Z M203.9,74.9 L212.8,76.1 L217.9,80.2 L208.4,79.2 L203.9,74.9 Z M213.6,76.2 L221.5,77.2 L227.1,81.1 L218.7,80.2 L213.6,76.2 Z M222.2,77.1 L229.9,73.4 L236,76.9 L227.9,81 L222.2,77.1 Z M237.5,69.2 L230,72.8 L224.8,69.9 L231.9,66.7 L237.5,69.2 Z M231.5,66.5 L224.5,69.7 L220,67.3 L226.7,64.4 L231.5,66.5 Z M226.3,64.2 L219.7,67.1 L215.9,65 L222.2,62.3 L226.3,64.2 Z M218.1,60.4 L221.8,62.1 L215.5,64.7 L212.1,62.8 L218.1,60.4 Z M211.6,63.1 L215,65 L208.7,67.7 L205.6,65.6 L211.6,63.1 Z M205.1,65.6 L208.1,67.7 L201.5,66.5 L198.8,64.4 L205.1,65.6 Z M198.1,64.3 L200.8,66.4 L193.6,65.1 L191.3,63 L198.1,64.3 Z M190.7,63.2 L192.9,65.3 L185.6,69 L183.9,66.5 L190.7,63.2 Z M175.8,70.7 L183.2,67 L184.9,69.5 L176.9,73.6 L175.8,70.7 Z M177,73.8 L185,69.7 L186.9,72.5 L178.3,77 L177,73.8 Z M178.5,77.3 L187.2,72.7 L189.5,76 L180,81.1 L178.5,77.3 Z M180.2,81.5 L189.7,76.4 L192.5,80.4 L182.1,86.2 L180.2,81.5 Z M182.3,86.7 L192.8,80.9 L196.2,85.9 L184.7,92.5 L182.3,86.7 Z M188.1,101 L184.9,93.1 L196.5,86.4 L201.1,93.1 L188.1,101 Z M202.2,92.4 L197.5,85.8 L207.9,79.8 L213.7,85.4 L202.2,92.4 Z M214.8,85.1 L208.9,79.5 L218.5,80.5 L225.1,85.8 L214.8,85.1 Z M226,86 L219.3,80.7 L227.7,81.6 L234.9,86.7 L226,86 Z M235.7,86.4 L228.4,81.4 L236.6,77.2 L244.5,81.6 L235.7,86.4 Z M237.4,76.9 L245.4,72.8 L253.9,76.6 L245.3,81.2 L237.4,76.9 Z" id="Shape"></path>
                </g>
            </g>
        </g>
    </g>
</svg>