<?xml version="1.0" encoding="UTF-8" standalone="no"?>
<svg width="42px" height="22px" viewBox="0 0 42 22" version="1.1" xmlns="http://www.w3.org/2000/svg" xmlns:xlink="http://www.w3.org/1999/xlink">
    <!-- Generator: sketchtool 47.1 (45422) - http://www.bohemiancoding.com/sketch -->
    <title>23245F88-9571-4856-83E0-9028EEDACD1F</title>
    <desc>Created with sketchtool.</desc>
    <defs></defs>
    <g id="Page-1" stroke="none" stroke-width="1" fill="none" fill-rule="evenodd">
        <g id="main-1280" transform="translate(-884.000000, -37.000000)" fill-rule="nonzero" fill="#FFC735">
            <g id="Group-11" transform="translate(40.000000, 0.000000)">
                <path d="M855.307692,37 C854.415515,37 853.692308,37.7035268 853.692308,38.5714011 L853.692308,57.4284968 C853.692308,58.2963946 854.415515,59 855.307692,59 C856.199869,59 856.923077,58.2963946 856.923077,57.4284968 L856.923077,38.5714011 C856.923077,37.7035268 856.199869,37 855.307692,37 L855.307692,37 Z M874.692308,37 C873.800131,37 873.076923,37.7035268 873.076923,38.5714011 L873.076923,57.4284968 C873.076923,58.2963946 873.800131,59 874.692308,59 C875.584485,59 876.307692,58.2963946 876.307692,57.4284968 L876.307692,38.5714011 C876.307692,37.7035268 875.584485,37 874.692308,37 L874.692308,37 Z M850.461538,40.1428257 C849.569362,40.1428257 848.846154,40.8463525 848.846154,41.7142504 L848.846154,54.2856475 C848.846154,55.1535453 849.569362,55.8570721 850.461538,55.8570721 C851.353715,55.8570721 852.076923,55.1535453 852.076923,54.2856475 L852.076923,41.7142504 C852.076923,40.8463525 851.353715,40.1428257 850.461538,40.1428257 Z M860.153846,40.1428257 C859.261669,40.1428257 858.538462,40.8463525 858.538462,41.7142504 L858.538462,54.2856475 C858.538462,55.1535453 859.261669,55.8570721 860.153846,55.8570721 C861.046023,55.8570721 861.769231,55.1535453 861.769231,54.2856475 L861.769231,41.7142504 C861.769231,40.8463525 861.046023,40.1428257 860.153846,40.1428257 Z M869.846154,40.1428257 C868.953977,40.1428257 868.230769,40.8463525 868.230769,41.7142504 L868.230769,54.2856475 C868.230769,55.1535453 868.953977,55.8570721 869.846154,55.8570721 C870.738331,55.8570721 871.461538,55.1535453 871.461538,54.2856475 L871.461538,41.7142504 C871.461538,40.8463525 870.738331,40.1428257 869.846154,40.1428257 Z M879.538462,40.1428257 C878.646285,40.1428257 877.923077,40.8463525 877.923077,41.7142504 L877.923077,54.2856475 C877.923077,55.1535453 878.646285,55.8570721 879.538462,55.8570721 C880.430638,55.8570721 881.153846,55.1535453 881.153846,54.2856475 L881.153846,41.7142504 C881.153846,40.8463525 880.430638,40.1428257 879.538462,40.1428257 Z M845.615385,43.285675 C844.723208,43.285675 844,43.9892018 844,44.8570996 L844,51.1427982 C844,52.010696 844.723208,52.7142229 845.615385,52.7142229 C846.507562,52.7142229 847.230769,52.010696 847.230769,51.1427982 L847.230769,44.8570996 C847.230769,43.9892018 846.507562,43.285675 845.615385,43.285675 Z M865,43.285675 C864.107823,43.285675 863.384615,43.9892018 863.384615,44.8570996 L863.384615,51.1427982 C863.384615,52.010696 864.107823,52.7142229 865,52.7142229 C865.892177,52.7142229 866.615385,52.010696 866.615385,51.1427982 L866.615385,44.8570996 C866.615385,43.9892018 865.892177,43.285675 865,43.285675 Z M884.384615,43.285675 C883.492438,43.285675 882.769231,43.9892018 882.769231,44.8570996 L882.769231,51.1427982 C882.769231,52.010696 883.492438,52.7142229 884.384615,52.7142229 C885.276792,52.7142229 886,52.010696 886,51.1427982 L886,44.8570996 C886,43.9892018 885.276792,43.285675 884.384615,43.285675 Z" id="Shape"></path>
            </g>
        </g>
    </g>
</svg>