<svg xmlns="http://www.w3.org/2000/svg" width="12" height="21" viewBox="0 0 12 21">
    <g fill="#FFF" fill-rule="nonzero">
        <path d="M5.016 15.045c-1.549-.163-2.946-.548-4.142-1.49-.148-.118-.301-.231-.437-.362-.523-.507-.576-1.087-.162-1.685.355-.512.95-.65 1.568-.355.12.057.233.128.343.204 2.229 1.544 5.29 1.586 7.528.07.221-.172.458-.311.733-.383.534-.138 1.032.06 1.318.53.328.538.323 1.063-.08 1.48-.619.64-1.363 1.104-2.19 1.427-.781.306-1.637.46-2.485.562.128.14.188.209.268.29 1.15 1.165 2.307 2.326 3.454 3.495.39.398.472.892.257 1.355-.235.507-.762.84-1.278.804-.327-.023-.583-.187-.81-.417-.868-.88-1.752-1.745-2.603-2.643-.248-.26-.367-.211-.585.015-.874.907-1.762 1.8-2.655 2.687-.4.399-.878.47-1.343.243-.495-.242-.81-.75-.785-1.262.017-.346.186-.61.421-.847 1.139-1.146 2.274-2.295 3.41-3.443.076-.077.146-.158.255-.275z"/>
        <path d="M5.963 11C3.227 10.99.984 8.498 1 5.488 1.016 2.444 3.26-.008 6.023 0 8.792.008 11.013 2.496 11 5.571c-.014 3.005-2.273 5.44-5.037 5.429zM8.45 5.495C8.445 4 7.36 2.81 6.004 2.81c-1.37-.001-2.463 1.21-2.452 2.718.01 1.49 1.103 2.67 2.464 2.665C7.374 8.187 8.454 6.99 8.45 5.495z"/>
    </g>
</svg>
