<?xml version="1.0" encoding="UTF-8" standalone="no"?>
<svg width="303px" height="341px" viewBox="0 0 303 341" version="1.1" xmlns="http://www.w3.org/2000/svg" xmlns:xlink="http://www.w3.org/1999/xlink">
    <!-- Generator: Sketch 47.1 (45422) - http://www.bohemiancoding.com/sketch -->
    <title>Polygon2</title>
    <desc>Created with Sketch.</desc>
    <defs></defs>
    <g id="Page-1" stroke="none" stroke-width="1" fill="none" fill-rule="evenodd">
        <g id="main-1280" transform="translate(-454.000000, -2535.000000)" fill="#FFFFFF">
            <g id="Group-34" transform="translate(0.000000, 2387.000000)">
                <g id="Group-9" transform="translate(454.000000, 148.000000)">
                    <path d="M166.616623,4.43811406 L287.808312,74.4081679 L287.808312,74.4081679 C297.090344,79.7671517 302.808312,89.6709623 302.808312,100.38893 L302.808312,240.329038 L302.808312,240.329038 C302.808312,251.047005 297.090344,260.950816 287.808312,266.3098 L166.616623,336.279854 L166.616623,336.279854 C157.334591,341.638837 145.898656,341.638837 136.616623,336.279854 L15.4249352,266.3098 L15.4249352,266.3098 C6.14290293,260.950816 0.424935233,251.047005 0.424935233,240.329038 L0.424935233,100.38893 L0.424935233,100.38893 C0.424935233,89.6709623 6.14290293,79.7671517 15.4249352,74.4081679 L136.616623,4.43811406 L136.616623,4.43811406 C145.898656,-0.920869789 157.334591,-0.920869789 166.616623,4.43811406 Z" id="Polygon2"></path>
                </g>
            </g>
        </g>
    </g>
</svg>