<svg xmlns="http://www.w3.org/2000/svg" width="80" height="82" viewBox="0 0 80 82">
    <g fill="none" fill-rule="evenodd">
        <path fill="#FFF" d="M44.823 1.3l30.4 17.665a9.6 9.6 0 0 1 4.777 8.3V72.33a9.6 9.6 0 0 1-9.6 9.6H9.6a9.6 9.6 0 0 1-9.6-9.6V27.265a9.6 9.6 0 0 1 4.777-8.3L35.177 1.3a9.6 9.6 0 0 1 9.646 0z"/>
        <path fill="#86BD3E" d="M37.574 26.394c-.28-.807-.52-1.303-.658-1.303-.137 0-.378.496-.657 1.303-.4 1.152-.658 2.762-.688 4.566a1.03 1.03 0 0 1-.3.754 1.07 1.07 0 0 1-1.497.019c-1.333-1.274-2.68-2.243-3.79-2.78-.78-.377-1.308-.56-1.407-.463-.098.097.09.617.47 1.384.546 1.092 1.53 2.419 2.825 3.731l-.001.001c.184.185.297.436.3.714a1.048 1.048 0 0 1-1.045 1.054c-1.85.026-3.5.28-4.68.677-.819.276-1.323.512-1.323.647 0 .136.504.373 1.325.648 1.17.392 2.806.646 4.639.676.275-.007.553.091.766.295.417.402.427 1.062.02 1.474-1.295 1.313-2.28 2.638-2.826 3.731-.38.767-.568 1.286-.47 1.384.1.097.628-.086 1.407-.464 1.109-.535 2.457-1.505 3.79-2.779h.001c.188-.18.443-.291.726-.295a1.05 1.05 0 0 1 1.07 1.03c.027 1.82.286 3.444.688 4.604.279.808.52 1.303.657 1.303.138 0 .378-.495.658-1.303.4-1.151.657-2.76.686-4.563-.006-.271.094-.546.3-.757a1.073 1.073 0 0 1 1.499-.019c1.333 1.274 2.68 2.243 3.79 2.78.78.377 1.306.56 1.406.463.099-.098-.089-.617-.47-1.384-.545-1.092-1.53-2.418-2.826-3.73l.002-.002a1.024 1.024 0 0 1-.3-.714 1.05 1.05 0 0 1 1.046-1.054c1.848-.026 3.5-.281 4.679-.676.818-.275 1.322-.512 1.322-.648 0-.135-.504-.371-1.322-.647-1.171-.393-2.807-.647-4.638-.676a1.072 1.072 0 0 1-.768-.296 1.032 1.032 0 0 1-.02-1.474c1.295-1.312 2.28-2.639 2.825-3.73.381-.768.569-1.288.47-1.385-.1-.097-.627.086-1.406.463-1.11.537-2.457 1.506-3.79 2.78h-.001c-.188.18-.442.291-.726.295a1.051 1.051 0 0 1-1.07-1.03c-.027-1.819-.286-3.444-.688-4.604zm8.95 39.324a9.545 9.545 0 0 1-3.46-.523v-.002a1.04 1.04 0 0 1-.705-.95 9.762 9.762 0 0 1 .576-3.648c.739-2.055 2.125-3.833 3.865-5.109 1.744-1.281 3.851-2.067 6.028-2.137a9.56 9.56 0 0 1 3.462.524v.001c.399.138.691.507.705.95a9.788 9.788 0 0 1-.578 3.648c-.737 2.055-2.125 3.832-3.864 5.11-1.743 1.28-3.852 2.067-6.03 2.136zm-2.038-2.282a7.845 7.845 0 0 1 .449-2.146c.594-1.654 1.72-3.09 3.135-4.13 1.41-1.036 3.1-1.673 4.825-1.728a7.465 7.465 0 0 1 1.973.198 7.844 7.844 0 0 1-.45 2.147c-.594 1.653-1.72 3.091-3.135 4.13-1.411 1.037-3.1 1.673-4.826 1.728a7.457 7.457 0 0 1-1.971-.199zm-7.943-3.276c-1.011-.28-1.914-.899-2.594-1.714-.684-.82-1.137-1.833-1.243-2.896a4.753 4.753 0 0 1 .009-1.02c.293.024.58.075.862.153 1.011.28 1.914.899 2.593 1.714.683.82 1.137 1.835 1.243 2.9l.004.025c.029.325.027.657-.012.99a4.539 4.539 0 0 1-.862-.152zm1.769 2.227a6.579 6.579 0 0 1-2.34-.219c-1.437-.397-2.71-1.264-3.657-2.399-.943-1.13-1.568-2.537-1.716-4.023a6.732 6.732 0 0 1 .224-2.527c.126-.45.534-.747.985-.763.81-.07 1.598.011 2.34.217 1.438.4 2.71 1.265 3.656 2.4.943 1.13 1.568 2.535 1.718 4.02l.001.03a6.72 6.72 0 0 1-.226 2.501c-.128.45-.535.747-.985.763zm2.777 2.914c1.268-3.554 1.774-7.427 1.641-11.299a37.424 37.424 0 0 0-1.309-8.553 13.05 13.05 0 0 0 1.499.864c1.623.785 3.023.871 3.836.07.814-.798.727-2.178-.071-3.775-.405-.81-.999-1.714-1.745-2.638 1.194-.133 2.263-.357 3.125-.647 1.715-.576 2.768-1.492 2.768-2.625 0-1.132-1.053-2.05-2.768-2.623-.862-.29-1.93-.516-3.125-.647.746-.926 1.34-1.83 1.745-2.64.798-1.597.885-2.975.071-3.776-.812-.799-2.213-.715-3.836.071-.823.398-1.741.983-2.681 1.717-.135-1.175-.362-2.227-.656-3.076C38.998 24.037 38.067 23 36.916 23c-1.15 0-2.082 1.037-2.666 2.724-.295.849-.521 1.9-.658 3.076-.938-.734-1.856-1.319-2.68-1.717-1.622-.786-3.024-.871-3.836-.07-.813.8-.727 2.178.07 3.776.405.81 1 1.713 1.747 2.639-1.195.131-2.262.356-3.126.646-1.715.575-2.767 1.492-2.767 2.624 0 1.133 1.052 2.05 2.767 2.625.864.29 1.931.514 3.126.647-.747.924-1.342 1.827-1.746 2.638-.798 1.597-.884 2.977-.07 3.776.811.8 2.213.714 3.836-.07.823-.399 1.74-.984 2.68-1.718.136 1.175.362 2.228.657 3.076.584 1.688 1.516 2.724 2.666 2.724s2.082-1.036 2.667-2.724c.041-.123.084-.25.124-.382.517 2.213.83 4.496.907 6.777.124 3.628-.346 7.243-1.526 10.547a1.037 1.037 0 0 0 .652 1.327 1.064 1.064 0 0 0 1.349-.64zm-3.09-29.67a1.537 1.537 0 0 0-1.083-.442c-.423 0-.806.17-1.083.443l-.003-.003c-.275.273-.447.65-.447 1.07 0 .416.172.794.45 1.066l-.003.002.003.003c.275.27.657.437 1.083.437.406 0 .771-.151 1.043-.4l.04-.042a1.497 1.497 0 0 0 .043-2.094c-.014-.013-.029-.026-.042-.04zm-1.083-2.533a3.68 3.68 0 0 1 2.586 1.055c.021.022.043.044.064.068a3.554 3.554 0 0 1-.064 5.023 1.735 1.735 0 0 1-.07.062 3.671 3.671 0 0 1-2.516.991 3.676 3.676 0 0 1-2.583-1.056l-.003.003a3.563 3.563 0 0 1-1.071-2.546c0-.991.41-1.89 1.071-2.542l.003-.001-.003-.002a3.68 3.68 0 0 1 2.586-1.055z"/>
    </g>
</svg>
