<svg xmlns="http://www.w3.org/2000/svg" width="80" height="82" viewBox="0 0 80 82">
    <g fill="none" fill-rule="evenodd">
        <path fill="#FFF" d="M44.823 1.3l30.4 17.665a9.6 9.6 0 0 1 4.777 8.3V72.33a9.6 9.6 0 0 1-9.6 9.6H9.6a9.6 9.6 0 0 1-9.6-9.6V27.265a9.6 9.6 0 0 1 4.777-8.3L35.177 1.3a9.6 9.6 0 0 1 9.646 0z"/>
        <path fill="#86BD3E" d="M56.148 45.538a9.716 9.716 0 0 1 2.777 6.828 9.718 9.718 0 0 1-2.777 6.827 9.393 9.393 0 0 1-5.668 2.77v-4.42l5.2-5.294a1.07 1.07 0 0 0 0-1.494 1.023 1.023 0 0 0-1.467 0l-3.733 3.801v-7.64c0-.584-.463-1.058-1.038-1.058-.572 0-1.037.474-1.037 1.057v7.641l-3.733-3.8a1.024 1.024 0 0 0-1.467 0 1.072 1.072 0 0 0 0 1.493l5.2 5.295v4.42a9.39 9.39 0 0 1-5.666-2.771 9.713 9.713 0 0 1-2.777-6.827 9.71 9.71 0 0 1 2.777-6.828 9.365 9.365 0 0 1 6.703-2.828 9.368 9.368 0 0 1 6.706 2.828zm-24.8 13.633c-3.087-.389-5.837-2.5-7.858-5.716-2.155-3.433-3.49-8.15-3.49-13.337 0-5.187 1.335-9.904 3.49-13.336C25.736 23.21 28.877 21 32.387 21c3.509 0 6.652 2.21 8.896 5.782 2.156 3.432 3.49 8.149 3.49 13.336 0 .462-.015.973-.044 1.5a11.327 11.327 0 0 1 4.713-1.02c3.192 0 6.082 1.317 8.172 3.446A11.84 11.84 0 0 1 61 52.366c0 3.249-1.294 6.191-3.386 8.321a11.433 11.433 0 0 1-7.134 3.4v1.8h4.848c.573 0 1.038.473 1.038 1.056 0 .584-.465 1.057-1.038 1.057H26.084a1.047 1.047 0 0 1-1.038-1.057c0-.583.464-1.056 1.038-1.056h5.265V59.17zm4.083-2.852a7.032 7.032 0 0 1-2.006.71v-7.303l5.713-5.819a1.068 1.068 0 0 0 0-1.493 1.023 1.023 0 0 0-1.467 0l-4.246 4.324v-6.91l5.713-5.818a1.07 1.07 0 0 0 0-1.494 1.025 1.025 0 0 0-1.467 0l-4.246 4.325v-8.125c0-.582-.465-1.056-1.038-1.056-.572 0-1.038.474-1.038 1.056v8.125l-4.247-4.325a1.025 1.025 0 0 0-1.466 0 1.072 1.072 0 0 0 0 1.494l5.713 5.819v6.91l-4.247-4.325a1.023 1.023 0 0 0-1.466 0 1.07 1.07 0 0 0 0 1.493l5.713 5.819v7.31c-2.352-.396-4.489-2.123-6.115-4.712-1.952-3.104-3.158-7.419-3.158-12.206s1.206-9.101 3.158-12.206c1.862-2.966 4.394-4.799 7.153-4.799 2.759 0 5.29 1.833 7.154 4.799 1.951 3.105 3.157 7.42 3.157 12.206 0 .53-.016 1.072-.047 1.587-.024.406-.057.816-.094 1.21a11.85 11.85 0 0 0-1.286 1.13 11.84 11.84 0 0 0-3.385 8.32c0 .658.053 1.302.154 1.93-.792.84-1.674 1.533-2.609 2.024zm3.228.282a11.638 11.638 0 0 1-2.279 1.593c-.947.496-1.94.833-2.955.971v6.722h14.98v-1.8a11.435 11.435 0 0 1-7.134-3.4 11.8 11.8 0 0 1-2.612-4.086z"/>
    </g>
</svg>
