<svg xmlns="http://www.w3.org/2000/svg" width="80" height="82" viewBox="0 0 80 82">
    <g fill="none" fill-rule="evenodd">
        <path fill="#FFF" d="M44.823 1.3l30.4 17.665a9.6 9.6 0 0 1 4.777 8.3V72.33a9.6 9.6 0 0 1-9.6 9.6H9.6a9.6 9.6 0 0 1-9.6-9.6V27.265a9.6 9.6 0 0 1 4.777-8.3L35.177 1.3a9.6 9.6 0 0 1 9.646 0z"/>
        <path fill="#86BD3E" fill-rule="nonzero" d="M40.5 27c-2.84 0-5.167 2.34-5.167 5.185 0 2.844 2.327 5.173 5.167 5.173s5.167-2.33 5.167-5.173C45.667 29.34 43.34 27 40.5 27zm0 2.229a2.938 2.938 0 0 1 2.952 2.956 2.928 2.928 0 0 1-2.952 2.944 2.928 2.928 0 0 1-2.952-2.944 2.938 2.938 0 0 1 2.952-2.956zm13.551 4.422c-4.602-.054-9.122 2.224-13.551 5.681-4.429-3.457-8.488-5.674-14.474-5.635-.552.04-1.027.554-1.026 1.109v19.203c0 .53.433 1.025.957 1.097 5.04.703 8.84 2.082 13.897 5.693.374.268.918.268 1.292 0 5.057-3.611 8.856-4.99 13.897-5.693.524-.072.956-.567.957-1.097V34.806c.001-.555-.474-1.068-1.026-1.109-.31-.023-.616-.042-.923-.046zm-14.231 7.91c.385.3.975.3 1.36 0 4.684-3.662 8.572-5.634 12.606-5.658v17.194c-4.633.759-8.636 2.267-13.286 5.473-4.65-3.206-8.653-4.714-13.286-5.473V35.903c4.429-.028 9.205 3.054 12.606 5.658z"/>
    </g>
</svg>
