<svg xmlns="http://www.w3.org/2000/svg" width="80" height="82" viewBox="0 0 80 82">
    <g fill="none" fill-rule="evenodd">
        <path fill="#FFF" d="M44.823 1.3l30.4 17.665a9.6 9.6 0 0 1 4.777 8.3V72.33a9.6 9.6 0 0 1-9.6 9.6H9.6a9.6 9.6 0 0 1-9.6-9.6V27.265a9.6 9.6 0 0 1 4.777-8.3L35.177 1.3a9.6 9.6 0 0 1 9.646 0z"/>
        <path fill="#86BD3E" d="M40.5 49.464c-.691 0-1.25.565-1.25 1.262 0 .697.559 1.262 1.25 1.262.692 0 1.25-.565 1.25-1.262 0-.697-.558-1.262-1.25-1.262zm3.494-11.9a4.907 4.907 0 0 0-6.987 0 4.998 4.998 0 0 0-1.448 3.527c0 1.378.553 2.625 1.448 3.526a4.907 4.907 0 0 0 6.987 0 4.991 4.991 0 0 0 1.448-3.526 4.998 4.998 0 0 0-1.448-3.527zM40.5 34.002c-1.94 0-3.696.794-4.968 2.076a7.102 7.102 0 0 0-2.057 5.013 7.1 7.1 0 0 0 2.057 5.013A6.971 6.971 0 0 0 40.5 48.18a6.97 6.97 0 0 0 4.968-2.076 7.1 7.1 0 0 0 2.056-5.013 7.102 7.102 0 0 0-2.056-5.013 6.975 6.975 0 0 0-4.968-2.076zm0-8.666L29.033 33.58l4.584 22.178h13.767l4.584-22.178L40.5 25.336zm-16.858 12.12a1.034 1.034 0 0 1-1.45-.246 1.055 1.055 0 0 1 .245-1.462l17.461-12.554c.375-.27.87-.252 1.222.012l17.444 12.542c.467.335.576.99.244 1.462a1.033 1.033 0 0 1-1.449.246l-3.543-2.547-4.309 20.849h1.555c.576 0 1.042.47 1.042 1.052 0 .58-.466 1.05-1.042 1.05h-7.6v8.089c0 .581-.467 1.051-1.041 1.051-.576 0-1.042-.47-1.042-1.051v-8.088h-1.758v8.088c0 .581-.465 1.051-1.041 1.051-.576 0-1.043-.47-1.043-1.051v-8.088H29.94a1.046 1.046 0 0 1-1.042-1.051c0-.581.466-1.052 1.042-1.052h1.553l-4.308-20.849-3.542 2.547z"/>
    </g>
</svg>
