<?xml version="1.0" encoding="UTF-8" standalone="no"?>
<svg width="80px" height="90px" viewBox="0 0 80 90" version="1.1" xmlns="http://www.w3.org/2000/svg" xmlns:xlink="http://www.w3.org/1999/xlink">
    <!-- Generator: sketchtool 47.1 (45422) - http://www.bohemiancoding.com/sketch -->
    <title>6F24D1CA-E79C-48B7-B783-CC617BD62052</title>
    <desc>Created with sketchtool.</desc>
    <defs></defs>
    <g id="Page-1" stroke="none" stroke-width="1" fill="none" fill-rule="evenodd">
        <g id="main-1280" transform="translate(-600.000000, -5659.000000)">
            <g id="Group-25" transform="translate(600.000000, 5659.000000)">
                <path d="M44.8232707,1.29963498 L75.2232707,18.9648135 L75.2232707,18.9648135 C78.1804,20.6831759 80,23.8450348 80,27.2651785 L80,62.7031931 L80,62.7031931 C80,66.1233368 78.1804,69.2851957 75.2232707,71.0035581 L44.8232707,88.6687366 L44.8232707,88.6687366 C41.8412155,90.4015833 38.1587845,90.4015833 35.1767293,88.6687366 L4.77672927,71.0035581 L4.77672927,71.0035581 C1.81959999,69.2851957 3.73034936e-14,66.1233368 3.19744231e-14,62.7031931 L1.50990331e-14,27.2651785 L1.77635684e-14,27.2651785 C1.59872116e-14,23.8450348 1.81959999,20.6831759 4.77672927,18.9648135 L35.1767293,1.29963498 L35.1767293,1.29963498 C38.1587845,-0.433211659 41.8412155,-0.433211659 44.8232707,1.29963498 Z" id="Combined-Shape" fill="#FFFFFF"></path>
                <path d="M49.9000686,28.1172218 C52.4329791,30.6620191 54,34.1767794 54,38.0590412 C54,44.2390911 47.0251971,56.646183 43.4136099,63.0623978 C43.404011,63.0816766 43.3932122,63.1009553 43.3836133,63.1202341 C43.2576277,63.3431448 43.1268426,63.5768999 42.633699,64.4576986 C42.3481316,64.967381 41.9485773,65.3517514 41.4902297,65.6108099 C41.0294823,65.8698683 40.5123414,66 40,66 C39.4876586,66 38.9705177,65.8698683 38.5097703,65.6108099 C38.0514227,65.3517514 37.6518684,64.967381 37.366301,64.4576986 C36.8731574,63.5768999 36.7423723,63.3431448 36.6163867,63.1202341 L36.6187864,63.1190292 L36.6163867,63.1166193 C33.0143984,56.7160685 26,44.2559601 26,38.0590412 C26,34.1767794 27.5670209,30.6620191 30.0999314,28.1172218 C32.6340418,25.5736294 36.1340418,24 40,24 C43.8647583,24 47.3659582,25.5736294 49.9000686,28.1172218 Z M33.9742887,42.9594629 C33.8495029,42.3533867 33.7943092,41.7473104 33.8039081,41.1617179 C33.8243058,39.8965488 34.1482688,38.7422326 34.732602,37.9108357 C36.3008228,35.6708839 39.1780939,35.1913246 41.7458005,34.7635769 C43.1952348,34.5225923 44.5594789,34.2948619 45.6885499,33.7912041 C46.0833048,35.7383596 45.9789167,37.578277 45.4713747,39.1832344 C45.0550223,40.5002152 44.3639013,41.6653757 43.4532053,42.6016008 C42.5509085,43.5281866 41.4302365,44.2318616 40.1415838,44.6379206 C38.7125471,45.0897668 37.0747343,45.1777261 35.2989373,44.8090197 C35.397326,44.6343059 35.4993144,44.460797 35.6037024,44.2896979 C37.1527254,41.7810483 39.4852588,39.783286 42.3613301,38.8639298 C42.9108673,38.6892159 43.2144326,38.1012135 43.0404525,37.5493588 C42.8664724,36.998709 42.2809393,36.6938635 41.7314021,36.8685773 C38.4449777,37.9192702 35.7728831,40.1519924 33.9742887,42.9594629 Z M51.9062393,38.0590412 C51.9062393,34.7563474 50.5743915,31.7681384 48.4194378,29.6040967 C46.2656839,27.4400551 43.2888241,26.1013857 40,26.1013857 C36.7111759,26.1013857 33.7355159,27.4400551 31.5805622,29.6040967 C29.4256085,31.7681384 28.0925609,34.7563474 28.0925609,38.0590412 C28.0925609,40.7436096 29.6271855,44.8801102 31.6153582,49.1539719 C31.8121358,47.9201308 32.1528968,46.7103882 32.6244429,45.5572769 C31.9837161,44.1113693 31.6945492,42.5714778 31.7173466,41.129185 C31.7461433,39.4459076 32.2008913,37.874688 33.0227974,36.702298 C35.0937607,33.7466219 38.4329791,33.1899475 41.4110387,32.6947242 C43.1892355,32.3983131 44.8186493,32.1272054 45.6453548,31.3765384 C46.0713061,30.9885532 46.7312307,31.0210862 47.1163867,31.4500387 C47.2219746,31.5669163 47.2963661,31.7006627 47.3395612,31.8416387 L47.3419609,31.8404338 C48.2370586,34.6973061 48.2070621,37.4505551 47.4595475,39.8158189 C46.9412067,41.4521043 46.0821049,42.8992168 44.9494344,44.0643773 C43.805965,45.2391772 42.388927,46.1284104 40.7643126,46.6417075 C38.8817278,47.2357346 36.7219746,47.322489 34.3990401,46.7513555 C33.6431265,48.7696015 33.3443606,50.9649712 33.5975317,53.1181685 C33.6011313,53.1507014 33.603531,53.1820294 33.6047309,53.2121525 C35.3229345,56.5666581 37.1119301,59.742835 38.4305794,62.0864102 L38.4317792,62.0852053 L39.1900926,63.4311042 C39.2776826,63.5865393 39.396469,63.7022119 39.5320535,63.779327 C39.6724374,63.857647 39.8356188,63.8986143 40,63.8986143 C40.1643812,63.8986143 40.3275626,63.857647 40.4679465,63.779327 C40.603531,63.7022119 40.7223174,63.5865393 40.8099074,63.4311042 L41.5670209,62.0852053 C41.5778197,62.0683363 41.5886184,62.0502625 41.5994172,62.0321887 C45.1174152,55.7834581 51.9062393,43.7065152 51.9062393,38.0590412 L51.9062393,38.0590412 Z" id="Fill-15" fill="#FECE00"></path>
            </g>
        </g>
    </g>
</svg>