<svg xmlns="http://www.w3.org/2000/svg" width="80" height="82" viewBox="0 0 80 82">
    <g fill="none" fill-rule="evenodd">
        <path fill="#FFF" d="M44.823 1.3l30.4 17.665a9.6 9.6 0 0 1 4.777 8.3V72.33a9.6 9.6 0 0 1-9.6 9.6H9.6a9.6 9.6 0 0 1-9.6-9.6V27.265a9.6 9.6 0 0 1 4.777-8.3L35.177 1.3a9.6 9.6 0 0 1 9.646 0z"/>
        <path fill="#86BD3E" d="M49.9 28.117A14.05 14.05 0 0 1 54 38.06c0 6.18-6.975 18.587-10.586 25.003l-.03.058-.75 1.338A2.993 2.993 0 0 1 40 66a2.993 2.993 0 0 1-2.634-1.542l-.75-1.338.003-.001-.003-.002C33.014 56.717 26 44.256 26 38.059a14.05 14.05 0 0 1 4.1-9.942A13.931 13.931 0 0 1 40 24c3.865 0 7.366 1.574 9.9 4.117zM33.974 42.96a8.267 8.267 0 0 1-.17-1.797c.02-1.265.344-2.42.929-3.251 1.568-2.24 4.445-2.72 7.013-3.147 1.45-.241 2.813-.47 3.943-.973.394 1.947.29 3.787-.218 5.392a8.597 8.597 0 0 1-2.018 3.419 7.921 7.921 0 0 1-3.311 2.036c-1.43.452-3.067.54-4.843.171.098-.175.2-.348.305-.52 1.549-2.508 3.881-4.506 6.757-5.425a1.047 1.047 0 0 0-.63-1.995c-3.286 1.05-5.958 3.283-7.757 6.09zm17.932-4.9c0-3.303-1.332-6.29-3.487-8.455A11.841 11.841 0 0 0 40 26.101a11.843 11.843 0 0 0-8.42 3.503 11.943 11.943 0 0 0-3.487 8.455c0 2.685 1.534 6.821 3.522 11.095a16.297 16.297 0 0 1 1.01-3.597 10.605 10.605 0 0 1-.908-4.428c.03-1.683.484-3.254 1.306-4.427 2.07-2.955 5.41-3.512 8.388-4.007 1.778-.297 3.408-.568 4.234-1.318a1.037 1.037 0 0 1 1.695.465l.002-.002c.895 2.857.865 5.61.118 7.976-.519 1.636-1.378 3.083-2.51 4.248a10.026 10.026 0 0 1-4.186 2.578c-1.882.594-4.042.68-6.365.11-.756 2.018-1.055 4.213-.801 6.366.003.033.006.064.007.094 1.718 3.355 3.507 6.53 4.826 8.874l.76 1.345a.907.907 0 0 0 .341.348.965.965 0 0 0 .936 0 .907.907 0 0 0 .342-.348l.757-1.346.032-.053c3.518-6.249 10.307-18.325 10.307-23.973z"/>
    </g>
</svg>
