<svg width="153px" height="23px" viewBox="0 0 153 23" version="1.1" xmlns="http://www.w3.org/2000/svg" xmlns:xlink="http://www.w3.org/1999/xlink">
    <g id="Symbols" stroke="none" stroke-width="1" fill="none" fill-rule="evenodd">
        <g id="footer" transform="translate(-1087.000000, -30.000000)" fill="#000000">
            <g id="Page-1">
                <g transform="translate(1086.000000, 30.000000)">
                    <path d="M65.8121353,3 L67.4035344,4.59172472 L77.6386104,4.59172472 L79.2300095,3 L65.8121353,3 Z M83.4086009,10.6826804 L83.4086009,21.4085769 L77.792714,21.4085769 L77.792714,23 L85,23 L85,9.09125728 L83.4086009,10.6826804 Z M65,23 L73.9506778,23 L72.3592786,21.4085769 L66.5917007,21.4085769 L66.5917007,15.640912 L65,14.0494888 L65,23 Z" id="Fill-1"></path>
                    <path d="M85,0 L76.2011822,8.60457751 L76.2011822,15.8021413 L85,7.19726888 L85,0 Z M65,12.0464675 L76.2011822,23 L76.2011822,15.8024362 L65,4.84919862 L65,12.0464675 Z" id="Fill-2"></path>
                    <path d="M91.0833856,9.67768595 L91.1636364,10.6570248 C91.4846411,10.2603286 91.832391,9.97727357 92.2068966,9.80785124 C92.5814021,9.6384289 93.009402,9.55371901 93.4909091,9.55371901 C93.9545826,9.55371901 94.3424575,9.61776795 94.6545455,9.74586777 C94.9666334,9.87396758 95.2653417,10.1074363 95.5506792,10.446281 L94.708046,11.1528926 C94.5207932,10.9380155 94.3112516,10.7789261 94.0794148,10.6756198 C93.8475781,10.5723135 93.6068281,10.5206612 93.3571578,10.5206612 C92.8578171,10.5206612 92.4521088,10.6115693 92.1400209,10.7933884 C91.827933,10.9752075 91.5292247,11.2520643 91.2438871,11.6239669 L91.2438871,15.8760331 L90,15.8760331 L90,9.67768595 L91.0833856,9.67768595 Z M97.8110763,9.67768595 L97.8110763,15.8760331 L96.5671891,15.8760331 L96.5671891,9.67768595 L97.8110763,9.67768595 Z M97.1958203,7 C97.472241,7 97.686241,7.07644552 97.8378265,7.22933884 C97.9894121,7.38223217 98.0652038,7.56611463 98.0652038,7.78099174 C98.0652038,7.98760434 97.9894121,8.1694207 97.8378265,8.32644628 C97.686241,8.48347186 97.472241,8.56198347 97.1958203,8.56198347 C96.9193995,8.56198347 96.7053996,8.48347186 96.553814,8.32644628 C96.4022284,8.1694207 96.3264368,7.98760434 96.3264368,7.78099174 C96.3264368,7.56611463 96.4022284,7.38223217 96.553814,7.22933884 C96.7053996,7.07644552 96.9193995,7 97.1958203,7 Z M100.365726,9.67768595 L102.692999,14.8966942 L102.746499,14.8966942 L105.154023,9.67768595 L106.438036,9.67768595 L103.388506,15.8760331 L101.943992,15.8760331 L99.014838,9.67768595 L100.365726,9.67768595 Z M108.591432,13.0619835 C108.618182,13.4008281 108.70289,13.6962797 108.845559,13.9483471 C108.988228,14.2004145 109.175478,14.407024 109.407315,14.5681818 C109.639151,14.7293396 109.904422,14.8491732 110.203135,14.927686 C110.501848,15.0061987 110.811702,15.0454545 111.132706,15.0454545 C111.605297,15.0454545 112.022151,15.0103309 112.383281,14.9400826 C112.744411,14.8698344 113.098849,14.7438026 113.446604,14.5619835 L113.807732,15.5041322 C113.584813,15.6033063 113.373042,15.683884 113.172414,15.7458678 C112.971786,15.8078515 112.764473,15.8574378 112.55047,15.8946281 C112.336467,15.9318184 112.106863,15.9586776 111.861651,15.9752066 C111.616439,15.9917356 111.34671,16 111.052456,16 C110.446113,16 109.911113,15.9256206 109.44744,15.7768595 C108.983766,15.6280984 108.593662,15.4132245 108.277116,15.1322314 C107.96057,14.8512383 107.71982,14.5123987 107.554859,14.1157025 C107.389898,13.7190063 107.307419,13.2768619 107.307419,12.7892562 C107.307419,12.309915 107.398815,11.8698367 107.581609,11.4690083 C107.764404,11.0681798 108.020758,10.7272741 108.350679,10.446281 C108.680601,10.1652879 109.066246,9.94628178 109.507628,9.7892562 C109.94901,9.63223062 110.432739,9.55371901 110.95883,9.55371901 C111.493838,9.55371901 111.957504,9.61776795 112.349843,9.74586777 C112.742182,9.87396758 113.067641,10.0516518 113.326228,10.2789256 C113.584815,10.5061995 113.776523,10.7768579 113.901358,11.0909091 C114.026194,11.4049602 114.08861,11.747932 114.08861,12.1198347 C114.08861,12.2933893 114.079694,12.4524786 114.06186,12.5971074 C114.044026,12.7417363 114.012818,12.8966934 113.968234,13.0619835 L108.591432,13.0619835 Z M112.884848,12.1694215 C112.875932,11.5578482 112.710973,11.1239682 112.389969,10.8677686 C112.068964,10.611569 111.547339,10.4834711 110.825078,10.4834711 C110.557574,10.4834711 110.292304,10.5185947 110.029258,10.588843 C109.766213,10.6590913 109.53215,10.7644621 109.327064,10.9049587 C109.121977,11.0454552 108.950332,11.2210733 108.812121,11.4318182 C108.673911,11.642563 108.591432,11.8884283 108.564681,12.1694215 L112.884848,12.1694215 Z M116.576385,9.67768595 L116.656635,10.6570248 C116.97764,10.2603286 117.32539,9.97727357 117.699896,9.80785124 C118.074401,9.6384289 118.502401,9.55371901 118.983908,9.55371901 C119.447582,9.55371901 119.835456,9.61776795 120.147544,9.74586777 C120.459632,9.87396758 120.758341,10.1074363 121.043678,10.446281 L120.201045,11.1528926 C120.013792,10.9380155 119.804251,10.7789261 119.572414,10.6756198 C119.340577,10.5723135 119.099827,10.5206612 118.850157,10.5206612 C118.350816,10.5206612 117.945108,10.6115693 117.63302,10.7933884 C117.320932,10.9752075 117.022224,11.2520643 116.736886,11.6239669 L116.736886,15.8760331 L115.492999,15.8760331 L115.492999,9.67768595 L116.576385,9.67768595 Z M126.621108,10.8305785 C126.273352,10.6818174 125.941207,10.5805788 125.62466,10.5268595 C125.308114,10.4731402 124.967052,10.446281 124.601463,10.446281 C124.012954,10.446281 123.587183,10.5227265 123.324138,10.6756198 C123.061092,10.8285132 122.929572,11.0247922 122.929572,11.2644628 C122.929572,11.5702495 123.078926,11.7789251 123.377638,11.8904959 C123.676351,12.0020667 124.119955,12.0867766 124.708464,12.1446281 C125.546643,12.2272731 126.19533,12.4152878 126.654545,12.7086777 C127.113761,13.0020676 127.343365,13.466939 127.343365,14.1033058 C127.343365,14.7479371 127.058031,15.2252051 126.487356,15.535124 C125.916681,15.8450429 125.140931,16 124.160084,16 C123.66966,16 123.239431,15.9690086 122.869383,15.9070248 C122.499336,15.845041 122.118149,15.735538 121.72581,15.5785124 L122.033438,14.6363636 C122.693281,14.9256213 123.384322,15.0702479 124.106583,15.0702479 C125.488687,15.0702479 126.179728,14.7438049 126.179728,14.0909091 C126.179728,13.9338835 126.14852,13.8016534 126.086102,13.6942149 C126.023685,13.5867763 125.921143,13.4979342 125.778474,13.427686 C125.635806,13.3574377 125.448556,13.299587 125.216719,13.2541322 C124.984882,13.2086775 124.695091,13.1694217 124.347335,13.1363636 C123.473489,13.0537186 122.822573,12.8760344 122.394566,12.6033058 C121.96656,12.3305771 121.75256,11.913226 121.75256,11.3512397 C121.75256,11.1033045 121.810518,10.8698358 121.926437,10.6508264 C122.042355,10.4318171 122.218459,10.2417363 122.454754,10.0805785 C122.69105,9.91942068 122.989758,9.79132279 123.350888,9.69628099 C123.712019,9.60123919 124.133331,9.55371901 124.614838,9.55371901 C124.855592,9.55371901 125.076279,9.55991729 125.276907,9.57231405 C125.477535,9.58471081 125.671472,9.60537176 125.858725,9.63429752 C126.045978,9.66322329 126.233228,9.70247909 126.420481,9.75206612 C126.607733,9.80165314 126.8039,9.86363599 127.008986,9.93801653 L126.621108,10.8305785 Z M128.105747,10.0619835 L129.015256,9.52892562 L129.991641,8.12809917 L130.40627,8.19008264 L130.40627,9.67768595 L133.067921,9.67768595 L133.027795,10.6322314 L130.40627,10.5206612 L130.40627,13.7809917 C130.40627,14.2520685 130.522186,14.5867759 130.754023,14.785124 C130.98586,14.9834721 131.284568,15.0826446 131.650157,15.0826446 C131.944411,15.0826446 132.209682,15.0454549 132.445977,14.9710744 C132.682272,14.8966938 132.925251,14.7892569 133.174922,14.6487603 L133.576176,15.4793388 C133.299755,15.6611579 132.998817,15.793388 132.673354,15.8760331 C132.347891,15.9586781 131.962245,16 131.516405,16 C130.749561,16 130.16329,15.8140514 129.757576,15.4421488 C129.351861,15.0702461 129.149007,14.5206648 129.149007,13.7933884 L129.149007,10.6322314 L128.105747,10.4958678 L128.105747,10.0619835 Z M134.766562,10.0991736 C135.265903,9.90908996 135.72734,9.77066159 136.150888,9.6838843 C136.574436,9.597107 137.062623,9.55371901 137.615465,9.55371901 C138.60523,9.55371901 139.334167,9.7231388 139.802299,10.0619835 C140.270431,10.4008281 140.504493,10.9504094 140.504493,11.7107438 L140.504493,14.3016529 C140.504493,14.599175 140.557993,14.7995863 140.664995,14.9028926 C140.771996,15.0061989 140.994913,15.0578512 141.333751,15.0578512 L141.333751,15.8760331 C141.182166,15.9173556 141.041728,15.948347 140.912435,15.9690083 C140.783141,15.9896695 140.629329,16 140.450993,16 C140.174572,16 139.956114,15.9090918 139.795611,15.7272727 C139.635109,15.5454536 139.541484,15.2975222 139.514734,14.9834711 C138.899474,15.6611604 137.981058,16 136.759457,16 C135.974778,16 135.379591,15.8305802 134.973877,15.4917355 C134.568162,15.1528909 134.365308,14.6900856 134.365308,14.1033058 C134.365308,13.8223126 134.412121,13.5661169 134.505747,13.3347107 C134.599374,13.1033046 134.762103,12.8677698 134.993939,12.6280992 C135.297111,12.5454541 135.602506,12.4710747 135.910136,12.4049587 C136.217765,12.3388426 136.545453,12.2851242 136.893208,12.2438017 C137.240963,12.2024791 137.611005,12.1694216 138.003344,12.1446281 C138.395683,12.1198346 138.828141,12.1033058 139.300731,12.0950413 L139.300731,11.7479339 C139.300731,11.3181797 139.173669,11.0041332 138.91954,10.8057851 C138.665411,10.607437 138.212891,10.5082645 137.561964,10.5082645 C136.723785,10.5082645 135.881161,10.6776843 135.034065,11.0165289 L134.766562,10.0991736 Z M139.300731,12.9256198 C138.52497,12.9421488 137.871824,12.9814046 137.341275,13.0433884 C136.810725,13.1053722 136.326996,13.1900821 135.890073,13.2975207 C135.711737,13.4958688 135.622571,13.7438002 135.622571,14.0413223 C135.622571,14.380167 135.736258,14.6342967 135.963636,14.803719 C136.191015,14.9731413 136.514244,15.0578512 136.933333,15.0578512 C137.379173,15.0578512 137.791569,14.9958684 138.170533,14.8719008 C138.549497,14.7479333 138.926226,14.5371916 139.300731,14.2396694 L139.300731,12.9256198 Z M143.714525,9.67768595 L143.794775,10.6570248 C144.11578,10.2603286 144.46353,9.97727357 144.838036,9.80785124 C145.212541,9.6384289 145.640541,9.55371901 146.122048,9.55371901 C146.585722,9.55371901 146.973596,9.61776795 147.285684,9.74586777 C147.597772,9.87396758 147.896481,10.1074363 148.181818,10.446281 L147.339185,11.1528926 C147.151932,10.9380155 146.942391,10.7789261 146.710554,10.6756198 C146.478717,10.5723135 146.237967,10.5206612 145.988297,10.5206612 C145.488956,10.5206612 145.083248,10.6115693 144.77116,10.7933884 C144.459072,10.9752075 144.160364,11.2520643 143.875026,11.6239669 L143.875026,15.8760331 L142.631139,15.8760331 L142.631139,9.67768595 L143.714525,9.67768595 Z M148.529572,10.0619835 L149.43908,9.52892562 L150.415465,8.12809917 L150.830094,8.19008264 L150.830094,9.67768595 L153.491745,9.67768595 L153.45162,10.6322314 L150.830094,10.5206612 L150.830094,13.7809917 C150.830094,14.2520685 150.946011,14.5867759 151.177847,14.785124 C151.409684,14.9834721 151.708392,15.0826446 152.073981,15.0826446 C152.368236,15.0826446 152.633506,15.0454549 152.869801,14.9710744 C153.106097,14.8966938 153.349076,14.7892569 153.598746,14.6487603 L154,15.4793388 C153.723579,15.6611579 153.422642,15.793388 153.097179,15.8760331 C152.771716,15.9586781 152.38607,16 151.94023,16 C151.173385,16 150.587115,15.8140514 150.1814,15.4421488 C149.775686,15.0702461 149.572832,14.5206648 149.572832,13.7933884 L149.572832,10.6322314 L148.529572,10.4958678 L148.529572,10.0619835 Z" id="riverstart"></path>
                    <path d="M1.02197266,16 L2.11376953,16 L2.11376953,11.7597656 C2.11376953,11.2773413 2.26611176,10.8668637 2.57080078,10.5283203 C2.8754898,10.189777 3.25211364,10.0205078 3.70068359,10.0205078 C4.13232638,10.0205078 4.47827018,10.1411121 4.73852539,10.3823242 C4.9987806,10.6235364 5.12890625,10.9472636 5.12890625,11.3535156 L5.12890625,16 L6.22070312,16 L6.22070312,11.6010742 C6.22070312,11.1651996 6.36669776,10.7928075 6.65869141,10.4838867 C6.95068505,10.1749659 7.33365648,10.0205078 7.80761719,10.0205078 C8.29004147,10.0205078 8.65079633,10.1453438 8.88989258,10.3950195 C9.12898883,10.6446953 9.24853516,11.0213191 9.24853516,11.5249023 L9.24853516,16 L10.340332,16 L10.340332,11.2709961 C10.340332,10.5515915 10.1520201,9.99935088 9.77539062,9.61425781 C9.39876114,9.22916474 8.86133162,9.03662109 8.16308594,9.03662109 C7.68912523,9.03662109 7.26806825,9.1455881 6.89990234,9.36352539 C6.53173644,9.58146268 6.25455822,9.87239401 6.06835937,10.2363281 L5.96679687,10.2363281 C5.81022057,9.8808576 5.57218584,9.59204213 5.25268555,9.36987305 C4.93318525,9.14770397 4.54069243,9.03662109 4.07519531,9.03662109 C3.61816178,9.03662109 3.22461103,9.14135637 2.89453125,9.35083008 C2.56445147,9.56030378 2.32112708,9.85546685 2.16455078,10.2363281 L2.06298828,10.2363281 L2.06298828,9.15722656 L1.02197266,9.15722656 L1.02197266,16 Z M14.3647461,15.1621094 C14.9275744,15.1621094 15.3941225,14.9981299 15.7644043,14.670166 C16.1346861,14.3422021 16.3198242,13.9348983 16.3198242,13.4482422 L16.3198242,12.8198242 L14.4790039,12.9404297 C13.480301,13.0081384 12.980957,13.3805305 12.980957,14.0576172 C12.980957,14.4046241 13.1121406,14.6754548 13.3745117,14.8701172 C13.6368828,15.0647796 13.9669576,15.1621094 14.3647461,15.1621094 Z M14.1616211,16.1206055 C13.4972298,16.1206055 12.9460471,15.9375832 12.5080566,15.5715332 C12.0700662,15.2054832 11.8510742,14.709313 11.8510742,14.0830078 C11.8510742,12.8303974 12.6826089,12.1554367 14.3457031,12.0581055 L16.3198242,11.9375 L16.3198242,11.3154297 C16.3198242,10.4436805 15.8035533,10.0078125 14.7709961,10.0078125 C14.3605123,10.0078125 14.0198581,10.0818677 13.7490234,10.2299805 C13.4781888,10.3780932 13.3046879,10.5875638 13.2285156,10.8583984 L12.1240234,10.8583984 C12.1959639,10.3082655 12.4794897,9.86710778 12.9746094,9.53491211 C13.469729,9.20271644 14.0812138,9.03662109 14.809082,9.03662109 C15.6427451,9.03662109 16.2849099,9.23868613 16.7355957,9.64282227 C17.1862816,10.0469584 17.4116211,10.6044886 17.4116211,11.3154297 L17.4116211,16 L16.3706055,16 L16.3706055,14.9907227 L16.269043,14.9907227 C16.0489898,15.3546568 15.7570005,15.6339508 15.3930664,15.8286133 C15.0291323,16.0232757 14.6186546,16.1206055 14.1616211,16.1206055 Z M21.8867188,16.1206055 C21.0107378,16.1206055 20.3125026,15.7989941 19.7919922,15.1557617 C19.2714818,14.5125293 19.0112305,13.6534884 19.0112305,12.5786133 C19.0112305,11.5037381 19.2735976,10.6446972 19.7983398,10.0014648 C20.3230821,9.35823246 21.0192014,9.03662109 21.8867188,9.03662109 C22.3649112,9.03662109 22.7933738,9.14241431 23.1721191,9.35400391 C23.5508645,9.56559351 23.8375641,9.85969864 24.0322266,10.2363281 L24.1274414,10.2363281 L24.1274414,6.44042969 L25.2192383,6.44042969 L25.2192383,16 L24.1782227,16 L24.1782227,14.9082031 L24.0766602,14.9082031 C23.8608388,15.2890644 23.560386,15.5863433 23.175293,15.8000488 C22.7901999,16.0137543 22.3606795,16.1206055 21.8867188,16.1206055 Z M22.140625,10.0205078 C21.5185516,10.0205078 21.0297869,10.2479632 20.6743164,10.7028809 C20.3188459,11.1577985 20.1411133,11.7830364 20.1411133,12.5786133 C20.1411133,13.378422 20.3177879,14.0047178 20.6711426,14.4575195 C21.0244972,14.9103213 21.5143198,15.1367188 22.140625,15.1367188 C22.7626984,15.1367188 23.2535789,14.9082054 23.6132812,14.4511719 C23.9729836,13.9941383 24.152832,13.3699584 24.152832,12.5786133 C24.152832,11.7957318 23.9719256,11.1736677 23.6101074,10.7124023 C23.2482892,10.251137 22.7584666,10.0205078 22.140625,10.0205078 Z M29.9926758,10.0014648 C29.4467746,10.0014648 28.9982114,10.185545 28.6469727,10.5537109 C28.2957339,10.9218768 28.0989585,11.4085256 28.0566406,12.0136719 L31.8271484,12.0136719 C31.8144531,11.4085256 31.6409522,10.9218768 31.3066406,10.5537109 C30.9723291,10.185545 30.5343452,10.0014648 29.9926758,10.0014648 Z M31.7954102,14.2290039 L32.887207,14.2290039 C32.7221671,14.817223 32.3878606,15.2795393 31.8842773,15.6159668 C31.3806941,15.9523943 30.7543983,16.1206055 30.0053711,16.1206055 C29.0574497,16.1206055 28.3063179,15.8021679 27.7519531,15.1652832 C27.1975884,14.5283985 26.9204102,13.6682997 26.9204102,12.5849609 C26.9204102,11.5100858 27.1997042,10.649987 27.7583008,10.0046387 C28.3168973,9.35929039 29.0659133,9.03662109 30.0053711,9.03662109 C30.9279017,9.03662109 31.6536432,9.34447934 32.1826172,9.96020508 C32.7115912,10.5759308 32.9760742,11.414871 32.9760742,12.4770508 L32.9760742,12.8959961 L28.0566406,12.8959961 L28.0566406,12.9467773 C28.0862632,13.6238641 28.2777489,14.1612936 28.6311035,14.559082 C28.9844581,14.9568705 29.4510062,15.1557617 30.0307617,15.1557617 C30.4708681,15.1557617 30.8390285,15.0764168 31.1352539,14.9177246 C31.4314793,14.7590324 31.6515292,14.5294611 31.7954102,14.2290039 Z M41.6088867,16.1206055 C41.134926,16.1206055 40.7043476,16.0137543 40.3171387,15.8000488 C39.9299297,15.5863433 39.628419,15.2890644 39.4125977,14.9082031 L39.3110352,14.9082031 L39.3110352,16 L38.2700195,16 L38.2700195,6.44042969 L39.3618164,6.44042969 L39.3618164,10.2363281 L39.4633789,10.2363281 C39.6495778,9.86816222 39.9362774,9.57617295 40.3234863,9.36035156 C40.7106953,9.14453017 41.1391578,9.03662109 41.6088867,9.03662109 C42.4806359,9.03662109 43.1767552,9.35823246 43.6972656,10.0014648 C44.217776,10.6446972 44.4780273,11.5037381 44.4780273,12.5786133 C44.4780273,13.6492567 44.2167181,14.5072396 43.6940918,15.1525879 C43.1714655,15.7979362 42.4764041,16.1206055 41.6088867,16.1206055 Z M41.3549805,10.0205078 C40.732907,10.0205078 40.2409686,10.2490212 39.8791504,10.7060547 C39.5173322,11.1630882 39.3364258,11.7872682 39.3364258,12.5786133 C39.3364258,13.3699584 39.5173322,13.9941383 39.8791504,14.4511719 C40.2409686,14.9082054 40.732907,15.1367188 41.3549805,15.1367188 C41.9812857,15.1367188 42.4700503,14.9103213 42.8212891,14.4575195 C43.1725278,14.0047178 43.3481445,13.378422 43.3481445,12.5786133 C43.3481445,11.7788046 43.1725278,11.1525088 42.8212891,10.699707 C42.4700503,10.2469053 41.9812857,10.0205078 41.3549805,10.0205078 Z M46.699707,18.4755859 C47.3048533,18.4755859 47.7735172,18.3317072 48.1057129,18.0439453 C48.4379086,17.7561835 48.7499985,17.2145222 49.0419922,16.4189453 L51.7143555,9.15722656 L50.5527344,9.15722656 L48.6801758,14.7875977 L48.5786133,14.7875977 L46.699707,9.15722656 L45.519043,9.15722656 L48.0517578,16.0063477 L47.9248047,16.4125977 C47.7809238,16.8273133 47.6137705,17.1182446 47.4233398,17.2854004 C47.2329092,17.4525562 46.9811214,17.5361328 46.6679688,17.5361328 C46.5917965,17.5361328 46.5135095,17.5340169 46.4331055,17.5297852 C46.3527014,17.5255534 46.2786462,17.5170899 46.2109375,17.5043945 L46.2109375,18.4375 C46.261719,18.4459636 46.3156735,18.4533691 46.3728027,18.4597168 C46.4299319,18.4660645 46.4870603,18.4702962 46.5441895,18.4724121 C46.6013186,18.474528 46.6531573,18.4755859 46.699707,18.4755859 Z" id="made-by"></path>
                </g>
            </g>
        </g>
    </g>
</svg>